{"glyphs":{"0":{"ha":613,"x_min":0,"x_max":0,"o":"m 310 836 b 44 413 96 836 44 581 b 308 -17 44 75 179 -17 b 568 407 465 -17 568 108 b 311 836 568 576 539 836 z m 308 782 b 489 422 474 782 489 531 b 313 38 489 86 394 38 b 124 411 219 38 124 135 b 307 782 124 715 231 782 z "},"1":{"ha":613,"x_min":0,"x_max":0,"o":"m 410 836 b 135 722 354 810 260 771 l 107 665 l 110 663 b 347 750 175 683 283 722 b 346 -8 347 347 346 65 b 396 -3 364 -8 382 -6 b 424 33 414 1 424 6 b 421 826 424 146 421 733 z "},"2":{"ha":613,"x_min":0,"x_max":0,"o":"m 53 15 l 56 8 b 372 -6 114 -4 251 -6 b 518 11 446 -6 503 1 b 561 61 535 19 558 46 b 156 61 449 54 296 54 b 435 386 279 192 386 314 b 514 596 483 457 514 524 b 288 836 514 736 436 836 b 56 719 207 836 113 793 b 64 689 56 710 60 694 b 101 693 74 678 85 678 b 278 772 135 725 200 772 b 433 593 361 772 433 724 b 78 61 433 478 351 344 z "},"3":{"ha":613,"x_min":0,"x_max":0,"o":"m 65 44 b 88 -10 65 29 75 7 b 231 -42 103 -21 164 -42 b 549 229 415 -42 549 60 b 342 446 549 331 494 414 b 497 656 432 486 497 550 b 285 836 497 719 447 836 b 83 742 210 836 117 788 b 92 708 82 728 83 717 b 128 717 100 699 113 704 b 274 774 161 749 221 774 b 417 642 367 774 417 714 b 194 440 417 521 315 461 b 164 392 185 433 169 410 l 165 389 b 244 396 188 392 213 396 b 465 225 385 396 465 335 b 229 14 465 121 417 14 b 68 47 171 14 100 33 z "},"4":{"ha":613,"x_min":0,"x_max":0,"o":"m 522 867 b 408 807 486 863 439 836 b 32 289 342 743 117 432 b 58 258 36 278 49 264 b 406 239 114 247 269 239 b 403 -8 406 114 401 36 b 458 -3 417 -8 440 -7 b 482 33 475 1 482 10 b 482 238 482 72 482 181 b 526 244 494 240 517 242 b 579 299 554 256 571 274 l 578 303 b 482 296 544 297 496 296 l 482 578 l 474 581 b 411 565 446 578 435 574 l 407 296 b 114 310 307 294 200 300 b 525 861 211 471 367 688 z "},"5":{"ha":613,"x_min":0,"x_max":0,"o":"m 81 457 b 281 419 125 451 207 439 b 464 229 396 388 464 340 b 222 14 465 75 346 14 b 85 38 163 14 108 28 l 82 35 b 104 -17 83 15 92 -7 b 225 -42 115 -25 153 -42 b 546 240 404 -42 546 71 b 307 482 546 368 461 443 b 146 513 253 494 188 506 b 197 765 149 551 185 726 b 471 797 422 775 451 776 b 492 838 483 811 489 828 l 489 843 b 153 828 444 838 211 829 b 76 467 135 778 86 533 z "},"6":{"ha":613,"x_min":0,"x_max":0,"o":"m 557 840 b 503 868 549 858 529 868 b 168 672 460 868 297 826 b 38 321 82 571 38 442 b 307 -17 38 56 183 -17 b 575 263 492 -17 575 132 b 363 497 575 349 529 497 b 194 435 304 497 242 474 b 172 371 176 419 168 385 b 332 433 225 411 281 433 b 494 249 408 433 494 392 b 318 38 494 90 401 38 b 118 314 210 38 118 124 b 251 674 118 467 172 588 b 557 836 331 760 436 810 z "},"7":{"ha":613,"x_min":0,"x_max":0,"o":"m 558 819 b 208 819 510 819 272 819 b 94 831 142 819 110 821 b 49 772 75 819 49 786 b 138 757 49 763 74 757 b 489 757 286 757 393 757 b 107 -17 440 554 236 139 l 110 -24 b 147 -18 122 -24 132 -22 b 201 14 167 -14 181 -8 b 564 814 260 75 529 581 z "},"8":{"ha":613,"x_min":0,"x_max":0,"o":"m 314 836 b 83 622 178 836 83 738 b 233 414 83 542 117 475 b 49 181 121 344 49 289 b 299 -17 49 108 97 -17 b 564 203 464 -17 564 90 b 369 422 564 325 482 364 b 526 644 454 483 526 539 b 315 836 526 768 432 836 z m 303 783 b 456 638 397 783 456 726 b 319 447 456 561 394 496 b 154 632 208 501 154 547 b 301 783 154 736 232 783 z m 307 36 b 125 193 218 36 125 88 b 285 386 125 275 189 332 b 488 196 435 313 488 274 b 308 36 488 86 403 36 z "},"9":{"ha":613,"x_min":0,"x_max":0,"o":"m 82 -8 b 106 -36 86 -18 93 -28 b 136 -42 113 -40 124 -42 b 408 100 164 -42 300 -10 b 564 492 525 217 564 356 b 303 836 564 656 499 836 b 43 568 133 836 43 694 b 269 331 43 447 115 331 b 394 371 325 331 378 353 b 410 421 408 385 411 408 b 294 390 390 411 343 390 b 124 579 197 390 124 447 b 294 782 124 688 186 782 b 482 493 415 782 482 658 b 363 143 482 354 447 239 b 83 -4 283 54 150 7 z "}," ":{"ha":299,"x_min":0,"x_max":0,"o":""},"!":{"ha":210,"x_min":0,"x_max":0,"o":"m 139 843 b 71 810 121 843 75 825 b 88 256 74 686 85 322 b 121 269 92 256 108 261 b 136 307 129 275 135 282 b 157 811 138 339 157 757 b 140 843 157 836 151 843 z m 110 97 b 51 40 72 97 51 71 b 104 -15 51 4 81 -15 b 160 43 136 -15 160 10 b 111 97 160 69 140 97 z "},"\"":{"ha":354,"x_min":0,"x_max":0,"o":"m 106 928 b 49 899 89 928 64 911 b 58 618 63 826 63 697 b 107 647 79 619 101 633 b 132 857 119 689 132 793 b 107 928 132 883 129 928 z m 279 928 b 224 899 263 928 239 911 b 232 618 236 826 236 697 b 281 647 251 619 275 633 b 306 857 293 689 306 793 b 281 928 306 885 303 928 z "},"#":{"ha":613,"x_min":0,"x_max":0,"o":"m 94 643 b 76 604 85 629 81 617 b 93 592 72 596 78 592 l 204 592 l 158 383 l 44 383 b 24 347 36 375 28 361 b 43 333 21 339 28 333 l 147 332 l 104 125 b 139 100 110 114 133 100 b 158 118 151 100 156 104 l 201 332 l 346 332 l 304 122 b 310 100 301 111 303 100 b 358 118 328 100 351 111 l 400 332 l 515 332 b 536 371 525 338 533 360 b 518 383 538 381 535 383 l 411 383 l 454 592 l 557 592 b 578 625 567 600 574 613 b 561 643 581 639 576 643 l 467 643 l 503 813 b 494 833 507 828 506 833 b 447 817 482 833 447 822 l 410 643 l 271 643 l 308 813 b 301 833 311 822 311 833 b 254 817 282 833 258 822 l 215 643 z m 400 592 l 357 383 l 214 383 l 258 592 z "},"$":{"ha":613,"x_min":0,"x_max":0,"o":"m 383 913 b 339 904 371 913 357 911 b 318 871 326 900 321 890 l 307 796 b 121 601 254 792 121 738 b 292 381 121 499 185 443 b 451 206 388 324 451 279 b 281 56 451 103 378 56 b 99 118 222 56 153 81 b 94 117 99 118 96 118 b 94 56 85 106 79 71 b 251 0 115 36 172 6 l 238 -129 b 281 -125 253 -131 269 -128 b 304 -97 290 -122 301 -115 l 315 4 b 522 214 393 11 522 63 b 357 425 522 333 435 376 b 192 610 271 479 192 515 b 343 746 192 703 272 746 b 474 708 390 746 435 728 b 515 744 493 701 513 715 b 369 799 493 765 432 796 z "},"%":{"ha":913,"x_min":0,"x_max":0,"o":"m 746 829 b 732 858 743 842 739 851 b 704 863 718 874 713 875 b 168 -10 546 600 308 221 b 183 -44 168 -21 172 -36 b 208 -39 192 -54 197 -56 b 746 829 433 317 619 631 z m 228 836 b 46 601 106 836 46 714 b 222 376 46 450 128 376 b 403 607 346 376 403 492 b 229 836 403 721 358 836 z m 225 789 b 335 613 311 789 335 676 b 222 422 335 499 299 422 b 114 603 144 422 114 519 b 224 789 114 703 147 789 z m 699 443 b 511 204 575 443 511 328 b 690 -17 511 38 606 -17 b 868 208 807 -17 868 93 b 700 443 868 315 829 443 z m 692 396 b 800 214 783 396 800 282 b 690 31 800 100 763 31 b 579 206 608 31 579 125 b 690 396 579 297 615 396 z "},"&":{"ha":878,"x_min":0,"x_max":0,"o":"m 814 8 b 608 207 799 24 747 76 b 826 528 704 375 774 479 l 826 535 b 782 568 814 553 796 568 b 731 519 771 568 758 556 b 565 242 692 467 631 356 b 338 458 540 265 415 382 b 515 679 410 507 515 568 b 339 853 515 803 428 853 b 143 656 233 853 143 779 b 242 460 143 583 182 515 b 60 208 161 401 60 332 b 299 -17 60 67 160 -17 b 567 144 365 -17 465 3 b 707 8 649 68 683 31 b 753 -22 732 -15 742 -22 b 814 1 768 -22 797 -10 z m 213 661 b 332 800 213 742 257 800 b 446 681 392 800 446 757 b 306 492 446 607 394 553 b 213 660 236 551 213 615 z m 308 44 b 135 214 219 44 135 110 b 276 425 135 294 182 357 b 528 182 321 382 425 279 b 310 44 446 61 369 44 z "},"’":{"ha":224,"x_min":0,"x_max":0,"o":"m 178 865 b 146 928 178 897 174 928 b 94 900 129 928 104 914 b 97 850 97 882 97 864 b 40 633 97 771 63 681 b 104 658 78 632 92 643 b 178 864 131 690 178 792 z "},"(":{"ha":429,"x_min":0,"x_max":0,"o":"m 81 342 b 328 -256 81 78 182 -151 b 367 -219 343 -254 360 -235 b 149 356 224 -86 149 101 b 367 929 149 579 214 771 b 336 972 369 949 350 969 b 81 343 192 840 81 635 z "},")":{"ha":429,"x_min":0,"x_max":0,"o":"m 354 376 b 108 972 354 678 219 890 b 68 936 89 969 78 953 b 286 361 211 803 286 619 b 68 -212 286 131 221 -56 b 99 -256 65 -232 82 -250 b 354 375 257 -111 354 97 z "},"*":{"ha":460,"x_min":0,"x_max":0,"o":"m 222 756 l 96 860 b 68 829 86 850 75 840 b 78 799 60 818 63 808 l 197 728 l 63 676 b 53 647 53 671 46 663 b 72 610 54 631 63 617 l 213 699 l 189 574 b 200 532 183 544 188 535 b 243 528 221 528 233 526 l 251 693 l 383 585 b 413 615 396 593 406 603 b 403 650 419 625 419 639 l 276 724 l 394 774 b 415 808 414 782 421 792 b 393 838 413 818 404 831 l 261 758 l 288 897 b 265 922 290 913 281 921 b 229 922 251 925 244 925 z "},"+":{"ha":779,"x_min":0,"x_max":0,"o":"m 358 318 l 358 15 l 383 18 b 422 57 411 25 422 36 l 422 318 l 650 318 b 694 374 686 318 693 350 l 422 374 l 422 596 b 388 643 422 640 413 649 l 354 638 b 358 526 357 613 358 563 l 358 374 l 128 374 b 85 318 97 374 86 343 z "},",":{"ha":199,"x_min":0,"x_max":0,"o":"m 114 144 b 57 118 99 144 72 129 b 63 67 60 103 63 88 b -18 -143 63 -1 26 -83 b 33 -133 8 -144 26 -139 b 146 74 78 -103 146 -3 b 115 144 146 94 143 144 z "},"-":{"ha":400,"x_min":0,"x_max":0,"o":"m 351 379 b 89 338 296 365 172 347 b 44 269 74 336 56 304 l 47 265 b 272 297 104 267 228 285 b 354 376 326 311 344 336 z "},".":{"ha":199,"x_min":0,"x_max":0,"o":"m 103 103 b 42 43 65 103 42 75 b 97 -15 42 4 72 -15 b 156 46 132 -15 156 10 b 104 103 156 74 135 103 z "},"/":{"ha":456,"x_min":0,"x_max":0,"o":"m 413 889 l 388 888 b 339 849 351 888 346 874 l 56 -132 l 100 -132 b 133 -82 114 -132 122 -124 z "},":":{"ha":199,"x_min":0,"x_max":0,"o":"m 99 576 b 42 515 63 576 42 550 b 97 458 42 478 72 458 b 151 518 129 458 151 485 b 100 576 151 550 133 576 z m 104 103 b 44 42 72 103 44 79 b 100 -15 44 3 75 -15 b 158 44 135 -15 158 10 b 106 103 158 78 132 103 z "},";":{"ha":199,"x_min":0,"x_max":0,"o":"m 101 576 b 42 515 63 576 42 550 b 97 458 42 476 74 458 b 153 518 129 458 153 485 b 103 576 153 549 135 576 z m 114 144 b 57 118 99 144 72 129 b 63 67 60 103 63 88 b -18 -143 63 -1 22 -89 b 33 -135 8 -144 26 -139 b 146 74 78 -104 146 -3 b 115 144 146 94 143 144 z "},"<":{"ha":779,"x_min":0,"x_max":0,"o":"m 640 592 b 626 626 639 601 635 611 b 593 633 617 642 608 644 l 153 346 b 138 314 143 336 138 325 b 156 293 138 307 146 300 l 592 14 b 626 19 606 4 618 7 b 639 58 635 31 639 49 l 222 321 l 222 325 z "},"=":{"ha":779,"x_min":0,"x_max":0,"o":"m 650 449 b 694 504 685 449 693 464 l 128 504 b 83 449 96 504 85 481 z m 650 182 b 694 238 685 182 693 199 l 128 238 b 83 182 96 238 85 213 z "},">":{"ha":779,"x_min":0,"x_max":0,"o":"m 139 58 b 151 24 142 49 144 38 b 186 17 163 7 171 6 l 625 304 b 640 339 636 313 640 325 b 622 358 640 343 633 351 l 188 638 b 153 632 174 647 161 644 b 139 592 144 619 139 603 l 556 331 l 556 326 z "},"?":{"ha":411,"x_min":0,"x_max":0,"o":"m 218 843 b 57 772 169 843 108 824 b 79 731 56 753 64 736 l 83 731 b 206 778 113 756 157 778 b 307 672 274 778 307 732 b 224 501 307 610 254 544 b 156 331 178 435 156 385 b 200 250 156 269 190 250 b 236 265 210 250 226 254 b 222 331 226 283 222 307 b 290 482 222 360 239 415 b 383 678 338 543 383 604 b 219 843 383 774 315 843 z m 217 97 b 157 40 179 97 157 71 b 211 -15 157 4 188 -15 b 267 43 243 -15 267 10 b 218 97 267 69 246 97 z "},"@":{"ha":983,"x_min":0,"x_max":0,"o":"m 714 90 b 474 10 647 40 558 10 b 122 371 250 10 122 165 b 546 826 122 636 283 826 b 867 518 717 826 867 708 b 696 235 867 301 768 235 b 644 386 643 235 625 276 b 706 644 656 453 693 592 b 569 668 661 657 618 668 b 275 322 388 668 275 497 b 364 183 275 238 314 183 b 585 351 435 183 518 232 b 675 183 564 210 621 183 b 928 511 818 183 928 321 b 550 878 928 728 775 878 b 56 367 258 878 56 664 b 439 -47 56 100 235 -47 b 703 33 553 -47 636 -19 b 718 89 726 49 722 79 z m 390 242 b 340 335 363 242 340 272 b 563 619 340 469 410 619 b 633 608 578 619 622 615 b 593 463 624 567 604 493 b 392 242 544 328 454 242 z "},"A":{"ha":856,"x_min":0,"x_max":0,"o":"m 610 300 b 731 31 671 163 696 106 b 768 -8 744 0 753 -8 b 828 6 781 -8 801 -4 l 828 13 b 713 260 804 54 769 139 b 453 851 651 392 515 708 b 421 872 449 861 442 872 b 372 860 403 872 385 865 l 393 813 b 24 15 354 724 110 186 l 22 7 b 71 -8 36 -3 58 -8 b 94 6 82 -8 90 -3 b 231 300 122 60 168 160 z m 256 358 b 424 739 317 497 365 610 b 586 358 446 689 501 560 z "},"B":{"ha":661,"x_min":0,"x_max":0,"o":"m 108 10 b 289 -14 179 -8 229 -14 b 611 256 465 -14 611 76 b 435 472 611 353 551 439 b 550 665 503 513 550 583 b 290 875 550 721 525 875 b 104 860 204 875 124 864 b 108 672 108 786 108 746 z m 185 814 b 264 819 203 817 243 819 b 468 654 419 819 468 739 b 369 485 468 565 414 499 b 185 478 307 488 226 485 z m 185 425 b 276 432 207 431 247 432 b 526 249 431 432 526 374 b 290 40 526 104 419 40 b 185 53 250 40 204 46 z "},"C":{"ha":804,"x_min":0,"x_max":0,"o":"m 757 88 b 543 40 715 67 624 40 b 142 435 282 40 142 203 b 522 826 142 692 321 826 b 732 776 607 826 681 804 b 775 819 744 774 771 785 b 529 889 753 846 658 889 b 57 429 261 889 57 704 b 518 -21 57 163 213 -21 b 722 22 614 -21 694 3 b 760 83 743 35 758 64 z "},"D":{"ha":886,"x_min":0,"x_max":0,"o":"m 108 18 b 339 -14 181 -1 242 -14 b 839 447 625 -14 839 149 b 324 875 839 615 769 875 b 106 854 250 875 119 861 b 108 688 108 810 108 782 z m 185 808 b 318 818 224 815 267 818 b 754 442 626 818 754 657 b 346 40 754 153 565 40 b 185 57 290 40 219 46 z "},"E":{"ha":596,"x_min":0,"x_max":0,"o":"m 108 31 l 126 7 b 375 -8 163 -3 267 -8 b 524 -3 464 -8 507 -6 b 579 54 553 3 571 31 l 576 57 b 388 50 535 51 456 50 b 185 63 310 50 211 53 l 185 417 l 446 417 b 526 475 490 417 515 419 l 185 475 l 185 808 l 418 808 b 510 818 478 808 494 810 b 535 867 525 831 535 854 b 168 867 439 867 281 867 b 106 847 146 863 122 854 b 108 672 108 800 108 738 z "},"F":{"ha":585,"x_min":0,"x_max":0,"o":"m 108 13 b 129 -8 108 -4 118 -8 b 189 3 144 -8 171 -4 b 185 388 186 108 185 219 l 458 388 b 533 446 500 388 535 397 l 185 446 l 185 808 l 446 808 b 533 822 496 808 522 811 b 553 867 544 835 550 851 b 175 867 503 867 275 867 b 104 849 146 863 126 856 b 108 699 107 829 108 781 z "},"G":{"ha":903,"x_min":0,"x_max":0,"o":"m 739 72 b 556 36 703 50 614 36 b 142 436 353 36 142 139 b 529 828 142 669 304 828 b 769 769 606 828 692 815 b 814 811 793 760 815 788 b 539 889 799 826 711 889 b 57 428 271 889 57 707 b 540 -21 57 103 285 -21 b 731 13 607 -21 694 -1 b 815 57 756 21 799 46 l 815 379 b 800 417 815 408 810 417 b 733 396 782 417 746 403 b 739 207 740 360 739 308 z "},"H":{"ha":892,"x_min":0,"x_max":0,"o":"m 185 478 l 185 803 b 164 872 185 867 179 872 b 104 861 147 872 118 865 b 108 685 107 835 108 778 l 108 246 b 104 -8 108 129 107 47 b 157 -3 139 -7 126 -8 b 185 31 179 1 185 6 l 185 419 l 478 419 b 708 424 635 419 681 421 l 708 11 b 722 -8 708 -4 714 -8 b 789 3 735 -8 768 -3 b 785 174 788 31 785 76 l 785 622 b 789 872 785 738 786 819 b 732 867 772 872 749 871 b 708 833 714 864 708 858 l 708 478 z "},"I":{"ha":292,"x_min":0,"x_max":0,"o":"m 108 17 b 125 -8 108 -4 114 -8 b 189 3 140 -8 169 -4 b 185 172 188 31 185 76 l 185 803 b 168 872 185 864 183 872 b 104 861 149 872 118 865 b 108 686 107 836 108 779 z "},"J":{"ha":292,"x_min":0,"x_max":0,"o":"m 108 201 b -40 -140 108 -61 53 -110 l -42 -144 b -3 -181 -36 -161 -19 -181 b 83 -140 14 -181 51 -167 b 185 211 160 -78 185 15 l 185 804 b 169 872 185 867 183 872 b 104 861 153 872 118 865 b 108 686 107 836 108 779 z "},"K":{"ha":768,"x_min":0,"x_max":0,"o":"m 108 13 b 128 -8 108 -4 113 -8 b 189 3 140 -8 172 -3 b 185 174 188 31 185 76 l 185 429 b 619 17 239 372 535 92 b 681 -11 643 -3 663 -11 b 747 4 703 -11 733 -4 l 747 7 b 274 443 621 101 379 333 b 686 829 376 539 576 729 b 694 875 717 858 717 869 b 654 882 678 879 667 882 b 185 436 507 743 308 549 l 185 810 b 169 872 185 867 185 872 b 104 861 153 872 124 865 b 108 685 107 835 108 778 z "},"L":{"ha":579,"x_min":0,"x_max":0,"o":"m 108 31 l 126 7 b 365 -8 164 -1 257 -8 b 514 -3 454 -8 497 -6 b 565 54 546 4 563 29 l 564 57 b 361 50 521 51 429 50 b 185 63 296 50 211 53 l 185 801 b 169 872 185 867 179 872 b 104 861 151 872 124 865 b 108 685 107 835 108 778 z "},"M":{"ha":1165,"x_min":0,"x_max":0,"o":"m 869 831 b 575 136 808 689 688 406 l 364 669 b 282 872 318 783 296 839 b 215 860 263 872 233 865 l 228 821 b 56 4 161 513 85 136 b 103 -8 76 -8 96 -8 b 125 13 114 -8 119 -4 b 267 738 147 133 226 511 b 543 0 354 507 493 153 b 578 7 551 0 569 3 b 601 38 592 13 596 24 b 890 740 701 286 828 589 l 974 260 b 1021 15 993 150 1003 97 b 1044 -8 1025 -1 1029 -8 b 1103 4 1061 -8 1085 -3 b 1036 319 1086 71 1064 174 l 938 840 b 918 872 933 865 926 872 b 865 860 903 872 878 867 z "},"N":{"ha":917,"x_min":0,"x_max":0,"o":"m 124 799 l 124 244 b 119 -8 124 128 122 47 b 160 -3 129 -8 142 -7 b 186 43 178 1 186 6 l 186 396 b 179 732 186 467 185 543 b 318 543 231 657 289 582 b 746 -15 450 376 635 131 b 757 -18 749 -15 754 -18 b 800 0 769 -18 793 -7 l 800 617 b 804 872 800 732 801 813 b 761 867 782 872 800 872 b 736 826 746 864 736 858 l 736 442 b 743 97 736 372 736 267 b 554 353 703 164 632 254 b 169 849 376 578 219 794 b 139 872 158 865 146 872 b 79 861 124 872 90 865 l 79 856 z "},"O":{"ha":989,"x_min":0,"x_max":0,"o":"m 493 889 b 57 421 224 889 57 686 b 497 -21 57 242 175 -21 b 932 442 793 -21 932 208 b 494 889 932 694 751 889 z m 488 835 b 847 439 694 835 847 668 b 503 33 847 164 696 33 b 142 429 328 33 142 174 b 486 835 142 679 283 835 z "},"P":{"ha":651,"x_min":0,"x_max":0,"o":"m 108 17 b 128 -8 108 -4 118 -8 b 189 3 147 -8 171 -4 b 185 172 188 31 185 76 l 185 813 b 278 818 215 817 242 818 b 515 608 367 818 515 797 b 326 404 515 444 397 404 b 238 417 300 404 261 408 b 256 369 235 400 246 376 b 335 351 271 357 294 351 b 600 615 461 351 600 440 b 286 875 600 797 467 875 b 103 861 221 875 144 867 b 108 674 108 797 108 740 z "},"Q":{"ha":989,"x_min":0,"x_max":0,"o":"m 496 889 b 57 419 225 889 57 688 b 451 -24 57 189 206 10 b 613 -83 515 -31 561 -50 b 926 -239 749 -172 840 -239 b 1000 -206 953 -239 985 -229 b 1000 -200 1000 -204 999 -203 b 733 -76 914 -186 818 -131 b 618 -8 696 -51 654 -25 b 932 442 833 54 932 232 b 497 889 932 688 761 889 z m 486 835 b 847 439 699 835 847 668 b 504 33 847 160 701 33 b 142 429 333 33 142 169 b 485 835 142 679 283 835 z "},"R":{"ha":706,"x_min":0,"x_max":0,"o":"m 185 378 b 235 378 210 378 218 378 b 429 247 338 378 363 344 b 547 68 476 179 490 156 b 644 -11 583 13 614 -11 b 697 -1 669 -11 686 -8 l 699 6 b 532 225 671 26 604 111 b 389 397 471 322 425 374 b 569 633 449 419 569 489 b 286 875 569 822 440 875 b 106 857 225 875 147 865 b 108 708 108 810 108 776 l 108 244 b 104 -8 108 129 107 47 b 164 -4 111 -8 128 -8 b 185 29 179 -1 185 6 z m 185 813 b 286 819 210 818 249 819 b 488 629 382 819 488 776 b 351 436 488 521 425 460 b 185 431 332 429 247 428 z "},"S":{"ha":572,"x_min":0,"x_max":0,"o":"m 325 889 b 69 672 122 889 69 750 b 250 422 69 596 85 515 b 447 200 381 350 447 306 b 258 40 447 103 374 40 b 65 106 199 40 117 63 b 54 61 58 89 57 85 b 71 32 54 49 61 40 b 254 -21 97 10 167 -21 b 526 213 408 -21 526 69 b 318 475 526 326 482 383 b 147 678 203 539 147 581 b 315 829 147 790 240 829 b 456 792 371 829 417 813 b 486 836 474 793 488 818 b 326 889 454 868 379 889 z "},"T":{"ha":724,"x_min":0,"x_max":0,"o":"m 328 17 b 343 -8 328 -4 333 -8 b 408 3 357 -8 385 -4 b 404 172 407 31 404 76 l 404 810 l 686 810 b 717 867 700 818 719 854 l 274 867 b 63 874 104 867 76 868 b 29 831 54 865 39 847 b 49 810 22 817 31 810 l 328 810 z "},"U":{"ha":907,"x_min":0,"x_max":0,"o":"m 181 801 b 160 872 181 867 179 872 b 100 861 144 872 114 865 b 104 685 103 835 104 778 l 104 407 b 444 -21 104 63 261 -21 b 800 428 586 -21 800 19 l 800 622 b 804 872 800 738 801 819 b 757 867 776 872 797 871 b 733 833 744 864 733 858 l 733 425 b 456 39 733 79 589 39 b 181 403 342 39 181 86 z "},"V":{"ha":807,"x_min":0,"x_max":0,"o":"m 39 846 b 388 -17 164 565 276 264 b 432 -3 408 -17 421 -10 b 456 32 439 3 449 17 b 775 814 563 292 671 547 b 763 863 786 843 779 854 b 725 872 749 868 738 869 b 419 94 629 615 519 350 b 167 740 296 406 208 633 b 99 872 122 854 117 872 b 39 846 76 872 44 856 z "},"W":{"ha":1229,"x_min":0,"x_max":0,"o":"m 629 872 b 582 861 610 872 592 867 b 588 829 585 853 586 838 b 361 101 497 557 414 281 b 147 782 296 326 207 588 b 103 872 122 860 117 872 b 40 850 90 872 63 863 b 332 -17 147 565 242 271 b 371 -4 344 -17 358 -11 b 403 51 385 4 392 15 b 617 742 436 169 557 539 b 844 -17 718 406 810 104 b 886 -1 856 -17 879 -8 b 915 53 896 8 903 19 b 1189 811 993 268 1101 561 b 1192 861 1200 843 1201 856 b 1142 872 1176 868 1156 872 b 876 104 1110 769 997 453 b 651 850 799 376 703 689 b 631 872 644 867 640 872 z "},"X":{"ha":767,"x_min":0,"x_max":0,"o":"m 46 854 b 346 439 100 779 258 569 b 19 7 221 272 92 104 l 19 3 b 69 -8 36 -4 57 -8 b 100 8 81 -8 94 -1 b 381 392 144 71 282 254 b 646 17 518 200 589 96 b 688 -10 663 -6 676 -10 b 750 3 706 -10 729 -4 l 750 7 b 426 451 696 75 610 193 b 729 854 556 628 683 789 l 729 857 b 682 872 718 864 699 872 b 643 839 668 872 658 861 b 390 499 579 750 500 643 b 157 822 283 649 235 713 b 113 872 132 860 122 872 b 46 856 90 872 63 863 z "},"Y":{"ha":756,"x_min":0,"x_max":0,"o":"m 339 17 b 356 -8 339 -4 343 -8 b 419 3 372 -8 407 -4 b 415 169 418 31 415 75 l 415 381 b 429 433 415 400 418 419 b 711 815 453 463 674 767 b 715 863 731 842 731 857 b 674 872 700 868 690 872 b 388 469 644 825 431 526 b 146 814 307 583 199 736 b 90 872 119 851 104 872 b 26 857 69 872 44 865 l 26 853 b 329 428 96 764 264 526 b 339 371 339 414 339 396 z "},"Z":{"ha":767,"x_min":0,"x_max":0,"o":"m 742 53 b 154 56 651 47 315 49 b 665 782 374 346 586 656 b 701 867 682 810 694 835 l 214 867 b 113 875 161 867 131 869 b 76 829 100 867 76 843 b 158 810 76 818 78 810 b 604 810 243 810 489 810 b 46 32 501 640 239 272 b 68 3 47 22 54 15 b 499 -8 86 -4 154 -8 b 689 0 654 -8 676 -6 b 743 50 707 7 721 15 z "},"[":{"ha":422,"x_min":0,"x_max":0,"o":"m 126 294 b 128 -224 126 86 119 -143 b 332 -249 135 -232 211 -249 b 346 -214 339 -239 344 -224 b 332 -203 347 -210 343 -204 b 221 -189 276 -197 246 -193 b 189 -157 203 -185 192 -179 b 186 285 188 -139 183 -74 b 197 842 188 631 194 822 b 224 876 200 864 207 872 b 338 892 247 879 297 886 b 360 899 354 893 360 896 b 344 938 360 908 354 924 b 140 914 299 938 151 921 b 126 296 135 810 126 436 z "},"\\":{"ha":400,"x_min":0,"x_max":0,"o":"m 101 889 l 94 886 b 44 850 47 883 40 867 l 292 -132 l 321 -131 b 347 -82 349 -129 357 -119 z "},"]":{"ha":422,"x_min":0,"x_max":0,"o":"m 296 394 b 294 913 296 603 303 832 b 90 938 282 922 211 938 b 76 904 83 928 78 914 b 93 892 75 899 82 893 b 201 878 149 886 176 882 b 233 846 221 875 231 868 b 236 404 235 828 239 764 b 225 -151 235 58 228 -132 b 199 -186 222 -175 215 -182 b 85 -201 178 -189 133 -196 b 63 -208 68 -203 63 -206 b 78 -249 63 -218 68 -235 b 282 -225 124 -249 274 -232 b 296 393 290 -87 296 151 z "},"^":{"ha":779,"x_min":0,"x_max":0,"o":"m 110 324 b 158 301 122 311 149 301 b 183 322 168 301 172 306 l 386 763 l 590 332 b 615 301 599 313 607 301 b 669 324 628 301 660 315 l 419 836 b 376 833 393 838 388 835 b 347 810 357 829 353 825 z "},"_":{"ha":694,"x_min":0,"x_max":0,"o":"m 694 -104 l 0 -104 l 0 -174 l 694 -174 z "},"‘":{"ha":224,"x_min":0,"x_max":0,"o":"m 49 701 b 82 640 49 669 53 640 b 132 668 97 640 121 654 b 129 718 128 686 129 703 b 186 935 129 797 164 888 b 121 910 147 936 133 924 b 49 703 93 876 49 776 z "},"a":{"ha":565,"x_min":0,"x_max":0,"o":"m 529 43 b 500 38 518 39 508 38 b 456 90 472 38 457 54 b 457 390 453 171 457 329 b 267 619 457 504 421 619 b 60 525 176 619 92 563 b 103 493 65 496 83 482 b 256 556 149 531 200 556 b 386 408 349 556 386 481 l 385 351 b 317 338 367 349 342 343 b 44 126 264 324 44 282 b 194 -17 44 58 96 -17 b 385 81 275 -17 344 32 b 468 -17 383 35 408 -17 b 531 40 504 -17 535 0 z m 122 139 b 385 300 122 246 278 279 l 385 183 b 376 139 385 160 382 149 b 222 47 354 100 300 47 b 122 138 168 47 122 83 z "},"b":{"ha":683,"x_min":0,"x_max":0,"o":"m 175 854 b 160 944 175 938 171 944 b 97 931 149 944 122 938 b 103 772 100 903 103 861 l 103 58 b 118 17 103 32 107 25 b 272 -17 138 3 204 -17 b 636 326 472 -17 636 110 b 383 619 636 560 471 619 b 174 547 311 619 238 586 z m 174 499 b 342 553 221 529 296 553 b 557 317 465 553 557 474 b 281 39 557 142 436 39 b 174 56 251 39 203 43 z "},"c":{"ha":572,"x_min":0,"x_max":0,"o":"m 526 75 b 379 46 486 57 422 46 b 129 301 285 46 129 89 b 363 558 129 446 222 558 b 503 525 414 558 460 547 b 542 569 524 519 542 543 b 375 619 531 586 467 619 b 50 297 192 619 50 485 b 360 -17 50 19 254 -17 b 501 17 419 -17 475 0 b 529 72 517 25 526 49 z "},"d":{"ha":699,"x_min":0,"x_max":0,"o":"m 519 594 b 392 619 501 600 463 619 b 50 286 194 619 50 478 b 314 -17 50 78 183 -17 b 526 68 378 -17 467 18 b 607 -17 531 24 556 -17 b 653 28 628 -17 647 6 l 653 32 b 590 129 607 38 590 56 l 590 854 b 574 944 590 938 585 944 b 515 931 561 944 538 938 b 519 804 517 903 519 871 z m 519 114 b 347 50 476 76 408 50 b 129 290 222 50 129 146 b 383 564 129 481 263 564 b 519 536 446 564 494 551 z "},"e":{"ha":582,"x_min":0,"x_max":0,"o":"m 507 83 b 351 47 481 68 411 47 b 124 314 204 47 121 154 b 418 315 247 310 378 313 b 540 358 458 317 535 332 b 543 400 543 371 543 390 b 328 619 539 508 472 619 b 49 288 150 619 49 469 b 333 -17 49 103 147 -17 b 476 18 396 -17 451 3 b 510 82 497 32 508 56 z m 313 568 b 467 399 414 568 469 494 b 429 369 467 381 451 371 b 131 369 410 369 268 367 b 311 568 147 496 226 568 z "},"f":{"ha":342,"x_min":0,"x_max":0,"o":"m 340 953 b 207 901 293 953 251 940 b 108 603 149 850 108 764 b 39 565 71 592 49 578 b 108 547 39 553 51 547 b 108 15 108 329 113 163 b 125 -8 108 -4 113 -8 b 182 3 144 -8 174 -4 b 179 547 182 82 178 383 b 353 563 275 547 333 547 b 383 606 368 575 381 589 b 179 603 350 599 204 603 b 328 896 176 836 256 896 b 382 886 346 896 367 892 b 421 924 404 878 422 906 b 342 953 413 938 376 953 z "},"g":{"ha":606,"x_min":0,"x_max":0,"o":"m 286 619 b 65 396 158 619 65 521 b 171 214 65 324 96 253 b 96 150 153 194 121 167 b 86 136 88 146 86 143 b 172 38 89 103 113 60 b 33 -124 97 -4 33 -67 b 283 -306 33 -212 110 -306 b 583 -69 440 -306 583 -210 b 439 85 583 11 536 72 b 261 94 392 90 333 90 b 165 143 189 97 165 117 b 217 197 165 149 192 176 b 285 189 246 188 247 189 b 499 408 393 189 499 261 b 465 529 499 450 488 490 b 514 531 475 529 503 529 b 586 582 557 533 586 549 b 583 597 586 586 585 592 b 497 588 564 592 529 588 b 385 607 463 588 426 596 b 288 619 354 615 319 619 z m 285 569 b 425 404 382 569 425 492 b 283 239 425 322 385 239 b 139 397 197 239 139 307 b 283 569 139 511 208 569 z m 107 -112 b 207 13 107 -61 158 -12 b 271 25 219 19 244 25 b 408 19 310 26 358 25 b 517 -87 494 8 517 -37 b 304 -246 517 -178 433 -246 b 107 -114 213 -246 107 -201 z "},"h":{"ha":696,"x_min":0,"x_max":0,"o":"m 174 854 b 158 944 174 938 168 944 b 97 931 143 944 139 942 b 103 772 100 903 103 854 l 103 251 b 99 -8 103 100 101 19 b 151 -6 110 -8 133 -8 b 174 26 167 -3 174 3 l 174 457 b 367 556 199 489 274 556 b 522 347 447 556 522 514 b 521 10 522 226 521 26 b 532 -8 521 -3 524 -8 b 596 3 551 -8 571 -6 b 593 163 593 21 593 61 l 593 356 b 392 619 593 471 568 619 b 174 515 306 619 229 567 z "},"i":{"ha":275,"x_min":0,"x_max":0,"o":"m 138 894 b 90 844 115 894 90 876 b 138 796 90 819 104 796 b 183 846 167 796 183 822 b 139 894 183 872 165 894 z m 174 526 b 158 611 174 604 168 611 b 97 599 146 611 115 607 b 103 442 100 568 103 526 l 103 208 b 99 -8 103 128 100 47 b 156 -1 125 -7 143 -4 b 174 33 168 1 174 8 z "},"j":{"ha":275,"x_min":0,"x_max":0,"o":"m 138 893 b 90 840 115 893 90 874 b 138 792 90 815 107 792 b 183 843 167 792 183 818 b 139 893 183 869 165 893 z m -25 -279 b 15 -306 -15 -294 -1 -306 b 129 -193 33 -306 93 -264 b 174 74 168 -115 174 -18 l 174 526 b 158 611 174 604 168 611 b 97 599 146 611 115 607 b 103 442 100 568 103 526 l 103 69 b -24 -274 103 -147 57 -231 z "},"k":{"ha":601,"x_min":0,"x_max":0,"o":"m 174 854 b 158 944 174 938 168 944 b 97 926 149 944 113 936 b 103 772 100 896 103 854 l 103 244 b 99 -8 103 129 101 47 b 147 -4 114 -8 129 -7 b 174 33 167 -1 174 6 l 174 314 b 468 18 229 250 410 67 b 533 -11 488 1 510 -11 b 588 0 558 -11 578 -6 l 589 4 b 260 325 526 44 326 247 b 515 557 349 406 460 504 b 544 613 561 601 561 606 b 496 619 524 619 510 619 b 174 322 433 560 281 411 z "},"l":{"ha":275,"x_min":0,"x_max":0,"o":"m 103 10 b 121 -8 103 -4 110 -8 b 178 3 133 -8 157 -4 b 174 183 176 40 174 115 l 174 854 b 160 944 174 938 169 944 b 97 931 147 944 126 942 b 103 772 100 903 103 854 z "},"m":{"ha":1074,"x_min":0,"x_max":0,"o":"m 178 447 b 363 554 215 492 285 554 b 504 363 454 554 504 496 l 504 251 b 500 -8 504 100 503 19 b 551 -6 510 -8 528 -8 b 575 32 572 -1 575 3 l 574 456 b 756 554 613 497 669 554 b 901 361 846 554 901 500 l 901 10 b 913 -8 901 -3 906 -8 b 978 3 929 -8 951 -3 b 972 154 975 25 972 68 l 972 374 b 779 619 972 528 911 619 b 558 504 692 619 615 565 b 389 619 529 579 476 619 b 175 506 307 619 231 564 b 138 618 174 553 168 618 b 86 592 126 618 94 600 l 86 589 b 107 492 99 581 107 549 l 107 251 b 103 -8 107 100 106 19 b 154 -6 114 -8 136 -8 b 178 22 168 -4 178 0 z "},"n":{"ha":694,"x_min":0,"x_max":0,"o":"m 519 7 b 533 -8 519 -3 522 -8 b 597 3 550 -8 569 -3 b 592 156 594 25 592 68 l 592 369 b 393 619 592 524 536 619 b 175 506 311 619 228 565 b 136 618 175 542 169 618 b 86 592 125 618 94 600 l 86 588 b 107 492 99 576 107 550 l 107 251 b 103 -8 107 100 106 19 b 151 -6 117 -7 136 -8 b 178 29 171 -4 178 0 l 178 443 b 371 556 211 492 283 556 b 521 364 465 556 522 496 z "},"o":{"ha":688,"x_min":0,"x_max":0,"o":"m 350 619 b 49 294 168 619 49 472 b 344 -17 49 161 119 -17 b 639 306 528 -17 639 129 b 351 619 639 485 540 619 z m 342 567 b 560 301 492 567 560 438 b 353 36 560 92 433 36 b 128 307 231 36 128 129 b 340 567 128 486 240 567 z "},"p":{"ha":699,"x_min":0,"x_max":0,"o":"m 178 28 b 328 -17 211 4 272 -17 b 650 325 508 -17 650 128 b 406 619 650 546 510 619 b 175 517 340 619 264 590 b 139 618 175 588 154 618 b 86 593 124 618 97 601 l 86 589 b 107 503 96 579 107 556 l 107 -37 b 103 -297 107 -190 106 -271 b 154 -294 119 -297 136 -296 b 178 -262 174 -286 178 -283 z m 178 460 b 378 551 207 492 293 551 b 571 319 485 551 571 464 b 329 40 571 92 411 40 b 178 83 269 40 214 60 z "},"q":{"ha":686,"x_min":0,"x_max":0,"o":"m 542 593 b 392 619 519 601 464 619 b 49 285 199 619 49 485 b 324 -17 49 88 181 -17 b 511 50 381 -17 460 13 l 511 -61 b 507 -308 511 -176 510 -261 b 563 -304 519 -308 546 -307 b 582 -271 576 -301 582 -294 l 582 271 b 588 600 582 465 588 557 l 581 600 z m 511 96 b 358 50 472 69 403 50 b 128 297 211 50 128 157 b 376 565 128 482 265 565 b 511 542 443 565 486 554 z "},"r":{"ha":415,"x_min":0,"x_max":0,"o":"m 75 582 b 107 479 101 565 107 532 l 107 251 b 103 -8 107 100 107 19 b 158 -4 114 -8 138 -7 b 178 26 172 -3 178 7 b 178 356 178 54 178 269 b 196 438 178 386 185 411 b 319 551 231 515 282 551 b 364 542 332 551 350 549 b 394 569 376 543 390 556 b 397 597 399 576 399 588 b 336 619 389 607 365 619 b 172 485 282 619 218 574 b 125 619 172 576 149 619 b 75 586 113 619 83 596 z "},"s":{"ha":450,"x_min":0,"x_max":0,"o":"m 253 619 b 60 450 151 619 60 551 b 158 301 60 379 100 333 b 263 250 190 285 224 271 b 343 147 318 222 343 190 b 214 42 343 88 300 42 b 72 88 165 42 113 58 b 49 68 58 89 53 79 b 50 36 44 60 44 46 b 208 -17 74 10 129 -17 b 415 164 306 -17 415 36 b 332 294 415 214 388 261 b 197 364 283 322 243 339 b 131 463 163 382 131 413 b 246 563 131 524 182 563 b 353 532 279 563 322 550 b 385 572 372 533 386 558 b 254 619 361 603 303 619 z "},"t":{"ha":450,"x_min":0,"x_max":0,"o":"m 406 79 b 296 46 376 57 335 46 b 188 158 249 46 194 63 b 189 547 183 219 182 381 b 360 550 328 547 299 546 b 422 603 382 551 411 557 b 189 603 403 603 246 603 b 192 689 189 624 190 643 b 150 661 178 683 163 675 b 63 567 135 644 69 586 b 118 546 63 553 76 546 b 118 163 118 347 118 222 b 276 -17 118 50 169 -17 b 388 15 314 -17 363 -3 b 408 76 413 35 415 54 z "},"u":{"ha":690,"x_min":0,"x_max":0,"o":"m 103 207 b 300 -17 103 71 168 -17 b 390 1 332 -17 361 -11 b 514 90 419 14 471 39 b 590 -17 515 24 547 -17 b 636 26 615 -17 635 14 l 636 32 b 579 131 594 38 579 53 l 579 364 b 583 611 579 483 583 581 b 525 603 568 611 542 607 b 508 563 513 599 508 592 l 508 147 b 331 50 485 108 414 50 b 174 250 260 50 174 68 b 172 526 174 335 174 435 b 158 611 172 604 167 611 b 97 599 144 611 115 607 b 103 442 100 568 103 526 z "},"v":{"ha":581,"x_min":0,"x_max":0,"o":"m 83 619 b 25 592 69 619 39 603 b 118 371 39 565 58 525 b 267 -17 221 101 253 25 b 308 -3 283 -14 296 -10 b 340 47 321 3 328 19 b 538 529 456 324 485 400 b 549 604 563 588 563 597 b 503 619 532 615 515 619 b 297 94 456 489 338 197 b 108 593 239 258 132 538 b 85 619 100 613 92 619 z "},"w":{"ha":911,"x_min":0,"x_max":0,"o":"m 89 619 b 31 590 78 619 47 607 b 119 360 43 564 71 493 b 249 -17 172 214 226 42 b 286 -3 264 -14 274 -8 b 311 29 297 1 304 13 b 468 471 328 72 443 396 b 625 -17 529 286 558 204 b 657 -6 636 -14 647 -10 b 690 39 672 1 681 13 b 872 519 768 242 807 349 b 883 601 892 572 894 590 b 838 619 869 611 853 619 b 654 106 825 586 793 503 b 513 538 579 333 542 443 b 479 603 499 585 492 603 b 431 583 463 603 442 592 b 440 554 433 576 438 564 b 279 99 379 376 336 258 b 110 600 221 279 163 450 b 90 619 106 613 99 619 z "},"x":{"ha":576,"x_min":0,"x_max":0,"o":"m 33 596 b 243 310 64 558 179 404 b 13 4 164 203 56 57 l 13 1 b 67 -8 29 -4 53 -8 b 93 7 78 -8 86 -6 b 279 263 193 147 233 197 b 463 7 351 161 435 46 b 492 -8 472 -6 482 -8 b 558 1 519 -8 543 -4 l 558 4 b 322 319 493 88 393 218 b 539 606 401 425 444 485 l 539 608 b 483 619 515 615 494 619 b 450 590 474 619 464 610 b 288 368 404 526 364 469 b 142 572 233 439 178 522 b 97 619 126 594 110 619 b 33 599 82 619 44 604 z "},"y":{"ha":564,"x_min":0,"x_max":0,"o":"m 63 -285 b 117 -304 74 -296 99 -304 b 378 133 138 -304 285 -79 b 536 567 454 308 504 468 b 532 610 544 592 542 601 b 482 619 524 617 499 621 b 297 104 450 492 357 228 b 108 606 258 199 143 528 b 88 619 104 615 99 619 b 31 593 74 619 44 604 b 228 93 101 442 213 136 b 258 29 239 67 251 38 b 63 -282 192 -104 113 -217 z "},"z":{"ha":510,"x_min":0,"x_max":0,"o":"m 43 7 b 297 -4 78 -1 172 -4 b 475 11 396 -4 454 -3 b 503 58 490 24 500 42 b 131 57 471 51 247 47 b 442 526 258 244 413 471 b 464 603 456 553 461 576 l 201 603 b 75 613 111 603 92 604 b 42 564 67 606 42 579 b 125 547 42 553 72 547 b 378 547 193 547 325 547 b 26 28 292 396 78 94 z "},"{":{"ha":422,"x_min":0,"x_max":0,"o":"m 360 -214 b 340 -199 360 -208 356 -203 b 235 -50 258 -172 235 -121 b 264 213 235 28 264 111 b 181 383 264 288 263 347 b 264 536 232 408 264 450 b 239 769 264 619 239 704 b 342 925 239 846 264 894 b 358 942 353 931 358 933 b 350 972 358 950 356 967 b 249 933 329 971 282 957 b 174 774 189 892 174 832 b 199 526 174 713 199 603 b 68 394 199 465 179 413 b 85 357 64 378 74 358 b 199 229 174 353 199 311 b 169 -51 199 142 169 32 b 349 -246 169 -181 251 -243 b 360 -215 353 -242 360 -224 z "},"|":{"ha":361,"x_min":0,"x_max":0,"o":"m 215 1042 l 146 1042 l 146 -347 l 215 -347 z "},"}":{"ha":422,"x_min":0,"x_max":0,"o":"m 63 940 b 82 925 63 935 67 929 b 186 783 164 899 186 853 b 157 539 186 699 157 617 b 240 369 157 465 165 404 b 157 206 196 344 157 303 b 182 -42 157 121 182 24 b 78 -200 182 -118 157 -168 b 63 -214 68 -204 63 -207 b 72 -246 63 -229 65 -239 b 172 -206 93 -244 138 -231 b 247 -47 232 -164 247 -104 b 222 226 247 28 222 151 b 353 358 222 289 240 340 b 336 394 356 375 347 393 b 222 524 247 400 222 442 b 251 778 222 586 251 694 b 74 972 251 907 171 969 b 63 942 69 968 63 950 z "},"~":{"ha":779,"x_min":0,"x_max":0,"o":"m 251 490 b 83 254 206 490 99 469 b 114 250 97 250 89 250 b 147 278 128 250 144 256 b 251 431 163 383 196 431 b 365 360 283 431 317 411 b 543 247 429 292 479 247 b 694 465 619 247 689 296 b 656 485 686 476 667 485 b 640 464 649 485 643 481 b 544 310 628 343 600 310 b 404 410 490 310 449 363 b 253 490 360 456 318 490 z "},"¡":{"ha":210,"x_min":0,"x_max":0,"o":"m 101 507 b 160 563 140 507 160 533 b 107 619 160 594 136 619 b 51 561 75 619 51 594 b 100 507 51 535 72 507 z m 75 -239 b 142 -206 94 -239 138 -221 b 125 349 139 -82 128 282 b 90 333 121 349 104 342 b 76 297 83 328 76 322 b 56 -208 76 267 56 -153 b 74 -239 56 -232 61 -239 z "},"¢":{"ha":613,"x_min":0,"x_max":0,"o":"m 396 800 l 382 800 b 329 767 343 797 332 788 l 322 699 b 85 415 243 682 85 621 b 281 157 85 224 222 171 l 264 25 l 306 29 b 333 63 324 31 331 39 l 344 150 b 463 171 407 150 443 161 b 500 236 483 182 494 208 b 364 210 453 217 410 210 b 163 431 267 210 163 269 b 365 646 163 503 208 646 b 474 619 406 646 444 635 b 513 656 492 615 513 631 b 385 701 492 678 447 697 z "},"£":{"ha":613,"x_min":0,"x_max":0,"o":"m 39 17 b 392 -57 140 -24 274 -57 b 538 -31 467 -57 510 -49 b 571 24 553 -18 563 -1 l 567 28 b 390 4 519 8 444 4 b 121 56 321 4 176 28 b 222 394 190 135 221 235 b 435 397 363 394 417 393 b 492 453 461 400 483 417 b 225 450 464 447 282 450 b 390 797 228 643 251 797 b 481 775 425 797 460 785 b 517 811 501 769 518 790 b 401 853 499 828 456 853 b 153 449 244 853 161 753 b 75 411 107 438 89 425 b 150 394 81 401 97 394 b 39 29 151 281 131 121 z "},"⁄":{"ha":96,"x_min":0,"x_max":0,"o":"m 303 796 b 282 835 300 814 292 824 b 258 833 274 846 265 846 b -243 -33 107 565 -111 194 b -226 -71 -239 -46 -236 -57 b -197 -64 -217 -85 -210 -86 b 303 796 11 296 188 603 z "},"¥":{"ha":613,"x_min":0,"x_max":0,"o":"m 346 447 b 574 797 438 588 539 746 b 567 818 581 808 579 814 b 522 825 549 824 538 825 b 304 475 488 774 390 615 b 106 813 226 607 128 776 b 83 826 101 819 92 826 b 21 815 72 826 44 822 l 21 810 b 249 447 54 763 189 547 l 79 447 b 63 397 71 442 63 410 l 261 397 l 261 276 l 82 276 b 68 226 76 271 68 242 l 261 226 l 261 15 b 283 -8 261 -7 271 -8 b 332 0 296 -8 317 -6 l 332 226 l 467 226 b 514 276 497 226 514 251 l 332 276 l 332 397 l 488 397 b 533 447 507 397 532 425 z "},"ƒ":{"ha":613,"x_min":0,"x_max":0,"o":"m 488 865 b 361 815 444 865 399 849 b 249 482 314 771 268 683 b 150 447 211 479 167 467 b 151 433 143 442 143 439 b 243 425 163 428 197 425 b 51 -114 211 149 214 -114 b -29 -92 22 -114 -7 -104 b -47 -122 -39 -97 -47 -111 b -25 -150 -47 -132 -40 -142 b 56 -169 -8 -161 24 -169 b 272 74 136 -169 236 -125 b 315 425 290 169 297 251 b 456 429 367 425 424 425 b 524 485 482 432 507 438 b 324 482 456 482 397 482 b 486 810 339 697 385 810 b 546 797 504 810 531 804 b 574 836 565 800 575 811 b 489 865 554 856 518 865 z "},"§":{"ha":592,"x_min":0,"x_max":0,"o":"m 53 538 b 200 242 53 421 124 331 b 361 -4 256 178 361 76 b 233 -114 361 -71 317 -114 b 114 -86 192 -114 135 -99 b 133 -142 108 -111 125 -137 b 229 -167 146 -156 189 -167 b 410 -65 301 -167 378 -136 b 536 214 476 4 535 90 b 379 517 538 349 463 424 b 235 729 332 569 235 660 b 353 838 235 801 274 838 b 440 815 382 838 415 831 b 451 860 451 825 464 844 b 360 889 431 881 383 889 b 188 797 283 889 229 853 b 53 539 107 735 53 646 z m 478 186 b 421 14 478 131 457 67 b 249 292 419 115 326 207 b 114 560 182 365 111 457 b 178 735 115 625 133 685 b 344 451 172 625 271 535 b 478 188 414 376 478 293 z "},"¤":{"ha":613,"x_min":0,"x_max":0,"o":"m 303 656 b 160 614 240 656 190 635 b 88 696 133 642 101 681 b 54 668 79 704 67 697 b 61 629 49 656 51 644 b 110 571 81 604 90 594 b 44 407 75 531 44 476 b 111 233 44 346 61 282 b 39 140 88 199 57 161 b 69 106 43 126 54 111 b 110 129 81 101 93 106 b 163 196 126 150 154 185 b 278 168 203 176 240 168 b 418 210 324 168 372 175 b 517 108 486 135 508 108 b 554 153 529 108 549 129 b 469 251 544 172 514 201 b 529 421 507 290 529 357 b 483 564 529 468 514 524 b 546 653 514 600 546 632 b 519 700 546 661 533 682 b 443 611 496 671 472 643 b 304 656 404 643 353 656 z m 286 601 b 458 417 393 601 458 522 b 290 222 458 308 399 222 b 115 414 172 222 115 306 b 285 601 115 507 172 601 z "},"'":{"ha":181,"x_min":0,"x_max":0,"o":"m 106 928 b 49 899 89 928 64 911 b 56 618 61 826 60 697 b 106 647 76 619 100 633 b 132 857 118 689 132 793 b 107 928 132 883 128 928 z "},"“":{"ha":408,"x_min":0,"x_max":0,"o":"m 49 701 b 82 640 49 669 53 640 b 132 668 97 640 121 654 b 129 718 128 686 129 703 b 186 935 129 797 164 888 b 121 910 147 936 133 924 b 49 703 93 876 49 776 z m 233 701 b 265 640 233 669 238 640 b 317 668 282 640 306 654 b 314 718 314 686 314 703 b 371 935 314 797 349 888 b 306 910 332 936 318 924 b 233 703 278 876 233 776 z "},"«":{"ha":736,"x_min":0,"x_max":0,"o":"m 519 74 b 376 308 519 104 399 279 b 525 536 397 339 525 500 b 501 594 525 561 511 582 b 297 321 442 494 360 397 b 308 286 297 310 301 296 b 489 22 374 211 438 117 b 519 72 507 32 519 51 z m 286 524 b 261 574 286 543 272 567 b 69 321 208 485 138 392 b 76 288 69 311 72 297 b 251 40 139 217 199 125 b 279 86 267 43 279 63 b 149 308 279 125 171 272 b 286 522 171 344 286 490 z "},"‹":{"ha":528,"x_min":0,"x_max":0,"o":"m 313 75 b 149 308 313 106 171 281 b 318 536 169 339 318 501 b 294 594 318 561 304 582 b 69 321 228 496 140 397 b 81 286 69 310 74 297 b 282 24 146 213 217 117 b 313 74 300 32 313 53 z "},"›":{"ha":528,"x_min":0,"x_max":0,"o":"m 215 543 b 379 308 215 513 357 338 b 210 82 360 279 210 117 b 235 24 210 57 224 36 b 458 297 306 122 396 221 b 447 332 458 308 454 321 b 246 594 382 406 311 501 b 215 544 228 586 215 565 z "},"ﬁ":{"ha":651,"x_min":0,"x_max":0,"o":"m 550 526 b 535 617 550 596 544 617 b 461 607 526 617 493 608 b 179 603 338 599 203 603 b 356 896 176 822 264 896 b 442 875 394 896 418 888 b 469 882 450 871 461 874 b 481 917 475 889 482 901 b 372 953 461 936 417 953 b 217 900 324 953 265 939 b 108 603 165 857 108 778 b 39 564 71 590 51 576 b 108 546 39 553 51 546 b 107 15 108 328 111 163 b 125 -8 107 -4 111 -8 b 181 3 143 -8 172 -4 b 179 546 181 82 178 382 b 479 554 363 549 426 547 l 479 208 b 475 -8 479 128 476 47 b 532 -3 514 -7 494 -10 b 550 33 544 0 550 6 z "},"ﬂ":{"ha":651,"x_min":0,"x_max":0,"o":"m 479 7 b 496 -11 479 -7 485 -11 b 554 0 510 -11 539 -7 b 550 183 553 40 550 115 l 550 890 b 536 953 550 946 546 953 b 483 924 525 953 496 932 b 375 953 463 936 425 953 b 208 889 318 953 257 935 b 108 603 158 839 114 761 b 39 563 71 590 51 575 b 108 546 39 553 53 546 b 108 15 108 328 110 143 b 126 -8 108 -4 113 -8 b 181 3 146 -8 172 -4 b 179 546 181 81 178 382 b 479 554 360 543 449 551 z m 479 604 b 179 603 446 599 206 603 b 360 901 182 825 272 901 b 469 864 399 901 442 893 b 479 833 478 856 479 849 z "},"–":{"ha":757,"x_min":0,"x_max":0,"o":"m 111 369 b 69 325 93 369 75 357 l 67 306 l 656 306 b 688 347 669 306 681 314 l 692 369 z "},"†":{"ha":611,"x_min":0,"x_max":0,"o":"m 79 553 b 46 501 58 542 47 519 l 253 501 b 256 -28 250 440 251 142 b 282 -156 257 -92 267 -156 b 314 -22 294 -156 313 -87 b 318 500 318 143 318 396 b 507 504 357 500 489 500 b 554 553 521 507 540 517 l 319 553 l 325 815 b 315 836 325 832 324 836 b 253 810 301 836 263 819 l 253 553 z "},"‡":{"ha":607,"x_min":0,"x_max":0,"o":"m 78 579 b 46 529 60 568 46 536 l 251 529 l 251 326 l 78 326 b 46 276 60 314 46 282 l 250 276 b 251 -28 250 199 250 72 b 282 -154 253 -104 268 -154 b 311 -22 296 -154 310 -101 b 317 276 314 78 315 194 b 500 281 389 276 481 278 b 551 326 514 283 539 290 l 317 326 l 317 528 b 504 533 389 528 485 528 b 551 579 517 536 542 547 l 317 579 l 322 810 b 307 836 322 829 315 836 b 251 811 296 836 264 821 l 251 579 z "},"·":{"ha":199,"x_min":0,"x_max":0,"o":"m 101 393 b 43 329 64 393 43 364 b 100 271 43 289 74 271 b 157 335 135 271 157 297 b 103 393 157 364 136 393 z "},"¶":{"ha":667,"x_min":0,"x_max":0,"o":"m 428 331 l 428 269 b 257 -50 428 50 390 -50 b 118 7 214 -50 164 -37 b 100 -33 114 1 100 -18 b 250 -106 100 -58 161 -106 b 414 -42 317 -106 372 -82 b 494 335 472 18 494 99 l 494 771 b 578 778 517 772 558 774 b 617 822 593 789 607 806 l 615 828 b 490 828 581 828 542 828 b 356 828 433 828 399 828 b 68 550 193 828 68 721 b 293 297 68 407 165 297 b 340 304 307 297 322 299 z "},"•":{"ha":385,"x_min":0,"x_max":0,"o":"m 193 457 b 71 331 115 457 71 394 b 189 201 71 256 128 201 b 314 331 264 201 314 251 b 194 457 314 401 267 457 z "},"‚":{"ha":211,"x_min":0,"x_max":0,"o":"m 125 146 b 74 118 110 146 85 129 b 81 58 78 103 81 86 b 10 -154 81 -10 47 -97 b 61 -144 36 -156 51 -153 b 163 74 103 -114 163 -6 b 126 146 163 99 156 146 z "},"„":{"ha":385,"x_min":0,"x_max":0,"o":"m 163 74 b 125 146 163 97 157 146 b 74 118 110 146 85 129 b 81 58 78 103 81 86 b 10 -154 81 -10 47 -97 b 61 -144 35 -156 51 -153 b 163 72 103 -114 163 -6 z m 336 74 b 300 146 336 94 329 146 b 247 118 283 146 261 129 b 254 58 251 103 254 86 b 182 -154 254 -10 221 -97 b 235 -144 210 -156 225 -153 b 336 72 276 -114 336 -6 z "},"”":{"ha":408,"x_min":0,"x_max":0,"o":"m 178 865 b 146 928 178 897 174 928 b 94 900 129 928 104 914 b 97 850 97 882 97 864 b 40 633 97 771 63 681 b 104 658 78 632 93 643 b 178 864 131 690 178 792 z m 363 865 b 331 928 363 897 358 928 b 279 900 314 928 289 914 b 282 850 285 882 282 864 b 225 633 282 771 247 681 b 290 658 263 632 278 643 b 363 864 317 690 363 792 z "},"»":{"ha":736,"x_min":0,"x_max":0,"o":"m 217 543 b 360 308 217 513 338 338 b 211 82 339 279 211 117 b 236 24 211 57 225 36 b 439 297 294 122 376 221 b 428 332 439 308 435 321 b 247 594 363 406 299 501 b 217 544 229 586 217 565 z m 450 93 b 475 44 450 75 464 51 b 667 297 529 133 599 225 b 660 331 667 307 664 319 b 485 576 597 400 538 490 b 457 531 469 574 457 556 b 588 308 457 492 565 344 b 450 94 565 274 450 128 z "},"…":{"ha":1085,"x_min":0,"x_max":0,"o":"m 171 103 b 108 43 132 103 108 75 b 164 -15 108 4 139 -15 b 222 46 199 -15 222 11 b 172 103 222 74 201 103 z m 532 103 b 469 43 493 103 469 75 b 525 -15 469 4 500 -15 b 583 46 560 -15 583 11 b 533 103 583 74 563 103 z m 893 103 b 831 43 854 103 831 75 b 886 -15 831 4 861 -15 b 944 46 921 -15 944 11 b 894 103 944 74 924 103 z "},"‰":{"ha":1311,"x_min":0,"x_max":0,"o":"m 226 836 b 46 601 104 836 46 714 b 222 376 46 450 128 376 b 403 607 346 376 403 492 b 228 836 403 722 358 836 z m 225 789 b 336 614 310 789 336 678 b 221 424 336 499 297 424 b 113 603 144 424 113 519 b 224 789 113 697 149 789 z m 747 831 b 733 858 744 843 739 851 b 703 863 719 874 711 875 b 168 -10 544 600 310 221 b 183 -44 168 -21 174 -36 b 210 -39 193 -54 200 -56 b 747 831 435 317 621 632 z m 700 443 b 513 203 575 443 513 328 b 693 -17 513 36 610 -17 b 868 208 810 -17 868 92 b 701 443 868 317 829 443 z m 693 396 b 801 214 785 396 801 283 b 692 31 801 99 761 31 b 579 204 608 31 579 125 b 692 396 579 297 613 396 z m 1097 443 b 911 203 975 443 911 328 b 1092 -17 911 36 1010 -17 b 1267 208 1208 -17 1267 92 b 1099 443 1267 317 1228 443 z m 1092 396 b 1200 214 1183 396 1200 282 b 1092 31 1200 99 1164 31 b 978 204 1013 31 978 125 b 1090 396 978 297 1013 396 z "},"¿":{"ha":414,"x_min":0,"x_max":0,"o":"m 217 507 b 276 564 251 507 276 531 b 224 619 276 600 246 619 b 167 561 190 619 167 594 b 215 507 167 536 186 507 z m 214 -239 b 375 -169 275 -239 331 -211 b 354 -128 376 -150 369 -133 l 350 -128 b 228 -174 324 -150 276 -174 b 125 -68 160 -174 125 -128 b 208 103 125 -6 178 60 b 278 274 256 169 278 219 b 233 354 278 335 243 354 b 197 339 224 354 207 350 b 211 274 207 321 211 297 b 143 122 211 244 194 189 b 50 -74 94 61 50 0 b 213 -239 50 -162 110 -239 z "},"`":{"ha":556,"x_min":0,"x_max":0,"o":"m 199 944 b 154 918 185 944 171 935 b 150 890 142 907 142 897 b 290 701 201 832 256 754 b 314 721 293 703 303 711 b 317 753 321 728 322 738 b 200 944 292 811 217 943 z "},"´":{"ha":556,"x_min":0,"x_max":0,"o":"m 357 942 b 247 757 343 942 272 813 b 240 721 236 735 236 726 b 267 697 249 711 258 701 b 407 889 306 757 354 828 b 411 915 418 901 419 908 b 358 942 400 929 372 942 z "},"ˆ":{"ha":556,"x_min":0,"x_max":0,"o":"m 183 699 b 196 703 192 699 193 701 b 279 856 229 765 253 807 b 353 713 313 790 336 751 b 371 699 360 701 364 699 b 415 721 393 699 408 713 b 300 939 376 792 336 865 b 268 933 290 939 278 936 b 244 910 256 931 253 926 b 140 718 211 843 175 788 b 182 699 144 708 167 699 z "},"˜":{"ha":556,"x_min":0,"x_max":0,"o":"m 224 876 b 122 744 154 876 131 796 b 165 732 133 740 149 732 b 176 747 172 732 175 738 b 221 814 186 781 201 814 b 263 783 235 814 244 804 b 340 726 289 751 308 726 b 433 857 394 726 424 779 b 397 878 419 868 408 878 b 382 863 388 878 385 874 b 344 792 372 808 358 792 b 303 829 335 792 319 808 b 225 876 283 854 258 876 z "},"¯":{"ha":556,"x_min":0,"x_max":0,"o":"m 394 757 b 418 810 404 768 418 800 b 403 819 418 817 413 819 l 158 819 b 139 772 153 815 139 790 b 156 757 139 763 142 757 z "},"˘":{"ha":556,"x_min":0,"x_max":0,"o":"m 190 904 b 144 871 168 904 144 896 b 268 718 144 776 194 718 b 410 878 346 718 399 768 b 372 904 411 894 389 904 b 358 893 363 904 360 899 b 272 781 347 817 322 781 b 201 892 228 781 208 831 b 192 904 201 899 197 904 z "},"˙":{"ha":556,"x_min":0,"x_max":0,"o":"m 282 850 b 229 794 249 850 229 825 b 279 743 229 758 253 743 b 331 799 308 743 331 763 b 283 850 331 826 311 850 z "},"¨":{"ha":556,"x_min":0,"x_max":0,"o":"m 174 850 b 121 794 140 850 121 825 b 171 743 121 758 144 743 b 222 799 200 743 222 763 b 175 850 222 826 201 850 z m 386 850 b 333 794 353 850 333 826 b 382 743 333 758 358 743 b 435 799 413 743 435 763 b 388 850 435 825 415 850 z "},"˚":{"ha":556,"x_min":0,"x_max":0,"o":"m 279 917 b 165 800 210 917 165 865 b 275 689 165 732 217 689 b 392 804 346 689 392 733 b 281 917 392 868 344 917 z m 276 868 b 333 801 318 868 333 835 b 279 739 333 771 317 739 b 224 804 247 739 224 769 b 275 868 224 833 242 868 z "},"¸":{"ha":557,"x_min":0,"x_max":0,"o":"m 288 6 l 204 -118 l 204 -122 b 317 -178 256 -122 317 -136 b 211 -257 317 -199 297 -233 b 199 -268 200 -260 199 -264 b 224 -300 199 -279 210 -297 b 382 -171 292 -287 382 -243 b 296 -75 382 -126 354 -89 l 350 6 z "},"˝":{"ha":556,"x_min":0,"x_max":0,"o":"m 236 947 b 143 753 221 947 171 832 b 142 719 139 738 139 726 b 174 699 147 714 163 699 b 282 890 201 754 244 836 b 282 918 290 901 289 908 b 238 947 272 931 254 947 z m 418 947 b 325 747 399 947 356 832 b 328 715 322 733 324 724 b 356 699 333 710 346 703 b 465 893 382 754 429 836 b 464 918 474 904 471 908 b 419 947 456 931 436 947 z "},"˛":{"ha":557,"x_min":0,"x_max":0,"o":"m 283 3 b 140 -212 197 -54 140 -129 b 256 -329 140 -287 193 -329 b 363 -294 300 -329 342 -314 b 378 -244 371 -283 378 -257 l 374 -240 b 290 -260 351 -250 321 -260 b 219 -192 242 -260 219 -228 b 350 3 219 -149 239 -78 z "},"ˇ":{"ha":556,"x_min":0,"x_max":0,"o":"m 374 939 b 360 932 365 939 364 935 b 279 779 342 896 304 829 b 203 925 244 844 221 888 b 185 939 197 936 192 939 b 140 918 163 939 147 925 b 256 699 179 844 219 772 b 288 704 265 699 278 701 b 311 726 299 707 301 711 b 415 919 343 794 381 850 b 375 939 411 931 388 939 z "},"—":{"ha":1286,"x_min":0,"x_max":0,"o":"m 111 369 b 69 325 93 369 75 357 l 67 306 l 1185 306 b 1214 332 1200 306 1210 311 l 1221 369 z "},"Æ":{"ha":1085,"x_min":0,"x_max":0,"o":"m 576 365 l 588 33 l 610 6 b 864 -8 644 -1 718 -8 b 1017 -3 954 -8 1000 -6 b 1069 53 1050 4 1065 28 l 1068 56 b 865 49 1026 50 940 49 b 665 60 794 49 707 51 l 649 363 l 942 363 b 996 419 979 363 992 388 l 647 419 l 629 810 l 946 810 b 994 825 972 810 988 815 b 1011 867 1004 838 1011 854 b 556 867 894 867 753 867 b 488 853 526 863 504 857 b 465 808 482 839 478 828 b 13 11 372 651 99 156 l 14 4 b 61 -17 29 -8 46 -17 b 85 6 69 -17 78 -6 b 285 365 108 43 157 132 z m 572 419 l 314 419 b 513 778 363 507 421 619 b 557 808 526 803 543 808 z "},"ª":{"ha":407,"x_min":0,"x_max":0,"o":"m 390 435 b 360 431 379 432 375 431 b 331 474 344 431 331 443 b 332 654 331 503 332 613 b 201 794 332 722 308 794 b 50 721 133 794 65 749 l 57 707 b 83 696 63 692 74 688 b 188 743 111 719 147 743 b 268 650 243 743 268 711 l 268 626 b 219 617 251 624 238 621 b 42 479 182 608 42 581 b 154 382 42 426 82 381 b 272 435 217 383 247 407 b 342 385 281 404 306 385 b 389 417 364 386 382 394 z m 110 490 b 268 583 110 560 222 576 l 268 522 b 263 488 268 507 265 497 b 175 432 251 456 213 432 b 110 489 140 432 110 454 z "},"Ł":{"ha":588,"x_min":0,"x_max":0,"o":"m 121 29 l 139 6 b 372 -8 176 -3 265 -8 b 519 -3 461 -8 503 -6 b 574 54 551 4 571 29 l 571 57 b 372 50 529 51 439 50 b 197 63 307 50 222 53 l 197 432 l 353 543 b 369 604 361 557 369 582 b 354 611 369 617 365 619 l 197 496 l 197 803 b 182 872 197 867 196 872 b 117 861 164 872 136 865 b 121 685 119 835 121 778 l 121 447 l 35 383 b 21 326 24 375 21 340 b 39 325 22 318 29 318 l 121 385 z "},"Ø":{"ha":989,"x_min":0,"x_max":0,"o":"m 861 879 b 843 917 861 889 856 906 b 810 906 832 926 825 925 l 742 817 b 494 889 668 867 585 889 b 56 419 225 889 56 683 b 188 103 56 324 92 194 l 97 -14 b 122 -49 101 -25 114 -39 b 149 -46 131 -58 138 -60 l 231 64 b 496 -21 296 13 383 -21 b 932 442 800 -21 932 213 b 786 782 932 567 885 696 z m 232 160 b 140 428 176 225 140 317 b 489 835 140 672 288 835 b 701 765 565 835 642 811 z m 746 726 b 847 443 807 664 847 569 b 497 33 847 160 693 33 b 274 118 418 33 336 63 z "},"Œ":{"ha":1289,"x_min":0,"x_max":0,"o":"m 889 475 l 889 810 l 1114 810 b 1208 822 1176 810 1196 811 b 1233 867 1225 838 1229 854 b 874 867 1129 867 985 867 b 814 850 853 863 831 857 l 814 719 b 489 889 753 832 632 889 b 57 419 229 889 57 672 b 476 -21 57 222 168 -21 b 814 164 618 -21 743 40 l 814 29 l 832 7 b 1067 -8 865 -1 953 -8 b 1215 -3 1156 -8 1199 -6 b 1269 53 1249 4 1264 28 l 1268 56 b 1067 49 1225 50 1135 49 b 889 61 1001 49 915 51 l 889 418 l 1136 418 b 1218 475 1190 418 1207 422 z m 139 426 b 482 835 139 696 317 835 b 818 435 628 835 818 776 b 481 33 818 129 653 33 b 139 425 251 33 139 211 z "},"º":{"ha":475,"x_min":0,"x_max":0,"o":"m 238 794 b 35 582 122 794 35 706 b 239 382 35 500 86 382 b 440 592 360 382 440 471 b 239 794 440 713 365 794 z m 235 744 b 369 594 322 744 369 679 b 240 432 369 478 304 432 b 106 589 179 432 106 475 b 233 744 106 685 165 744 z "},"æ":{"ha":917,"x_min":0,"x_max":0,"o":"m 843 83 b 692 47 815 68 750 47 b 456 310 542 47 451 156 b 754 310 581 306 714 307 b 876 358 792 311 872 335 b 879 400 879 369 879 389 b 664 619 875 508 808 619 b 440 483 564 619 483 560 b 265 619 428 550 364 619 b 57 521 174 619 85 563 b 108 500 68 489 82 478 b 246 556 150 538 201 556 b 385 393 344 556 385 481 l 385 356 b 358 349 372 351 365 350 b 43 128 272 329 43 283 b 196 -17 43 57 92 -17 b 432 106 297 -17 393 57 b 667 -17 472 31 567 -17 b 800 11 725 -17 779 0 b 846 79 821 22 843 47 z m 649 568 b 801 399 750 568 804 494 b 764 364 801 378 788 365 b 460 364 746 363 603 361 b 647 568 476 472 549 568 z m 218 49 b 122 136 160 49 122 90 b 383 301 122 249 279 279 b 411 149 383 240 399 178 b 219 49 360 88 293 49 z "},"ı":{"ha":275,"x_min":0,"x_max":0,"o":"m 174 526 b 158 611 174 604 168 611 b 97 599 146 611 115 607 b 103 442 100 568 103 526 l 103 208 b 99 -8 103 128 100 47 b 156 -1 125 -7 143 -4 b 174 33 168 1 174 8 z "},"ł":{"ha":286,"x_min":0,"x_max":0,"o":"m 283 550 b 300 608 293 564 300 597 b 286 615 300 617 296 622 l 189 546 l 189 854 b 175 944 189 938 185 944 b 113 931 163 944 140 942 b 118 772 115 903 118 854 l 118 496 l 35 438 b 22 378 26 428 22 392 b 36 374 22 367 25 365 l 118 433 l 118 10 b 135 -8 118 -4 124 -8 b 194 3 149 -8 172 -4 b 189 183 192 40 189 115 l 189 481 z "},"ø":{"ha":708,"x_min":0,"x_max":0,"o":"m 601 593 b 583 629 599 607 590 621 b 554 619 576 638 569 639 b 521 575 543 606 532 590 b 357 619 468 607 425 619 b 49 297 175 619 49 475 b 143 61 49 219 76 125 b 97 1 129 42 114 22 b 117 -29 101 -10 111 -21 b 147 -22 128 -42 136 -39 b 186 28 161 -6 174 11 b 360 -17 231 -3 288 -17 b 658 303 539 -17 658 128 b 563 543 658 400 625 485 z m 185 117 b 125 301 147 161 125 222 b 350 568 125 486 244 568 b 482 525 401 568 443 556 z m 522 489 b 582 303 560 450 582 385 b 361 33 582 94 447 33 b 224 81 314 33 260 49 z "},"œ":{"ha":1090,"x_min":0,"x_max":0,"o":"m 1019 83 b 863 47 994 71 928 47 b 633 315 713 47 629 156 b 931 315 757 311 890 314 b 1051 358 968 317 1047 336 b 1054 400 1054 371 1054 390 b 838 619 1050 510 981 619 b 597 451 722 619 636 551 b 346 619 546 567 468 619 b 49 296 163 619 49 471 b 342 -17 49 158 118 -17 b 593 149 458 -17 544 39 b 846 -17 632 40 729 -17 b 975 10 899 -17 956 0 b 1022 81 997 22 1018 53 z m 822 569 b 979 399 922 569 982 494 b 942 369 979 381 964 371 b 639 369 924 369 776 367 b 821 569 658 479 725 569 z m 342 568 b 560 307 474 568 560 468 b 346 35 560 81 428 35 b 128 299 231 35 128 125 b 340 568 128 469 218 568 z "},"ß":{"ha":675,"x_min":0,"x_max":0,"o":"m 386 953 b 192 864 306 953 247 928 b 108 597 135 797 111 685 b 39 568 71 585 51 575 b 108 532 39 553 51 533 b 107 10 108 322 111 160 b 126 -8 107 -4 113 -8 b 182 3 144 -8 171 -4 b 179 567 181 128 178 338 b 372 901 181 801 257 901 b 513 739 458 901 513 843 b 507 706 513 729 510 714 b 333 493 390 640 333 563 b 419 347 333 429 372 382 b 494 293 443 331 472 310 b 556 179 546 251 556 226 b 390 43 556 101 492 43 b 292 64 349 43 321 53 b 260 58 279 71 269 69 b 249 22 253 49 249 36 b 383 -15 279 -1 336 -15 b 629 196 525 -15 629 71 b 549 342 629 253 600 304 b 456 411 513 367 493 381 b 404 500 426 435 404 468 b 575 688 404 574 478 642 b 582 749 579 700 582 731 b 388 953 582 869 508 953 z "},"¹":{"ha":386,"x_min":0,"x_max":0,"o":"m 257 1042 b 99 978 225 1025 154 992 l 82 942 l 85 938 b 201 961 107 939 178 953 b 197 588 201 808 200 607 l 232 590 b 263 614 254 592 263 597 b 267 1038 261 746 267 1006 z "},"¬":{"ha":779,"x_min":0,"x_max":0,"o":"m 631 118 b 694 158 657 118 694 118 l 694 485 l 685 496 l 128 496 b 83 440 96 496 85 482 l 631 440 z "},"µ":{"ha":689,"x_min":0,"x_max":0,"o":"m 158 60 b 306 -15 194 -4 250 -14 b 511 86 390 -15 456 25 b 599 -17 514 22 557 -17 b 647 28 624 -17 646 11 l 647 32 b 576 131 611 36 576 53 l 576 364 b 581 614 576 483 581 581 b 522 606 565 614 539 610 b 506 563 510 601 506 596 l 506 153 b 324 47 482 106 408 47 b 176 225 257 47 176 74 b 175 526 176 338 176 435 b 161 614 175 607 171 614 b 100 601 147 614 118 608 b 106 442 103 568 106 526 l 106 203 l 94 -236 b 153 -301 93 -283 96 -294 b 168 -301 158 -301 163 -303 z "},"™":{"ha":604,"x_min":0,"x_max":0,"o":"m 128 640 b 139 632 128 635 132 632 l 168 636 b 167 683 168 643 167 658 l 167 838 l 240 838 b 263 869 250 843 263 854 l 114 869 b 54 871 74 869 60 869 b 38 849 49 867 43 860 b 46 838 36 840 38 838 l 128 838 z m 533 858 b 528 871 532 867 532 871 b 497 864 524 871 507 868 l 497 860 b 415 703 472 814 426 728 l 358 822 b 333 871 339 864 339 871 b 299 863 324 871 310 868 l 303 847 b 260 636 288 775 269 682 b 289 629 268 632 285 629 b 297 639 294 629 296 631 b 325 801 306 681 321 772 b 397 636 340 767 388 660 b 419 639 411 636 404 636 b 503 808 454 711 492 788 l 515 706 b 524 639 518 683 521 661 b 533 629 524 632 526 629 b 569 636 546 629 561 632 b 554 721 567 654 560 682 z "},"Ð":{"ha":901,"x_min":0,"x_max":0,"o":"m 119 857 b 122 686 122 808 122 781 l 122 475 l 57 475 b -6 418 28 475 0 464 l 122 418 l 122 19 b 358 -14 206 -4 253 -14 b 701 96 435 -14 586 0 b 854 450 822 200 854 321 b 343 878 854 618 789 878 b 183 867 289 878 218 871 z m 199 811 b 338 822 251 819 299 822 b 769 440 647 822 769 657 b 364 39 769 158 579 39 b 199 61 301 39 246 46 l 199 418 l 379 418 b 468 475 428 418 456 425 l 199 475 z "},"½":{"ha":882,"x_min":0,"x_max":0,"o":"m 240 836 b 79 772 208 819 135 786 l 61 735 l 63 732 b 182 756 88 733 156 747 b 179 382 182 603 182 401 l 214 385 b 244 408 236 386 244 392 b 247 832 243 540 247 800 z m 683 825 b 667 856 681 838 676 844 b 639 854 656 869 647 868 b 110 -10 485 594 251 218 b 131 -44 111 -21 119 -36 b 156 -37 140 -54 146 -54 b 683 825 372 313 564 625 z m 651 444 b 519 388 594 444 546 415 b 508 332 508 376 506 353 l 513 329 b 636 388 543 360 597 388 b 722 301 686 388 722 360 b 519 46 722 219 625 136 b 499 10 514 33 507 22 l 501 4 b 679 -4 542 -3 614 -4 b 794 6 747 -4 776 0 b 828 54 818 18 828 42 b 594 50 746 46 667 47 b 794 306 665 110 794 203 b 653 444 794 393 736 444 z "},"±":{"ha":779,"x_min":0,"x_max":0,"o":"m 357 419 l 357 136 l 382 139 b 421 178 411 143 421 157 l 421 419 l 650 419 b 694 475 685 419 693 451 l 421 475 l 421 683 b 390 729 421 717 418 735 l 353 722 b 357 633 356 699 357 669 l 357 475 l 128 475 b 83 419 96 475 85 444 z m 651 0 b 696 56 686 0 694 32 l 128 56 b 85 0 97 56 86 25 z "},"Þ":{"ha":618,"x_min":0,"x_max":0,"o":"m 108 17 b 132 -8 108 -4 117 -8 b 189 3 147 -8 179 -3 b 185 174 188 31 185 76 l 185 638 b 271 646 204 646 238 646 b 486 436 403 647 486 574 b 278 217 486 235 331 215 b 232 219 251 217 268 217 b 257 178 235 207 239 192 b 308 168 265 171 286 168 b 571 439 407 168 571 235 b 501 626 571 496 557 569 b 281 700 446 681 367 700 b 185 692 235 700 206 696 l 185 796 b 167 872 185 861 181 872 b 104 861 149 872 124 865 b 108 685 107 835 108 778 z "},"¼":{"ha":882,"x_min":0,"x_max":0,"o":"m 249 836 b 88 772 217 819 143 786 l 69 739 l 74 733 b 190 756 99 735 164 747 b 188 382 190 603 190 401 l 222 385 b 253 408 244 386 253 392 b 256 832 251 540 256 800 z m 710 825 b 694 856 707 838 703 844 b 665 854 682 869 674 868 b 138 -10 511 594 279 217 b 158 -46 139 -22 147 -36 b 183 -39 168 -54 174 -54 b 710 825 400 311 592 626 z m 761 468 b 671 428 735 463 683 440 b 454 153 626 383 504 236 b 476 118 454 146 469 125 b 681 108 510 111 590 108 b 676 -6 681 72 679 25 l 682 -10 b 742 4 692 -8 715 -3 b 742 110 742 32 742 89 b 781 118 749 111 767 113 b 808 160 792 128 804 144 l 807 164 b 742 157 786 160 760 157 l 742 292 l 736 292 b 683 269 724 289 693 276 l 681 156 b 518 163 599 157 554 157 b 764 463 590 272 681 381 z "},"÷":{"ha":779,"x_min":0,"x_max":0,"o":"m 386 485 b 440 538 417 485 440 507 b 388 589 440 565 418 589 b 338 538 363 589 338 565 b 385 485 338 510 363 485 z m 651 311 b 696 367 681 311 694 328 l 121 367 b 83 311 96 367 85 336 z m 388 193 b 338 142 360 193 338 169 b 388 89 338 114 360 89 b 438 142 414 89 438 114 b 389 193 438 168 415 193 z "},"¦":{"ha":361,"x_min":0,"x_max":0,"o":"m 215 938 l 146 938 l 146 451 l 215 451 z m 215 243 l 146 243 l 146 -243 l 215 -243 z "},"°":{"ha":379,"x_min":0,"x_max":0,"o":"m 188 836 b 46 686 106 836 46 767 b 182 542 46 589 121 542 b 333 688 274 542 333 599 b 189 836 333 775 275 836 z m 189 783 b 269 683 243 783 269 733 b 192 593 269 635 249 593 b 111 689 149 593 111 626 b 188 783 111 742 140 783 z "},"þ":{"ha":699,"x_min":0,"x_max":0,"o":"m 176 26 b 322 -17 204 8 261 -17 b 649 319 514 -17 649 136 b 399 619 649 542 518 619 b 178 524 333 619 256 586 l 178 854 b 163 944 178 938 171 944 b 100 931 150 944 129 942 b 106 772 103 903 106 854 l 106 503 l 106 -39 b 101 -297 106 -190 104 -271 b 153 -293 118 -297 135 -296 b 176 -262 171 -286 176 -283 z m 176 464 b 376 550 206 492 283 550 b 569 329 508 550 569 428 b 324 40 569 69 389 40 b 176 83 281 40 224 53 z "},"¾":{"ha":882,"x_min":0,"x_max":0,"o":"m 206 833 b 93 788 154 833 111 806 b 79 764 85 779 79 769 b 94 739 79 756 86 744 b 189 782 115 758 157 782 b 263 713 231 782 263 758 b 147 619 263 647 204 631 b 125 582 135 604 129 592 l 128 578 b 189 585 150 583 174 585 b 293 501 243 585 293 565 b 157 401 293 446 247 401 b 67 415 128 401 83 410 l 65 413 b 81 375 67 399 74 383 b 167 353 92 364 119 353 b 361 507 264 353 361 408 b 261 621 361 575 322 606 b 328 725 297 646 328 676 b 207 833 328 796 275 833 z m 740 825 b 725 856 738 838 733 844 b 696 854 713 869 704 868 b 169 -10 543 593 311 218 b 190 -44 169 -21 179 -36 b 215 -37 199 -54 204 -54 b 740 825 432 313 622 625 z m 772 468 b 682 428 747 463 694 440 b 465 153 638 385 517 238 b 489 118 465 146 482 125 b 692 108 521 111 601 108 b 688 -6 692 72 690 18 l 693 -10 b 753 4 703 -8 726 -3 b 753 110 753 32 753 89 b 792 118 760 111 778 113 b 821 160 803 128 814 146 l 818 164 b 753 157 797 160 771 157 l 753 293 l 747 293 b 694 269 735 290 704 276 l 692 156 b 531 163 610 157 567 157 b 776 463 603 272 693 381 z "},"²":{"ha":386,"x_min":0,"x_max":0,"o":"m 40 932 b 164 985 74 965 125 985 b 250 899 214 985 250 956 b 49 643 250 815 153 733 b 29 607 43 631 36 619 l 32 601 b 207 593 72 594 143 593 b 321 601 276 593 299 596 b 357 653 346 618 357 640 b 121 647 274 644 194 644 b 324 901 190 706 324 803 b 181 1042 324 990 264 1042 b 49 985 122 1042 75 1013 b 38 933 44 971 38 954 z "},"®":{"ha":435,"x_min":0,"x_max":0,"o":"m 215 889 b 42 711 107 889 42 810 b 215 536 42 614 107 536 b 393 711 325 536 393 614 b 217 889 393 814 321 889 z m 214 854 b 351 713 297 854 351 793 b 217 568 351 628 294 568 b 82 713 138 568 82 628 b 213 854 82 793 138 854 z m 188 693 b 224 679 211 694 218 690 b 254 632 235 660 246 643 b 278 619 258 626 265 619 b 303 622 286 619 297 621 l 303 626 b 249 704 285 643 258 688 b 288 750 268 711 288 728 b 210 806 288 788 258 806 b 151 800 188 806 165 801 l 151 621 b 178 622 160 622 172 622 b 188 639 186 624 188 629 z m 188 778 b 211 779 192 779 203 779 b 249 750 235 779 249 768 b 225 719 249 738 242 724 b 188 717 214 717 201 717 z "},"−":{"ha":779,"x_min":0,"x_max":0,"o":"m 651 311 b 696 367 682 311 694 343 l 124 367 b 85 311 97 367 86 335 z "},"ð":{"ha":682,"x_min":0,"x_max":0,"o":"m 588 849 b 613 903 610 860 613 874 b 596 911 613 914 607 917 l 439 829 b 172 944 375 886 244 944 b 136 922 156 944 143 935 b 124 903 132 917 128 910 l 125 900 b 376 799 215 890 311 849 l 224 726 b 206 678 214 715 206 700 b 225 667 206 663 211 660 l 419 763 b 528 574 464 718 496 663 b 374 619 478 608 425 619 b 50 289 182 619 50 479 b 340 -17 50 125 144 -17 b 636 353 511 -17 636 119 b 482 793 636 529 582 690 z m 368 567 b 540 501 428 567 501 543 b 558 354 549 472 558 428 b 343 36 558 131 464 36 b 129 294 254 36 129 100 b 367 567 129 465 232 567 z "},"×":{"ha":779,"x_min":0,"x_max":0,"o":"m 671 597 b 647 622 667 600 661 613 b 607 613 633 631 621 628 l 383 379 l 140 632 b 114 604 126 625 118 614 b 115 574 108 590 108 581 l 342 339 l 124 110 b 117 72 115 99 110 89 b 140 42 124 58 131 47 l 379 300 l 622 42 b 653 64 633 46 644 56 b 650 100 661 75 663 90 l 424 339 z "},"³":{"ha":386,"x_min":0,"x_max":0,"o":"m 107 782 b 167 789 129 788 153 789 b 269 704 222 789 269 768 b 132 606 269 650 222 606 b 43 619 100 606 61 613 l 42 617 b 56 581 42 603 51 585 b 140 558 67 568 93 558 b 336 710 238 558 336 614 b 238 825 336 778 299 810 b 307 929 278 849 307 876 b 182 1039 307 1001 251 1039 b 65 990 131 1039 85 1008 b 54 968 57 983 54 975 b 69 943 54 960 61 949 b 167 988 90 964 135 988 b 244 917 208 988 244 963 b 124 824 244 853 185 835 b 103 788 113 810 107 796 z "},"©":{"ha":928,"x_min":0,"x_max":0,"o":"m 467 875 b 53 439 235 875 53 701 b 467 3 53 176 235 3 b 875 439 694 3 875 176 b 468 875 875 679 715 875 z m 468 828 b 813 440 688 828 813 643 b 469 50 813 224 678 50 b 115 439 256 50 115 229 b 467 828 115 654 256 828 z m 625 285 b 514 263 597 274 549 263 b 328 443 394 263 328 331 b 497 621 328 571 426 621 b 600 599 546 621 581 607 b 626 601 610 594 619 594 b 636 631 631 607 636 618 b 506 668 622 644 564 668 b 264 436 358 668 264 568 b 492 211 264 300 361 211 b 603 236 553 211 586 228 b 628 282 617 250 625 261 z "},"Á":{"ha":856,"x_min":0,"x_max":0,"o":"m 610 300 b 731 31 671 163 696 106 b 768 -8 744 0 753 -8 b 828 6 781 -8 801 -4 l 828 13 b 713 260 804 54 769 139 b 453 851 651 392 515 708 b 421 872 449 861 442 872 b 372 860 403 872 385 865 l 393 813 b 24 15 354 724 110 186 l 22 7 b 71 -8 36 -3 58 -8 b 94 6 82 -8 90 -3 b 231 300 122 60 168 160 z m 256 358 b 424 739 317 497 365 610 b 586 358 446 689 501 560 z m 581 1079 b 371 974 553 1076 421 1006 b 360 946 356 964 356 956 b 376 924 364 935 369 928 b 608 1004 429 943 524 981 b 625 1029 624 1007 631 1015 b 581 1079 621 1044 596 1074 z "},"Â":{"ha":856,"x_min":0,"x_max":0,"o":"m 610 300 b 731 31 671 163 696 106 b 768 -8 744 0 753 -8 b 828 6 781 -8 801 -4 l 828 13 b 713 260 804 54 769 139 b 453 851 651 392 515 708 b 421 872 449 861 442 872 b 372 860 403 872 385 865 l 393 813 b 24 15 354 724 110 186 l 22 7 b 71 -8 36 -3 58 -8 b 94 6 82 -8 90 -3 b 231 300 122 60 168 160 z m 256 358 b 424 739 317 497 365 610 b 586 358 446 689 501 560 z m 314 924 b 342 933 325 924 332 928 b 432 1019 364 951 400 983 b 529 932 475 978 514 943 b 557 924 536 926 547 924 b 597 950 568 924 590 935 b 442 1094 543 992 489 1042 b 421 1090 439 1094 432 1094 b 403 1076 414 1086 407 1081 b 271 943 360 1024 319 983 b 313 924 283 933 303 924 z "},"Ä":{"ha":856,"x_min":0,"x_max":0,"o":"m 610 300 b 731 31 671 163 696 106 b 768 -8 744 0 753 -8 b 828 6 781 -8 801 -4 l 828 13 b 713 260 804 54 769 139 b 453 851 651 392 515 708 b 421 872 449 861 442 872 b 372 860 403 872 385 865 l 393 813 b 24 15 354 724 110 186 l 22 7 b 71 -8 36 -3 58 -8 b 94 6 82 -8 90 -3 b 231 300 122 60 168 160 z m 256 358 b 424 739 317 497 365 610 b 586 358 446 689 501 560 z m 307 1032 b 254 976 275 1032 254 1007 b 306 924 254 939 279 924 b 357 979 335 924 357 943 b 308 1032 357 1008 336 1032 z m 556 1032 b 501 976 521 1032 501 1007 b 551 924 501 939 528 924 b 606 979 583 924 606 943 b 557 1032 606 1008 585 1032 z "},"À":{"ha":856,"x_min":0,"x_max":0,"o":"m 610 300 b 731 31 671 163 696 106 b 768 -8 744 0 753 -8 b 828 6 781 -8 801 -4 l 828 13 b 713 260 804 54 769 139 b 453 851 651 392 515 708 b 421 872 449 861 442 872 b 372 860 403 872 385 865 l 393 813 b 24 15 354 724 110 186 l 22 7 b 71 -8 36 -3 58 -8 b 94 6 82 -8 90 -3 b 231 300 122 60 168 160 z m 256 358 b 424 739 317 497 365 610 b 586 358 446 689 501 560 z m 304 1092 b 250 1046 286 1092 258 1065 b 256 1033 246 1040 246 1036 b 474 938 332 1010 424 965 b 494 960 479 943 486 947 b 490 983 503 968 503 975 b 306 1092 443 1025 331 1092 z "},"Å":{"ha":856,"x_min":0,"x_max":0,"o":"m 610 300 b 731 31 671 163 696 106 b 768 -8 744 0 753 -8 b 828 6 781 -8 801 -4 l 828 13 b 713 260 804 54 769 139 b 453 851 651 392 515 708 b 421 872 449 861 442 872 b 372 860 403 872 385 865 l 393 813 b 24 15 354 724 110 186 l 22 7 b 71 -8 36 -3 58 -8 b 94 6 82 -8 90 -3 b 231 300 122 60 168 160 z m 256 358 b 424 739 317 497 365 610 b 586 358 446 689 501 560 z m 431 1142 b 321 1029 363 1142 321 1090 b 426 924 321 965 369 924 b 539 1033 494 924 539 967 b 432 1142 539 1094 492 1142 z m 428 1094 b 485 1031 467 1094 485 1067 b 431 971 485 1001 468 971 b 376 1032 399 971 376 997 b 426 1094 376 1061 393 1094 z "},"Ã":{"ha":856,"x_min":0,"x_max":0,"o":"m 610 300 b 731 31 671 163 696 106 b 768 -8 744 0 753 -8 b 828 6 781 -8 801 -4 l 828 13 b 713 260 804 54 769 139 b 453 851 651 392 515 708 b 421 872 449 861 442 872 b 372 860 403 872 385 865 l 393 813 b 24 15 354 724 110 186 l 22 7 b 71 -8 36 -3 58 -8 b 94 6 82 -8 90 -3 b 231 300 122 60 168 160 z m 256 358 b 424 739 317 497 365 610 b 586 358 446 689 501 560 z m 368 1081 b 269 950 300 1081 278 999 b 311 938 281 946 296 938 b 324 953 319 938 322 944 b 365 1021 333 988 346 1021 b 407 990 381 1021 389 1011 b 485 932 435 957 454 932 b 576 1060 539 932 567 985 b 539 1081 563 1071 550 1081 b 524 1065 529 1081 526 1076 b 489 994 514 1011 503 994 b 447 1032 479 994 464 1011 b 369 1081 428 1057 403 1081 z "},"Ç":{"ha":804,"x_min":0,"x_max":0,"o":"m 408 -118 l 408 -121 b 521 -178 460 -122 521 -136 b 415 -253 521 -197 494 -228 b 403 -264 404 -257 403 -260 b 428 -299 403 -275 414 -296 b 586 -171 496 -287 586 -243 b 500 -74 586 -126 558 -89 l 538 -19 b 721 22 629 -18 694 4 b 760 86 742 35 757 69 l 757 89 b 538 40 722 69 622 40 b 142 435 272 40 142 214 b 521 826 142 686 319 826 b 715 782 593 826 663 813 b 776 815 746 765 771 785 b 531 889 754 843 665 889 b 57 431 264 889 57 706 b 475 -18 57 167 204 1 z "},"É":{"ha":596,"x_min":0,"x_max":0,"o":"m 108 31 l 126 7 b 375 -8 163 -3 267 -8 b 524 -3 464 -8 507 -6 b 579 54 553 3 571 31 l 576 57 b 388 50 535 51 456 50 b 185 63 310 50 211 53 l 185 417 l 446 417 b 526 475 490 417 515 419 l 185 475 l 185 808 l 418 808 b 510 818 478 808 494 810 b 535 867 525 831 535 854 b 168 867 439 867 281 867 b 106 847 146 863 122 854 b 108 672 108 800 108 738 z m 468 1079 b 258 974 440 1076 308 1006 b 247 946 243 964 243 956 b 264 924 251 935 257 928 b 496 1004 317 943 411 981 b 513 1029 511 1007 518 1015 b 468 1079 508 1044 483 1074 z "},"Ê":{"ha":596,"x_min":0,"x_max":0,"o":"m 108 31 l 126 7 b 375 -8 163 -3 267 -8 b 524 -3 464 -8 507 -6 b 579 54 553 3 571 31 l 576 57 b 388 50 535 51 456 50 b 185 63 310 50 211 53 l 185 417 l 446 417 b 526 475 490 417 515 419 l 185 475 l 185 808 l 418 808 b 510 818 478 808 494 810 b 535 867 525 831 535 854 b 168 867 439 867 281 867 b 106 847 146 863 122 854 b 108 672 108 800 108 738 z m 211 935 b 239 944 222 935 229 939 b 329 1031 261 963 297 994 b 426 943 372 989 411 954 b 454 935 433 938 444 935 b 494 961 465 935 488 946 b 339 1106 440 1003 386 1053 b 318 1101 336 1106 329 1106 b 300 1088 311 1097 304 1092 b 168 954 257 1035 217 994 b 210 935 181 944 200 935 z "},"Ë":{"ha":596,"x_min":0,"x_max":0,"o":"m 108 31 l 126 7 b 375 -8 163 -3 267 -8 b 524 -3 464 -8 507 -6 b 579 54 553 3 571 31 l 576 57 b 388 50 535 51 456 50 b 185 63 310 50 211 53 l 185 417 l 446 417 b 526 475 490 417 515 419 l 185 475 l 185 808 l 418 808 b 510 818 478 808 494 810 b 535 867 525 831 535 854 b 168 867 439 867 281 867 b 106 847 146 863 122 854 b 108 672 108 800 108 738 z m 199 1046 b 146 990 167 1046 146 1021 b 197 938 146 953 171 938 b 249 993 226 938 249 957 b 200 1046 249 1022 228 1046 z m 447 1046 b 393 990 413 1046 393 1021 b 443 938 393 953 419 938 b 497 993 475 938 497 957 b 449 1046 497 1022 476 1046 z "},"È":{"ha":596,"x_min":0,"x_max":0,"o":"m 108 31 l 126 7 b 375 -8 163 -3 267 -8 b 524 -3 464 -8 507 -6 b 579 54 553 3 571 31 l 576 57 b 388 50 535 51 456 50 b 185 63 310 50 211 53 l 185 417 l 446 417 b 526 475 490 417 515 419 l 185 475 l 185 808 l 418 808 b 510 818 478 808 494 810 b 535 867 525 831 535 854 b 168 867 439 867 281 867 b 106 847 146 863 122 854 b 108 672 108 800 108 738 z m 203 1078 b 149 1032 185 1078 157 1051 b 154 1019 144 1026 144 1022 b 372 924 231 996 322 951 b 393 946 378 929 385 933 b 389 969 401 954 401 961 b 204 1078 342 1011 229 1078 z "},"Í":{"ha":292,"x_min":0,"x_max":0,"o":"m 108 17 b 125 -8 108 -4 114 -8 b 189 3 140 -8 169 -4 b 185 172 188 31 185 76 l 185 803 b 168 872 185 864 183 872 b 104 861 149 872 118 865 b 108 686 107 836 108 779 z m 281 1079 b 71 974 253 1076 121 1006 b 60 946 56 964 56 956 b 76 924 64 935 69 928 b 308 1004 129 943 224 981 b 325 1029 324 1007 331 1015 b 281 1079 321 1044 296 1074 z "},"Î":{"ha":292,"x_min":0,"x_max":0,"o":"m 108 17 b 125 -8 108 -4 114 -8 b 189 3 140 -8 169 -4 b 185 172 188 31 185 76 l 185 803 b 168 872 185 864 183 872 b 104 861 149 872 118 865 b 108 686 107 836 108 779 z m 28 924 b 56 933 39 924 46 928 b 146 1019 78 951 114 983 b 243 932 189 978 228 943 b 271 924 250 926 261 924 b 311 950 282 924 304 935 b 156 1094 257 992 203 1042 b 135 1090 153 1094 146 1094 b 117 1076 128 1086 121 1081 b -15 943 74 1024 33 983 b 26 924 -3 933 17 924 z "},"Ï":{"ha":292,"x_min":0,"x_max":0,"o":"m 108 17 b 125 -8 108 -4 114 -8 b 189 3 140 -8 169 -4 b 185 172 188 31 185 76 l 185 803 b 168 872 185 864 183 872 b 104 861 149 872 118 865 b 108 686 107 836 108 779 z m 25 1032 b -28 976 -7 1032 -28 1007 b 24 924 -28 939 -3 924 b 75 979 53 924 75 943 b 26 1032 75 1008 54 1032 z m 274 1032 b 219 976 239 1032 219 1007 b 269 924 219 939 246 924 b 324 979 301 924 324 943 b 275 1032 324 1008 303 1032 z "},"Ì":{"ha":292,"x_min":0,"x_max":0,"o":"m 108 17 b 125 -8 108 -4 114 -8 b 189 3 140 -8 169 -4 b 185 172 188 31 185 76 l 185 803 b 168 872 185 864 183 872 b 104 861 149 872 118 865 b 108 686 107 836 108 779 z m 36 1078 b -18 1032 18 1078 -10 1051 b -12 1019 -22 1026 -22 1022 b 206 924 64 996 156 951 b 226 946 211 929 218 933 b 222 969 235 954 235 961 b 38 1078 175 1011 63 1078 z "},"Ñ":{"ha":917,"x_min":0,"x_max":0,"o":"m 124 799 l 124 244 b 119 -8 124 128 122 47 b 160 -3 129 -8 142 -7 b 186 43 178 1 186 6 l 186 396 b 179 732 186 467 185 543 b 318 543 231 657 289 582 b 746 -15 450 376 635 131 b 757 -18 749 -15 754 -18 b 800 0 769 -18 793 -7 l 800 617 b 804 872 800 732 801 813 b 761 867 782 872 800 872 b 736 826 746 864 736 858 l 736 442 b 743 97 736 372 736 267 b 554 353 703 164 632 254 b 169 849 376 578 219 794 b 139 872 158 865 146 872 b 79 861 124 872 90 865 l 79 856 z m 407 1054 b 308 924 339 1054 317 972 b 350 911 319 919 335 911 b 363 926 358 911 361 918 b 404 994 372 961 385 994 b 446 964 419 994 428 985 b 524 906 474 931 493 906 b 615 1033 578 906 606 958 b 578 1054 601 1044 589 1054 b 563 1039 568 1054 565 1050 b 528 968 553 985 542 968 b 486 1006 518 968 503 985 b 408 1054 467 1031 442 1054 z "},"Ó":{"ha":989,"x_min":0,"x_max":0,"o":"m 493 889 b 57 421 224 889 57 686 b 497 -21 57 242 175 -21 b 932 442 793 -21 932 208 b 494 889 932 694 751 889 z m 488 835 b 847 439 694 835 847 668 b 503 33 847 164 696 33 b 142 429 328 33 142 174 b 486 835 142 679 283 835 z m 625 1092 b 415 986 597 1089 465 1018 b 404 958 400 976 400 968 b 421 936 408 947 414 940 b 653 1017 474 956 568 993 b 669 1042 668 1019 675 1028 b 625 1092 665 1057 640 1086 z "},"Ô":{"ha":989,"x_min":0,"x_max":0,"o":"m 493 889 b 57 421 224 889 57 686 b 497 -21 57 242 175 -21 b 932 442 793 -21 932 208 b 494 889 932 694 751 889 z m 488 835 b 847 439 694 835 847 668 b 503 33 847 164 696 33 b 142 429 328 33 142 174 b 486 835 142 679 283 835 z m 376 949 b 404 958 388 949 394 953 b 494 1044 426 976 463 1008 b 592 957 538 1003 576 968 b 619 949 599 951 610 949 b 660 975 631 949 653 960 b 504 1119 606 1017 551 1067 b 483 1115 501 1119 494 1119 b 465 1101 476 1111 469 1106 b 333 968 422 1049 382 1008 b 375 949 346 958 365 949 z "},"Ö":{"ha":989,"x_min":0,"x_max":0,"o":"m 493 889 b 57 421 224 889 57 686 b 497 -21 57 242 175 -21 b 932 442 793 -21 932 208 b 494 889 932 694 751 889 z m 488 835 b 847 439 694 835 847 668 b 503 33 847 164 696 33 b 142 429 328 33 142 174 b 486 835 142 679 283 835 z m 374 1060 b 321 1004 342 1060 321 1035 b 372 951 321 967 346 951 b 424 1007 401 951 424 971 b 375 1060 424 1036 403 1060 z m 622 1060 b 568 1004 588 1060 568 1035 b 618 951 568 967 594 951 b 672 1007 650 951 672 971 b 624 1060 672 1036 651 1060 z "},"Ò":{"ha":989,"x_min":0,"x_max":0,"o":"m 493 889 b 57 421 224 889 57 686 b 497 -21 57 242 175 -21 b 932 442 793 -21 932 208 b 494 889 932 694 751 889 z m 488 835 b 847 439 694 835 847 668 b 503 33 847 164 696 33 b 142 429 328 33 142 174 b 486 835 142 679 283 835 z m 401 1096 b 347 1050 383 1096 356 1069 b 353 1038 343 1044 343 1040 b 571 942 429 1014 521 969 b 592 964 576 947 583 951 b 588 988 600 972 600 979 b 403 1096 540 1029 428 1096 z "},"Õ":{"ha":989,"x_min":0,"x_max":0,"o":"m 493 889 b 57 421 224 889 57 686 b 497 -21 57 242 175 -21 b 932 442 793 -21 932 208 b 494 889 932 694 751 889 z m 488 835 b 847 439 694 835 847 668 b 503 33 847 164 696 33 b 142 429 328 33 142 174 b 486 835 142 679 283 835 z m 429 1099 b 331 968 361 1099 339 1017 b 372 956 342 964 357 956 b 385 971 381 956 383 963 b 426 1039 394 1006 407 1039 b 468 1008 442 1039 450 1029 b 546 950 496 975 515 950 b 638 1078 600 950 628 1003 b 600 1099 624 1089 611 1099 b 585 1083 590 1099 588 1094 b 550 1013 575 1029 564 1013 b 508 1050 540 1013 525 1029 b 431 1099 489 1075 464 1099 z "},"Š":{"ha":572,"x_min":0,"x_max":0,"o":"m 325 889 b 69 672 122 889 69 750 b 250 422 69 596 85 515 b 447 200 381 350 447 306 b 258 40 447 103 374 40 b 65 106 199 40 117 63 b 54 61 58 89 57 85 b 71 32 54 49 61 40 b 254 -21 97 10 167 -21 b 526 213 408 -21 526 69 b 318 475 526 326 482 383 b 147 678 203 539 147 581 b 315 829 147 790 240 829 b 456 792 371 829 417 813 b 486 836 474 793 488 818 b 326 889 454 868 379 889 z m 421 1101 b 394 1093 410 1101 403 1097 b 307 1011 372 1075 338 1044 b 214 1094 265 1050 229 1082 b 189 1101 208 1099 199 1101 b 150 1076 178 1101 156 1090 b 294 939 200 1038 250 989 b 315 943 297 939 306 939 b 333 957 322 947 329 953 b 461 1082 375 1007 414 1044 b 422 1101 449 1093 431 1101 z "},"Ú":{"ha":907,"x_min":0,"x_max":0,"o":"m 181 801 b 160 872 181 867 179 872 b 100 861 144 872 114 865 b 104 685 103 835 104 778 l 104 407 b 444 -21 104 63 261 -21 b 800 428 586 -21 800 19 l 800 622 b 804 872 800 738 801 819 b 757 867 776 872 797 871 b 733 833 744 864 733 858 l 733 425 b 456 39 733 79 589 39 b 181 403 342 39 181 86 z m 575 1079 b 365 974 547 1076 415 1006 b 354 946 350 964 350 956 b 371 924 358 935 364 928 b 603 1004 424 943 518 981 b 619 1029 618 1007 625 1015 b 575 1079 615 1044 590 1074 z "},"Û":{"ha":907,"x_min":0,"x_max":0,"o":"m 181 801 b 160 872 181 867 179 872 b 100 861 144 872 114 865 b 104 685 103 835 104 778 l 104 407 b 444 -21 104 63 261 -21 b 800 428 586 -21 800 19 l 800 622 b 804 872 800 738 801 819 b 757 867 776 872 797 871 b 733 833 744 864 733 858 l 733 425 b 456 39 733 79 589 39 b 181 403 342 39 181 86 z m 338 924 b 365 933 349 924 356 928 b 456 1019 388 951 424 983 b 553 932 499 978 538 943 b 581 924 560 926 571 924 b 621 950 592 924 614 935 b 465 1094 567 992 513 1042 b 444 1090 463 1094 456 1094 b 426 1076 438 1086 431 1081 b 294 943 383 1024 343 983 b 336 924 307 933 326 924 z "},"Ü":{"ha":907,"x_min":0,"x_max":0,"o":"m 181 801 b 160 872 181 867 179 872 b 100 861 144 872 114 865 b 104 685 103 835 104 778 l 104 407 b 444 -21 104 63 261 -21 b 800 428 586 -21 800 19 l 800 622 b 804 872 800 738 801 819 b 757 867 776 872 797 871 b 733 833 744 864 733 858 l 733 425 b 456 39 733 79 589 39 b 181 403 342 39 181 86 z m 333 1032 b 281 976 301 1032 281 1007 b 332 924 281 939 306 924 b 383 979 361 924 383 943 b 335 1032 383 1008 363 1032 z m 582 1032 b 528 976 547 1032 528 1007 b 578 924 528 939 554 924 b 632 979 610 924 632 943 b 583 1032 632 1008 611 1032 z "},"Ù":{"ha":907,"x_min":0,"x_max":0,"o":"m 181 801 b 160 872 181 867 179 872 b 100 861 144 872 114 865 b 104 685 103 835 104 778 l 104 407 b 444 -21 104 63 261 -21 b 800 428 586 -21 800 19 l 800 622 b 804 872 800 738 801 819 b 757 867 776 872 797 871 b 733 833 744 864 733 858 l 733 425 b 456 39 733 79 589 39 b 181 403 342 39 181 86 z m 351 1067 b 297 1021 333 1067 306 1040 b 303 1008 293 1015 293 1011 b 521 913 379 985 471 940 b 542 935 526 918 533 922 b 538 958 550 943 550 950 b 353 1067 490 1000 378 1067 z "},"Ý":{"ha":756,"x_min":0,"x_max":0,"o":"m 339 17 b 356 -8 339 -4 343 -8 b 419 3 372 -8 407 -4 b 415 169 418 31 415 75 l 415 381 b 429 433 415 400 418 419 b 711 815 453 463 674 767 b 715 863 731 842 731 857 b 674 872 700 868 690 872 b 388 469 644 825 431 526 b 146 814 307 583 199 736 b 90 872 119 851 104 872 b 26 857 69 872 44 865 l 26 853 b 329 428 96 764 264 526 b 339 371 339 414 339 396 z m 533 1061 b 324 956 506 1058 374 988 b 313 928 308 946 308 938 b 329 906 317 917 322 910 b 561 986 382 925 476 963 b 578 1011 576 989 583 997 b 533 1061 574 1026 549 1056 z "},"Ÿ":{"ha":756,"x_min":0,"x_max":0,"o":"m 339 17 b 356 -8 339 -4 343 -8 b 419 3 372 -8 407 -4 b 415 169 418 31 415 75 l 415 381 b 429 433 415 400 418 419 b 711 815 453 463 674 767 b 715 863 731 842 731 857 b 674 872 700 868 690 872 b 388 469 644 825 431 526 b 146 814 307 583 199 736 b 90 872 119 851 104 872 b 26 857 69 872 44 865 l 26 853 b 329 428 96 764 264 526 b 339 371 339 414 339 396 z m 261 1032 b 208 976 229 1032 208 1007 b 260 924 208 939 233 924 b 311 979 289 924 311 943 b 263 1032 311 1008 290 1032 z m 510 1032 b 456 976 475 1032 456 1007 b 506 924 456 939 482 924 b 560 979 538 924 560 943 b 511 1032 560 1008 539 1032 z "},"Ž":{"ha":767,"x_min":0,"x_max":0,"o":"m 742 53 b 154 56 651 47 315 49 b 665 782 374 346 586 656 b 701 867 682 810 694 835 l 214 867 b 113 875 161 867 131 869 b 76 829 100 867 76 843 b 158 810 76 818 78 810 b 604 810 243 810 489 810 b 46 32 501 640 239 272 b 68 3 47 22 54 15 b 499 -8 86 -4 154 -8 b 689 0 654 -8 676 -6 b 743 50 707 7 721 15 z m 508 1096 b 482 1088 497 1096 490 1092 b 394 1006 460 1069 425 1039 b 301 1089 353 1044 317 1076 b 276 1096 296 1093 286 1096 b 238 1071 265 1096 243 1085 b 382 933 288 1032 338 983 b 403 938 385 933 393 933 b 421 951 410 942 417 947 b 549 1076 463 1001 501 1039 b 510 1096 536 1088 518 1096 z "},"á":{"ha":565,"x_min":0,"x_max":0,"o":"m 529 43 b 500 38 518 39 508 38 b 456 90 472 38 457 54 b 457 390 453 171 457 329 b 267 619 457 504 421 619 b 60 525 176 619 92 563 b 103 493 65 496 83 482 b 256 556 149 531 200 556 b 386 408 349 556 386 481 l 385 351 b 317 338 367 349 342 343 b 44 126 264 324 44 282 b 194 -17 44 58 96 -17 b 385 81 275 -17 344 32 b 468 -17 383 35 408 -17 b 531 40 504 -17 535 0 z m 122 139 b 385 300 122 246 278 279 l 385 183 b 376 139 385 160 382 149 b 222 47 354 100 300 47 b 122 138 168 47 122 83 z m 333 942 b 224 757 319 942 249 813 b 217 721 213 735 213 726 b 243 697 225 711 235 701 b 383 889 282 757 331 828 b 388 915 394 901 396 908 b 335 942 376 929 349 942 z "},"â":{"ha":565,"x_min":0,"x_max":0,"o":"m 529 43 b 500 38 518 39 508 38 b 456 90 472 38 457 54 b 457 390 453 171 457 329 b 267 619 457 504 421 619 b 60 525 176 619 92 563 b 103 493 65 496 83 482 b 256 556 149 531 200 556 b 386 408 349 556 386 481 l 385 351 b 317 338 367 349 342 343 b 44 126 264 324 44 282 b 194 -17 44 58 96 -17 b 385 81 275 -17 344 32 b 468 -17 383 35 408 -17 b 531 40 504 -17 535 0 z m 122 139 b 385 300 122 246 278 279 l 385 183 b 376 139 385 160 382 149 b 222 47 354 100 300 47 b 122 138 168 47 122 83 z m 169 699 b 182 703 178 699 179 701 b 265 856 215 765 239 807 b 339 713 299 790 322 751 b 357 699 346 701 350 699 b 401 721 379 699 394 713 b 286 939 363 792 322 865 b 254 933 276 939 264 936 b 231 910 242 931 239 926 b 126 718 197 843 161 788 b 168 699 131 708 153 699 z "},"ä":{"ha":565,"x_min":0,"x_max":0,"o":"m 529 43 b 500 38 518 39 508 38 b 456 90 472 38 457 54 b 457 390 453 171 457 329 b 267 619 457 504 421 619 b 60 525 176 619 92 563 b 103 493 65 496 83 482 b 256 556 149 531 200 556 b 386 408 349 556 386 481 l 385 351 b 317 338 367 349 342 343 b 44 126 264 324 44 282 b 194 -17 44 58 96 -17 b 385 81 275 -17 344 32 b 468 -17 383 35 408 -17 b 531 40 504 -17 535 0 z m 122 139 b 385 300 122 246 278 279 l 385 183 b 376 139 385 160 382 149 b 222 47 354 100 300 47 b 122 138 168 47 122 83 z m 163 850 b 110 794 129 850 110 825 b 160 743 110 758 133 743 b 211 799 189 743 211 763 b 164 850 211 826 190 850 z m 375 850 b 322 794 342 850 322 826 b 371 743 322 758 347 743 b 424 799 401 743 424 763 b 376 850 424 825 404 850 z "},"à":{"ha":565,"x_min":0,"x_max":0,"o":"m 529 43 b 500 38 518 39 508 38 b 456 90 472 38 457 54 b 457 390 453 171 457 329 b 267 619 457 504 421 619 b 60 525 176 619 92 563 b 103 493 65 496 83 482 b 256 556 149 531 200 556 b 386 408 349 556 386 481 l 385 351 b 317 338 367 349 342 343 b 44 126 264 324 44 282 b 194 -17 44 58 96 -17 b 385 81 275 -17 344 32 b 468 -17 383 35 408 -17 b 531 40 504 -17 535 0 z m 122 139 b 385 300 122 246 278 279 l 385 183 b 376 139 385 160 382 149 b 222 47 354 100 300 47 b 122 138 168 47 122 83 z m 175 944 b 131 918 161 944 147 935 b 126 890 118 907 118 897 b 267 701 178 832 232 754 b 290 721 269 703 279 711 b 293 753 297 728 299 738 b 176 944 268 811 193 943 z "},"å":{"ha":565,"x_min":0,"x_max":0,"o":"m 529 43 b 500 38 518 39 508 38 b 456 90 472 38 457 54 b 457 390 453 171 457 329 b 267 619 457 504 421 619 b 60 525 176 619 92 563 b 103 493 65 496 83 482 b 256 556 149 531 200 556 b 386 408 349 556 386 481 l 385 351 b 317 338 367 349 342 343 b 44 126 264 324 44 282 b 194 -17 44 58 96 -17 b 385 81 275 -17 344 32 b 468 -17 383 35 408 -17 b 531 40 504 -17 535 0 z m 122 139 b 385 300 122 246 278 279 l 385 183 b 376 139 385 160 382 149 b 222 47 354 100 300 47 b 122 138 168 47 122 83 z m 267 917 b 153 800 197 917 153 865 b 263 689 153 732 204 689 b 379 804 333 689 379 733 b 268 917 379 868 332 917 z m 264 868 b 321 801 306 868 321 835 b 267 739 321 771 304 739 b 211 804 235 739 211 769 b 263 868 211 833 229 868 z "},"ã":{"ha":565,"x_min":0,"x_max":0,"o":"m 529 43 b 500 38 518 39 508 38 b 456 90 472 38 457 54 b 457 390 453 171 457 329 b 267 619 457 504 421 619 b 60 525 176 619 92 563 b 103 493 65 496 83 482 b 256 556 149 531 200 556 b 386 408 349 556 386 481 l 385 351 b 317 338 367 349 342 343 b 44 126 264 324 44 282 b 194 -17 44 58 96 -17 b 385 81 275 -17 344 32 b 468 -17 383 35 408 -17 b 531 40 504 -17 535 0 z m 122 139 b 385 300 122 246 278 279 l 385 183 b 376 139 385 160 382 149 b 222 47 354 100 300 47 b 122 138 168 47 122 83 z m 211 876 b 110 744 142 876 118 796 b 153 732 121 740 136 732 b 164 747 160 732 163 738 b 208 814 174 781 189 814 b 250 783 222 814 232 804 b 328 726 276 751 296 726 b 421 857 382 726 411 779 b 385 878 407 868 396 878 b 369 863 375 878 372 874 b 332 792 360 808 346 792 b 290 829 322 792 307 808 b 213 876 271 854 246 876 z "},"ç":{"ha":572,"x_min":0,"x_max":0,"o":"m 258 -118 l 258 -121 b 371 -178 310 -122 371 -136 b 265 -253 371 -197 344 -228 b 253 -264 254 -257 253 -260 b 278 -299 253 -275 264 -296 b 436 -171 346 -287 436 -243 b 350 -74 436 -126 408 -89 l 390 -14 b 496 14 421 -14 476 1 b 528 72 514 25 525 47 l 525 76 b 382 47 478 56 425 47 b 129 304 283 47 129 89 b 364 558 129 449 224 558 b 497 528 403 558 454 550 b 528 535 507 522 518 525 b 542 568 536 543 542 556 b 372 619 532 585 468 619 b 50 299 206 619 50 497 b 329 -15 50 53 208 -3 z "},"é":{"ha":582,"x_min":0,"x_max":0,"o":"m 507 83 b 351 47 481 68 411 47 b 124 314 204 47 121 154 b 418 315 247 310 378 313 b 540 358 458 317 535 332 b 543 400 543 371 543 390 b 328 619 539 508 472 619 b 49 288 150 619 49 469 b 333 -17 49 103 147 -17 b 476 18 396 -17 451 3 b 510 82 497 32 508 56 z m 313 568 b 467 399 414 568 469 494 b 429 369 467 381 451 371 b 131 369 410 369 268 367 b 311 568 147 496 226 568 z m 371 942 b 261 757 357 942 286 813 b 254 721 250 735 250 726 b 281 697 263 711 272 701 b 421 889 319 757 368 828 b 425 915 432 901 433 908 b 372 942 414 929 386 942 z "},"ê":{"ha":582,"x_min":0,"x_max":0,"o":"m 507 83 b 351 47 481 68 411 47 b 124 314 204 47 121 154 b 418 315 247 310 378 313 b 540 358 458 317 535 332 b 543 400 543 371 543 390 b 328 619 539 508 472 619 b 49 288 150 619 49 469 b 333 -17 49 103 147 -17 b 476 18 396 -17 451 3 b 510 82 497 32 508 56 z m 313 568 b 467 399 414 568 469 494 b 429 369 467 381 451 371 b 131 369 410 369 268 367 b 311 568 147 496 226 568 z m 217 699 b 229 703 225 699 226 701 b 313 856 263 765 286 807 b 386 713 346 790 369 751 b 404 699 393 701 397 699 b 449 721 426 699 442 713 b 333 939 410 792 369 865 b 301 933 324 939 311 936 b 278 910 289 931 286 926 b 174 718 244 843 208 788 b 215 699 178 708 200 699 z "},"ë":{"ha":582,"x_min":0,"x_max":0,"o":"m 507 83 b 351 47 481 68 411 47 b 124 314 204 47 121 154 b 418 315 247 310 378 313 b 540 358 458 317 535 332 b 543 400 543 371 543 390 b 328 619 539 508 472 619 b 49 288 150 619 49 469 b 333 -17 49 103 147 -17 b 476 18 396 -17 451 3 b 510 82 497 32 508 56 z m 313 568 b 467 399 414 568 469 494 b 429 369 467 381 451 371 b 131 369 410 369 268 367 b 311 568 147 496 226 568 z m 208 850 b 156 794 175 850 156 825 b 206 743 156 758 179 743 b 257 799 235 743 257 763 b 210 850 257 826 236 850 z m 421 850 b 368 794 388 850 368 826 b 417 743 368 758 393 743 b 469 799 447 743 469 763 b 422 850 469 825 450 850 z "},"è":{"ha":582,"x_min":0,"x_max":0,"o":"m 507 83 b 351 47 481 68 411 47 b 124 314 204 47 121 154 b 418 315 247 310 378 313 b 540 358 458 317 535 332 b 543 400 543 371 543 390 b 328 619 539 508 472 619 b 49 288 150 619 49 469 b 333 -17 49 103 147 -17 b 476 18 396 -17 451 3 b 510 82 497 32 508 56 z m 313 568 b 467 399 414 568 469 494 b 429 369 467 381 451 371 b 131 369 410 369 268 367 b 311 568 147 496 226 568 z m 229 944 b 185 918 215 944 201 935 b 181 890 172 907 172 897 b 321 701 232 832 286 754 b 344 721 324 703 333 711 b 347 753 351 728 353 738 b 231 944 322 811 247 943 z "},"í":{"ha":275,"x_min":0,"x_max":0,"o":"m 174 526 b 158 611 174 604 168 611 b 97 599 146 611 115 607 b 103 442 100 568 103 526 l 103 208 b 99 -8 103 128 100 47 b 156 -1 125 -7 143 -4 b 174 33 168 1 174 8 z m 204 942 b 94 757 190 942 119 813 b 88 721 83 735 83 726 b 114 697 96 711 106 701 b 254 889 153 757 201 828 b 258 915 265 901 267 908 b 206 942 247 929 219 942 z "},"î":{"ha":275,"x_min":0,"x_max":0,"o":"m 174 526 b 158 611 174 604 168 611 b 97 599 146 611 115 607 b 103 442 100 568 103 526 l 103 208 b 99 -8 103 128 100 47 b 156 -1 125 -7 143 -4 b 174 33 168 1 174 8 z m 43 699 b 56 703 51 699 53 701 b 139 856 89 765 113 807 b 213 713 172 790 196 751 b 231 699 219 701 224 699 b 275 721 253 699 268 713 b 160 939 236 792 196 865 b 128 933 150 939 138 936 b 104 910 115 931 113 926 b 0 718 71 843 35 788 b 42 699 4 708 26 699 z "},"ï":{"ha":275,"x_min":0,"x_max":0,"o":"m 174 526 b 158 611 174 604 168 611 b 97 599 146 611 115 607 b 103 442 100 568 103 526 l 103 208 b 99 -8 103 128 100 47 b 156 -1 125 -7 143 -4 b 174 33 168 1 174 8 z m 39 850 b -14 794 6 850 -14 825 b 36 743 -14 758 10 743 b 88 799 65 743 88 763 b 40 850 88 826 67 850 z m 251 850 b 199 794 218 850 199 826 b 247 743 199 758 224 743 b 300 799 278 743 300 763 b 253 850 300 825 281 850 z "},"ì":{"ha":275,"x_min":0,"x_max":0,"o":"m 174 526 b 158 611 174 604 168 611 b 97 599 146 611 115 607 b 103 442 100 568 103 526 l 103 208 b 99 -8 103 128 100 47 b 156 -1 125 -7 143 -4 b 174 33 168 1 174 8 z m 54 944 b 10 918 40 944 26 935 b 6 890 -3 907 -3 897 b 146 701 57 832 111 754 b 169 721 149 703 158 711 b 172 753 176 728 178 738 b 56 944 147 811 72 943 z "},"ñ":{"ha":694,"x_min":0,"x_max":0,"o":"m 519 7 b 533 -8 519 -3 522 -8 b 597 3 550 -8 569 -3 b 592 156 594 25 592 68 l 592 369 b 393 619 592 524 536 619 b 175 506 311 619 228 565 b 136 618 175 542 169 618 b 86 592 125 618 94 600 l 86 588 b 107 492 99 576 107 550 l 107 251 b 103 -8 107 100 106 19 b 151 -6 117 -7 136 -8 b 178 29 171 -4 178 0 l 178 443 b 371 556 211 492 283 556 b 521 364 465 556 522 496 z m 285 876 b 183 744 215 876 192 796 b 226 732 194 740 210 732 b 238 747 233 732 236 738 b 282 814 247 781 263 814 b 324 783 296 814 306 804 b 401 726 350 751 369 726 b 494 857 456 726 485 779 b 458 878 481 868 469 878 b 443 863 449 878 446 874 b 406 792 433 808 419 792 b 364 829 396 792 381 808 b 286 876 344 854 319 876 z "},"ó":{"ha":688,"x_min":0,"x_max":0,"o":"m 350 619 b 49 294 168 619 49 472 b 344 -17 49 161 119 -17 b 639 306 528 -17 639 129 b 351 619 639 485 540 619 z m 342 567 b 560 301 492 567 560 438 b 353 36 560 92 433 36 b 128 307 231 36 128 129 b 340 567 128 486 240 567 z m 401 942 b 292 757 388 942 317 813 b 285 721 281 735 281 726 b 311 697 293 711 303 701 b 451 889 350 757 399 828 b 456 915 463 901 464 908 b 403 942 444 929 417 942 z "},"ô":{"ha":688,"x_min":0,"x_max":0,"o":"m 350 619 b 49 294 168 619 49 472 b 344 -17 49 161 119 -17 b 639 306 528 -17 639 129 b 351 619 639 485 540 619 z m 342 567 b 560 301 492 567 560 438 b 353 36 560 92 433 36 b 128 307 231 36 128 129 b 340 567 128 486 240 567 z m 261 699 b 274 703 269 699 271 701 b 357 856 307 765 331 807 b 431 713 390 790 414 751 b 449 699 438 701 442 699 b 493 721 471 699 486 713 b 378 939 454 792 414 865 b 346 933 368 939 356 936 b 322 910 333 931 331 926 b 218 718 289 843 253 788 b 260 699 222 708 244 699 z "},"ö":{"ha":688,"x_min":0,"x_max":0,"o":"m 350 619 b 49 294 168 619 49 472 b 344 -17 49 161 119 -17 b 639 306 528 -17 639 129 b 351 619 639 485 540 619 z m 342 567 b 560 301 492 567 560 438 b 353 36 560 92 433 36 b 128 307 231 36 128 129 b 340 567 128 486 240 567 z m 232 850 b 179 794 199 850 179 825 b 229 743 179 758 203 743 b 281 799 258 743 281 763 b 233 850 281 826 260 850 z m 444 850 b 392 794 411 850 392 826 b 440 743 392 758 417 743 b 493 799 471 743 493 763 b 446 850 493 825 474 850 z "},"ò":{"ha":688,"x_min":0,"x_max":0,"o":"m 350 619 b 49 294 168 619 49 472 b 344 -17 49 161 119 -17 b 639 306 528 -17 639 129 b 351 619 639 485 540 619 z m 342 567 b 560 301 492 567 560 438 b 353 36 560 92 433 36 b 128 307 231 36 128 129 b 340 567 128 486 240 567 z m 265 944 b 221 918 251 944 238 935 b 217 890 208 907 208 897 b 357 701 268 832 322 754 b 381 721 360 703 369 711 b 383 753 388 728 389 738 b 267 944 358 811 283 943 z "},"õ":{"ha":688,"x_min":0,"x_max":0,"o":"m 350 619 b 49 294 168 619 49 472 b 344 -17 49 161 119 -17 b 639 306 528 -17 639 129 b 351 619 639 485 540 619 z m 342 567 b 560 301 492 567 560 438 b 353 36 560 92 433 36 b 128 307 231 36 128 129 b 340 567 128 486 240 567 z m 281 876 b 179 744 211 876 188 796 b 222 732 190 740 206 732 b 233 747 229 732 232 738 b 278 814 243 781 258 814 b 319 783 292 814 301 804 b 397 726 346 751 365 726 b 490 857 451 726 481 779 b 454 878 476 868 465 878 b 439 863 444 878 442 874 b 401 792 429 808 415 792 b 360 829 392 792 376 808 b 282 876 340 854 315 876 z "},"š":{"ha":450,"x_min":0,"x_max":0,"o":"m 253 619 b 60 450 151 619 60 551 b 158 301 60 379 100 333 b 263 250 190 285 224 271 b 343 147 318 222 343 190 b 214 42 343 88 300 42 b 72 88 165 42 113 58 b 49 68 58 89 53 79 b 50 36 44 60 44 46 b 208 -17 74 10 129 -17 b 415 164 306 -17 415 36 b 332 294 415 214 388 261 b 197 364 283 322 243 339 b 131 463 163 382 131 413 b 246 563 131 524 182 563 b 353 532 279 563 322 550 b 385 572 372 533 386 558 b 254 619 361 603 303 619 z m 317 939 b 303 932 308 939 307 935 b 222 779 285 896 247 829 b 146 925 188 844 164 888 b 128 939 140 936 135 939 b 83 918 106 939 90 925 b 199 699 122 844 163 772 b 231 704 208 699 221 701 b 254 726 242 707 244 711 b 358 919 286 794 324 850 b 318 939 354 931 331 939 z "},"ú":{"ha":690,"x_min":0,"x_max":0,"o":"m 103 207 b 300 -17 103 71 168 -17 b 390 1 332 -17 361 -11 b 514 90 419 14 471 39 b 590 -17 515 24 547 -17 b 636 26 615 -17 635 14 l 636 32 b 579 131 594 38 579 53 l 579 364 b 583 611 579 483 583 581 b 525 603 568 611 542 607 b 508 563 513 599 508 592 l 508 147 b 331 50 485 108 414 50 b 174 250 260 50 174 68 b 172 526 174 335 174 435 b 158 611 172 604 167 611 b 97 599 144 611 115 607 b 103 442 100 568 103 526 z m 406 942 b 296 757 392 942 321 813 b 289 721 285 735 285 726 b 315 697 297 711 307 701 b 456 889 354 757 403 828 b 460 915 467 901 468 908 b 407 942 449 929 421 942 z "},"û":{"ha":690,"x_min":0,"x_max":0,"o":"m 103 207 b 300 -17 103 71 168 -17 b 390 1 332 -17 361 -11 b 514 90 419 14 471 39 b 590 -17 515 24 547 -17 b 636 26 615 -17 635 14 l 636 32 b 579 131 594 38 579 53 l 579 364 b 583 611 579 483 583 581 b 525 603 568 611 542 607 b 508 563 513 599 508 592 l 508 147 b 331 50 485 108 414 50 b 174 250 260 50 174 68 b 172 526 174 335 174 435 b 158 611 172 604 167 611 b 97 599 144 611 115 607 b 103 442 100 568 103 526 z m 247 699 b 260 703 256 699 257 701 b 343 856 293 765 317 807 b 417 713 376 790 400 751 b 435 699 424 701 428 699 b 479 721 457 699 472 713 b 364 939 440 792 400 865 b 332 933 354 939 342 936 b 308 910 319 931 317 926 b 204 718 275 843 239 788 b 246 699 208 708 231 699 z "},"ü":{"ha":690,"x_min":0,"x_max":0,"o":"m 103 207 b 300 -17 103 71 168 -17 b 390 1 332 -17 361 -11 b 514 90 419 14 471 39 b 590 -17 515 24 547 -17 b 636 26 615 -17 635 14 l 636 32 b 579 131 594 38 579 53 l 579 364 b 583 611 579 483 583 581 b 525 603 568 611 542 607 b 508 563 513 599 508 592 l 508 147 b 331 50 485 108 414 50 b 174 250 260 50 174 68 b 172 526 174 335 174 435 b 158 611 172 604 167 611 b 97 599 144 611 115 607 b 103 442 100 568 103 526 z m 232 850 b 179 794 199 850 179 825 b 229 743 179 758 203 743 b 281 799 258 743 281 763 b 233 850 281 826 260 850 z m 444 850 b 392 794 411 850 392 826 b 440 743 392 758 417 743 b 493 799 471 743 493 763 b 446 850 493 825 474 850 z "},"ù":{"ha":690,"x_min":0,"x_max":0,"o":"m 103 207 b 300 -17 103 71 168 -17 b 390 1 332 -17 361 -11 b 514 90 419 14 471 39 b 590 -17 515 24 547 -17 b 636 26 615 -17 635 14 l 636 32 b 579 131 594 38 579 53 l 579 364 b 583 611 579 483 583 581 b 525 603 568 611 542 607 b 508 563 513 599 508 592 l 508 147 b 331 50 485 108 414 50 b 174 250 260 50 174 68 b 172 526 174 335 174 435 b 158 611 172 604 167 611 b 97 599 144 611 115 607 b 103 442 100 568 103 526 z m 260 944 b 215 918 246 944 232 935 b 211 890 203 907 203 897 b 351 701 263 832 317 754 b 375 721 354 703 364 711 b 378 753 382 728 383 738 b 261 944 353 811 278 943 z "},"ý":{"ha":564,"x_min":0,"x_max":0,"o":"m 63 -285 b 117 -304 74 -296 99 -304 b 378 133 138 -304 285 -79 b 536 567 454 308 504 468 b 532 610 544 592 542 601 b 482 619 524 617 499 621 b 297 104 450 492 357 228 b 108 606 258 199 143 528 b 88 619 104 615 99 619 b 31 593 74 619 44 604 b 228 93 101 442 213 136 b 258 29 239 67 251 38 b 63 -282 192 -104 113 -217 z m 361 942 b 251 757 347 942 276 813 b 244 721 240 735 240 726 b 271 697 253 711 263 701 b 411 889 310 757 358 828 b 415 915 422 901 424 908 b 363 942 404 929 376 942 z "},"ÿ":{"ha":564,"x_min":0,"x_max":0,"o":"m 63 -285 b 117 -304 74 -296 99 -304 b 378 133 138 -304 285 -79 b 536 567 454 308 504 468 b 532 610 544 592 542 601 b 482 619 524 617 499 621 b 297 104 450 492 357 228 b 108 606 258 199 143 528 b 88 619 104 615 99 619 b 31 593 74 619 44 604 b 228 93 101 442 213 136 b 258 29 239 67 251 38 b 63 -282 192 -104 113 -217 z m 192 850 b 139 794 158 850 139 825 b 189 743 139 758 163 743 b 240 799 218 743 240 763 b 193 850 240 826 219 850 z m 404 850 b 351 794 371 850 351 826 b 400 743 351 758 376 743 b 453 799 431 743 453 763 b 406 850 453 825 433 850 z "},"ž":{"ha":510,"x_min":0,"x_max":0,"o":"m 43 7 b 297 -4 78 -1 172 -4 b 475 11 396 -4 454 -3 b 503 58 490 24 500 42 b 131 57 471 51 247 47 b 442 526 258 244 413 471 b 464 603 456 553 461 576 l 201 603 b 75 613 111 603 92 604 b 42 564 67 606 42 579 b 125 547 42 553 72 547 b 378 547 193 547 325 547 b 26 28 292 396 78 94 z m 353 939 b 339 932 344 939 343 935 b 258 779 321 896 283 829 b 182 925 224 844 200 888 b 164 939 176 936 171 939 b 119 918 142 939 126 925 b 235 699 158 844 199 772 b 267 704 244 699 257 701 b 290 726 278 707 281 711 b 394 919 322 794 360 850 b 354 939 390 931 367 939 z "},"":{"ha":240,"x_min":0,"x_max":0,"o":"m 158 697 b 88 658 144 697 89 675 b 100 206 86 635 99 342 b 139 215 111 206 126 211 b 151 247 144 218 151 226 b 174 678 153 301 174 661 b 160 697 174 693 168 697 z m 125 97 b 68 38 97 97 68 76 b 122 -18 68 4 97 -18 b 179 39 149 -18 179 -1 b 126 97 179 67 158 97 z "},"":{"ha":556,"x_min":0,"x_max":0,"o":"m 178 713 b 283 900 204 768 247 847 b 283 926 292 911 290 918 b 239 956 274 939 256 956 b 147 767 224 956 174 843 b 144 733 143 751 142 740 b 178 713 151 728 167 713 z m 354 713 b 463 903 381 768 426 847 b 461 926 469 914 468 918 b 415 956 451 939 432 956 b 324 760 396 956 354 843 b 328 729 321 747 322 738 b 354 713 333 724 343 717 z "},"":{"ha":543,"x_min":0,"x_max":0,"o":"m 338 742 b 292 736 319 742 307 740 b 272 707 279 732 275 722 l 264 649 b 90 489 188 640 90 601 b 258 308 90 411 135 363 b 389 178 343 272 390 233 b 251 75 388 106 331 75 b 94 126 201 75 151 93 b 68 124 85 132 74 131 b 50 89 60 115 51 104 b 221 21 94 51 169 25 l 207 -86 b 256 -85 228 -87 243 -87 b 274 -58 267 -82 272 -74 l 282 22 b 460 192 365 31 460 75 b 286 371 460 296 357 339 b 160 501 199 411 160 439 b 286 597 160 557 210 597 b 394 569 326 597 369 583 b 433 572 411 561 424 563 b 446 600 440 578 444 592 b 324 650 436 613 382 646 z "},"":{"ha":386,"x_min":0,"x_max":0,"o":"m 253 1101 b 219 1096 239 1100 228 1099 b 200 1076 208 1093 203 1086 l 194 1044 b 74 928 142 1036 74 1006 b 186 801 74 867 113 832 b 283 713 250 775 283 750 b 197 647 283 668 243 647 b 85 681 158 647 125 657 b 60 675 78 685 69 686 b 47 647 53 667 47 656 b 167 600 86 617 133 603 l 156 526 b 196 531 169 526 182 528 b 215 553 208 533 213 540 l 221 603 b 340 721 267 606 340 640 b 213 854 340 794 285 821 b 129 936 153 881 129 900 b 214 1004 129 982 168 1004 b 301 978 239 1004 268 999 b 322 988 307 974 317 979 b 329 1008 326 993 328 1000 b 243 1043 318 1019 281 1042 z "},"":{"ha":779,"x_min":0,"x_max":0,"o":"m 708 11 b 538 176 700 24 653 65 b 715 447 619 315 674 399 l 715 453 b 674 482 707 467 692 482 b 629 439 658 482 646 465 b 500 214 589 375 550 297 b 311 383 471 239 381 322 b 457 564 374 428 457 472 b 296 714 457 660 388 714 b 128 544 229 714 128 664 b 213 382 128 488 156 438 b 56 172 135 326 56 275 b 263 -17 56 57 144 -17 b 497 118 318 -17 408 -1 b 610 8 539 81 590 26 b 650 -19 629 -11 640 -19 b 708 6 669 -19 699 -7 z m 294 664 b 390 561 351 664 390 622 b 278 417 390 500 335 456 b 194 551 217 469 194 515 b 293 664 194 621 235 664 z m 282 42 b 132 179 199 42 132 99 b 246 347 132 247 178 297 b 461 153 285 313 392 221 b 283 42 410 81 346 42 z "},"":{"ha":556,"x_min":0,"x_max":0,"o":"m 419 932 b 258 781 404 935 301 828 b 242 746 243 763 238 754 b 261 717 249 735 254 725 b 454 865 317 764 385 819 b 467 890 468 874 471 881 b 419 932 458 904 432 929 z "},"⁽":{"ha":300,"x_min":0,"x_max":0,"o":"m 49 835 b 217 474 49 643 156 511 b 254 500 229 468 246 485 b 107 850 154 589 107 718 b 254 1199 107 975 150 1104 b 219 1229 257 1215 240 1229 b 49 836 124 1150 49 1010 z "},"⁾":{"ha":304,"x_min":0,"x_max":0,"o":"m 256 868 b 89 1229 256 1060 149 1192 b 50 1203 75 1235 58 1218 b 197 854 157 1108 197 974 b 50 504 197 721 150 594 b 86 474 47 488 65 474 b 256 867 182 553 256 693 z "},"‥":{"ha":694,"x_min":0,"x_max":0,"o":"m 171 101 b 113 40 133 101 113 74 b 167 -15 113 1 142 -15 b 222 46 201 -15 222 10 b 172 101 222 74 204 101 z m 538 101 b 479 40 500 101 479 74 b 533 -15 479 1 508 -15 b 589 46 567 -15 589 10 b 539 101 589 74 571 101 z "},"․":{"ha":694,"x_min":0,"x_max":0,"o":"m 353 101 b 294 40 315 101 294 74 b 349 -15 294 1 324 -15 b 404 46 383 -15 404 10 b 354 101 404 74 386 101 z "},"":{"ha":733,"x_min":0,"x_max":0,"o":"m 371 619 b 67 300 192 619 67 488 b 365 -17 67 78 214 -17 b 665 301 514 -17 665 79 b 372 619 665 504 529 619 z m 369 565 b 588 303 493 565 588 458 b 368 39 588 163 522 39 b 146 308 225 39 146 160 b 368 565 146 461 232 565 z "},"":{"ha":429,"x_min":0,"x_max":0,"o":"m 310 619 b 74 532 274 596 163 556 l 40 482 l 43 478 b 246 522 89 482 213 508 l 246 200 b 242 -11 246 122 243 46 l 278 -7 b 317 32 306 -3 317 3 l 317 615 z "},"":{"ha":550,"x_min":0,"x_max":0,"o":"m 50 8 b 339 -3 110 -3 222 -3 b 474 6 446 -3 457 0 b 517 56 492 15 513 39 b 154 56 414 54 261 50 b 447 433 294 178 447 282 b 258 619 447 543 374 619 b 49 508 151 619 61 531 b 54 493 50 504 51 499 b 106 492 67 469 81 471 b 249 557 144 526 196 557 b 376 429 313 557 376 521 b 75 57 376 331 286 228 b 46 17 65 43 57 31 z "},"":{"ha":544,"x_min":0,"x_max":0,"o":"m 136 210 b 208 218 158 214 190 218 b 403 68 344 218 403 157 b 204 -108 403 -42 333 -108 b 42 -68 144 -108 81 -87 l 38 -71 b 60 -129 36 -86 44 -118 b 208 -165 83 -149 140 -165 b 483 74 378 -165 483 -61 b 303 264 483 151 433 238 b 426 451 378 306 426 365 b 250 619 426 554 351 619 b 53 529 171 619 90 574 b 64 506 56 519 61 510 b 106 511 74 496 86 496 b 231 560 143 539 189 560 b 351 440 300 560 351 515 b 164 260 351 346 293 278 b 133 214 156 253 139 228 z "},"":{"ha":674,"x_min":0,"x_max":0,"o":"m 488 619 b 393 583 450 611 413 596 b 56 132 343 529 140 272 b 81 97 57 121 68 103 b 426 85 143 89 318 85 b 419 -162 426 13 422 -110 l 424 -164 b 474 -153 439 -162 461 -158 b 496 -122 489 -146 496 -142 b 496 86 496 -47 496 46 b 592 97 539 88 575 90 b 622 143 604 107 617 125 l 621 147 b 496 139 592 143 532 139 b 496 610 496 306 496 592 z m 428 139 b 135 151 289 139 167 146 b 433 556 286 386 403 522 b 428 139 433 481 428 211 z "},"":{"ha":538,"x_min":0,"x_max":0,"o":"m 79 264 b 242 226 107 257 164 251 b 394 63 329 199 394 157 b 197 -112 394 -39 322 -112 b 38 -74 131 -112 61 -87 l 36 -76 b 63 -133 36 -96 53 -126 b 197 -165 82 -146 129 -165 b 468 69 350 -165 468 -72 b 290 279 468 186 397 243 b 138 315 229 299 160 310 b 179 539 149 408 168 499 b 426 571 368 546 404 551 b 450 614 440 585 446 603 l 447 619 b 132 603 390 610 185 603 b 71 278 117 543 81 363 z "},"":{"ha":660,"x_min":0,"x_max":0,"o":"m 240 389 b 356 415 257 396 296 415 b 515 240 433 415 515 363 b 340 36 515 74 408 36 b 149 292 268 36 149 82 b 588 731 149 621 440 731 b 608 731 596 731 600 731 l 610 733 b 588 772 608 753 594 769 b 553 776 578 775 568 776 b 206 625 447 776 304 724 b 69 292 108 528 69 403 b 331 -17 69 131 147 -17 b 592 247 469 -17 592 75 b 379 474 592 363 517 474 b 272 449 333 474 297 461 b 235 396 251 438 239 414 z "},"":{"ha":622,"x_min":0,"x_max":0,"o":"m 554 603 b 229 601 475 601 322 601 b 103 611 147 601 124 603 b 58 557 85 597 58 568 b 131 540 60 546 74 540 b 486 543 239 540 404 542 b 86 -149 429 335 232 -6 b 125 -165 93 -160 111 -165 b 174 -140 139 -165 154 -158 b 560 597 267 -51 528 361 z "},"":{"ha":629,"x_min":0,"x_max":0,"o":"m 325 776 b 106 578 203 776 106 699 b 244 392 106 507 157 438 b 71 179 158 342 71 282 b 308 -17 71 85 140 -17 b 560 185 436 -17 560 51 b 381 394 560 269 511 326 b 528 593 451 439 528 494 b 326 776 528 693 447 776 z m 321 725 b 457 590 392 725 457 674 b 338 419 457 521 415 469 b 179 589 242 465 179 513 b 319 725 179 669 243 725 z m 318 36 b 151 183 217 36 151 103 b 288 368 151 249 188 306 b 481 178 449 292 481 239 b 319 36 481 83 408 36 z "},"":{"ha":642,"x_min":0,"x_max":0,"o":"m 60 -125 b 125 -165 71 -149 99 -165 b 393 -54 151 -165 274 -150 b 575 322 518 44 575 176 b 321 619 575 478 496 619 b 67 365 172 619 67 507 b 292 140 67 231 150 140 b 372 154 321 140 353 146 b 417 219 389 161 415 174 b 315 196 388 206 353 196 b 144 371 199 196 144 281 b 314 568 144 483 215 568 b 496 322 444 568 496 443 b 61 -122 496 22 256 -110 z "},"":{"ha":156,"x_min":0,"x_max":0,"o":"m 106 731 b 63 708 93 731 72 717 b 68 668 67 696 68 683 b 4 500 68 618 44 550 b 51 510 24 499 43 504 b 132 671 83 531 132 617 b 107 731 132 700 126 731 z "},"":{"ha":871,"x_min":0,"x_max":0,"o":"m 106 369 b 65 329 88 369 69 358 l 63 306 l 774 306 b 804 344 788 306 797 311 l 808 369 z "},"":{"ha":156,"x_min":0,"x_max":0,"o":"m 79 683 b 35 635 51 683 35 661 b 76 588 35 601 58 588 b 121 635 101 588 121 607 b 81 683 121 660 107 683 z "},"":{"ha":392,"x_min":0,"x_max":0,"o":"m 204 683 b 61 628 153 683 93 657 b 68 601 61 614 61 613 b 96 594 75 590 83 588 b 200 625 133 618 165 625 b 278 547 243 625 278 594 b 207 418 278 506 260 474 b 135 290 153 360 135 325 b 185 201 135 236 175 201 b 222 219 199 201 213 211 b 200 285 211 233 200 260 b 261 385 200 311 219 340 b 354 550 319 443 354 486 b 206 683 354 638 289 683 z m 192 97 b 135 38 164 97 135 78 b 190 -18 135 4 164 -18 b 249 39 214 -18 249 -3 b 193 97 249 67 226 97 z "},"":{"ha":407,"x_min":0,"x_max":0,"o":"m 390 435 b 360 431 379 432 375 431 b 331 474 344 431 331 443 b 332 654 331 503 332 613 b 201 794 332 722 308 794 b 50 721 133 794 65 749 l 57 707 b 83 696 63 692 74 688 b 188 743 111 719 147 743 b 268 650 243 743 268 711 l 268 626 b 219 617 251 624 238 621 b 42 479 182 608 42 581 b 154 382 42 426 82 381 b 272 435 217 383 247 407 b 342 385 281 404 306 385 b 389 417 364 386 382 394 z m 110 490 b 268 583 110 560 222 576 l 268 522 b 263 488 268 507 265 497 b 175 432 251 456 213 432 b 110 489 140 432 110 454 z "},"":{"ha":492,"x_min":0,"x_max":0,"o":"m 74 424 b 92 406 74 414 81 411 b 204 382 111 396 163 382 b 335 414 240 382 286 386 b 444 601 379 440 444 497 b 265 794 444 747 336 794 b 138 756 213 794 175 779 l 139 947 b 119 1006 139 1001 135 1006 b 68 996 113 1006 86 1001 b 74 893 72 978 74 951 z m 138 708 b 244 740 150 718 183 740 b 374 600 318 740 374 693 b 224 432 374 468 278 432 b 138 446 185 432 161 436 z "},"":{"ha":386,"x_min":0,"x_max":0,"o":"m 258 1068 l 244 1068 b 211 1046 221 1065 213 1060 l 206 1001 b 47 821 149 992 47 946 b 179 657 47 703 138 665 l 165 572 l 193 575 b 214 596 207 576 213 582 l 222 653 b 303 668 261 653 289 661 b 328 717 318 676 325 690 b 242 699 296 704 265 699 b 107 832 172 699 107 735 b 236 960 107 881 136 960 b 300 947 257 960 285 954 b 329 954 310 942 322 944 b 338 974 335 960 338 967 b 250 1004 325 988 296 1001 z "},"":{"ha":510,"x_min":0,"x_max":0,"o":"m 353 779 b 275 794 342 785 318 794 b 143 757 221 794 183 783 b 46 576 88 721 46 658 b 221 382 46 442 146 382 b 358 433 276 382 317 397 b 435 383 364 418 389 383 b 475 421 444 383 468 392 l 475 429 b 417 482 429 433 417 454 l 417 947 b 403 1006 417 994 415 1006 b 351 997 388 1006 371 1001 b 353 915 350 979 353 958 z m 353 478 b 250 436 331 457 294 436 b 117 583 179 436 117 486 b 267 746 117 692 190 746 b 353 728 306 746 339 738 z "},"":{"ha":422,"x_min":0,"x_max":0,"o":"m 364 458 b 258 435 340 447 293 435 b 107 585 164 435 107 488 b 300 589 126 585 276 586 b 385 618 328 592 379 601 b 388 649 386 629 388 639 b 232 794 385 728 328 794 b 42 585 106 794 42 692 b 242 382 42 456 114 382 b 333 404 282 382 318 394 b 367 456 351 414 364 432 z m 225 747 b 321 653 281 747 324 710 b 293 633 321 642 314 633 b 111 631 267 632 201 629 b 224 747 122 700 163 747 z "},"":{"ha":210,"x_min":0,"x_max":0,"o":"m 106 992 b 69 954 88 992 69 978 b 106 917 69 933 82 917 b 143 953 133 917 143 939 b 107 992 143 975 129 992 z m 138 733 b 124 793 138 789 133 793 b 68 782 111 793 85 788 b 74 678 69 760 74 733 l 74 526 b 71 383 74 474 72 421 b 114 389 74 383 85 385 b 138 410 129 392 138 397 z "},"":{"ha":210,"x_min":0,"x_max":0,"o":"m 138 947 b 124 1006 138 1001 133 1006 b 69 992 115 1006 85 999 b 74 892 72 974 74 947 l 74 526 b 71 383 74 474 72 421 b 118 389 79 383 92 385 b 138 410 135 392 138 397 z "},"":{"ha":751,"x_min":0,"x_max":0,"o":"m 142 664 b 260 740 161 699 207 740 b 351 622 315 740 351 711 l 351 535 b 351 385 351 468 351 424 b 396 388 368 385 381 386 b 415 413 414 389 415 399 l 415 668 b 532 740 439 703 479 740 b 624 622 589 740 624 711 l 624 396 b 635 385 628 385 625 388 b 692 392 650 385 664 388 b 688 497 689 410 688 453 l 688 636 b 553 794 688 728 646 794 b 403 717 492 794 443 761 b 281 794 382 768 342 794 b 139 719 228 794 169 763 b 92 794 136 775 114 794 b 54 763 79 794 60 776 l 54 758 b 78 707 65 754 78 743 l 78 556 b 76 385 78 457 76 404 b 119 386 92 385 81 386 b 142 413 133 388 142 393 z "},"ⁿ":{"ha":492,"x_min":0,"x_max":0,"o":"m 356 396 b 367 385 360 385 357 388 b 425 392 382 385 399 388 b 419 497 422 410 419 453 l 419 636 b 281 794 419 728 378 794 b 138 722 225 794 171 767 b 89 794 135 774 110 794 b 51 764 75 794 58 776 l 51 761 b 76 708 65 756 76 743 l 76 557 b 75 385 76 458 75 404 b 119 386 90 385 92 386 b 140 410 133 388 140 390 l 140 665 b 261 740 160 701 204 740 b 356 622 319 740 356 708 z "},"":{"ha":475,"x_min":0,"x_max":0,"o":"m 238 794 b 35 582 122 794 35 706 b 239 382 35 500 86 382 b 440 592 360 382 440 471 b 239 794 440 713 365 794 z m 235 744 b 369 594 322 744 369 679 b 240 432 369 478 304 432 b 106 589 179 432 106 475 b 233 744 106 685 165 744 z "},"":{"ha":325,"x_min":0,"x_max":0,"o":"m 50 761 b 76 700 61 756 76 733 l 76 556 b 74 385 76 457 74 404 b 113 386 89 385 101 386 b 139 413 133 389 139 396 b 139 618 139 433 139 532 b 151 667 139 638 143 651 b 240 739 168 697 201 739 b 265 732 247 739 256 738 b 288 736 272 729 282 731 b 303 772 297 749 303 763 b 250 794 293 785 272 794 b 135 714 207 794 169 767 b 89 794 132 767 107 794 b 50 765 71 794 58 781 z "},"":{"ha":338,"x_min":0,"x_max":0,"o":"m 182 794 b 43 683 100 794 43 744 b 110 586 43 635 71 606 b 189 553 135 574 163 565 b 242 490 233 532 242 515 b 157 429 242 456 214 429 b 71 454 133 429 96 439 b 39 451 58 461 43 460 b 29 426 33 444 29 435 b 154 382 47 407 97 382 b 303 499 239 382 303 429 b 235 597 303 539 290 572 b 150 632 197 614 169 624 b 103 694 119 647 103 661 b 172 750 103 733 139 750 b 247 731 199 750 231 740 b 279 739 260 722 269 726 b 281 763 285 747 285 754 b 183 794 260 781 217 794 z "},"":{"ha":317,"x_min":0,"x_max":0,"o":"m 292 457 b 211 433 278 449 242 433 b 150 489 185 433 156 442 b 149 736 144 532 144 646 b 249 738 190 736 231 736 b 303 786 278 740 294 761 b 150 785 289 786 168 785 b 151 842 150 806 151 829 b 111 824 132 842 124 835 b 33 751 100 813 46 765 b 81 735 33 742 44 736 b 81 493 81 617 81 544 b 188 382 82 428 114 382 b 283 413 229 382 263 393 b 294 456 293 424 294 442 z "},"ﬀ":{"ha":713,"x_min":0,"x_max":0,"o":"m 481 547 b 481 13 481 329 483 158 b 497 -8 481 -4 483 -8 b 553 3 517 -8 546 -4 b 551 547 553 79 550 381 b 711 558 647 547 693 547 b 743 606 729 568 740 589 b 551 603 722 600 604 603 b 701 894 547 829 628 894 b 763 885 732 894 750 890 b 801 925 783 878 804 901 b 714 953 789 938 756 953 b 547 864 658 953 592 926 b 386 925 524 888 479 925 b 203 853 314 925 250 901 b 108 603 138 786 115 704 b 39 564 71 590 51 576 b 108 547 39 549 51 547 b 107 15 108 329 111 163 b 124 -8 107 -4 111 -8 b 181 3 143 -8 172 -4 b 179 547 181 82 178 383 z m 179 603 b 371 871 185 779 256 871 b 517 811 418 871 488 857 b 481 603 492 767 479 668 z "},"ﬃ":{"ha":1022,"x_min":0,"x_max":0,"o":"m 479 546 b 478 15 479 331 481 160 b 494 -8 478 -4 481 -8 b 551 3 514 -8 543 -4 b 550 546 551 82 549 382 b 850 553 774 546 818 546 l 850 208 b 846 -11 850 128 847 47 b 903 -3 885 -10 865 -10 b 921 33 915 0 921 3 l 921 528 b 906 617 921 597 915 617 b 832 603 897 615 864 604 b 550 601 708 597 574 601 b 728 897 550 842 640 897 b 815 876 760 897 790 889 b 853 915 838 864 854 894 b 736 953 833 936 789 953 b 549 864 664 953 596 921 b 382 925 524 888 481 925 b 203 851 315 925 250 900 b 108 601 138 785 115 703 b 39 564 71 589 51 576 b 108 546 39 547 51 546 b 106 15 108 328 110 163 b 124 -8 106 -4 110 -8 b 179 3 143 -8 171 -4 b 179 546 179 82 178 382 z m 179 601 b 375 869 181 772 260 869 b 518 811 424 869 485 857 b 479 601 490 765 479 661 z "},"ﬄ":{"ha":1024,"x_min":0,"x_max":0,"o":"m 479 547 b 479 15 479 332 481 160 b 496 -8 479 -4 482 -8 b 551 3 514 -8 544 -4 b 550 547 551 82 549 383 b 851 556 732 544 821 553 l 851 7 b 868 -11 851 -7 857 -11 b 928 0 882 -11 906 -7 b 922 183 925 40 922 115 l 922 863 b 908 953 922 946 918 953 b 860 926 897 953 872 938 b 744 953 839 938 804 953 b 550 861 668 953 597 922 b 388 925 525 888 474 925 b 203 851 314 925 250 900 b 108 603 138 785 115 700 b 39 565 71 592 50 578 b 108 547 39 551 51 546 b 108 15 108 329 110 163 b 126 -8 108 -4 113 -8 b 182 3 144 -8 174 -4 b 179 547 182 82 178 383 z m 851 604 b 550 603 818 599 576 603 b 736 901 553 793 611 901 b 844 863 779 901 817 892 b 851 833 851 856 851 849 z m 179 603 b 372 871 181 768 257 871 b 518 810 440 871 489 850 b 479 603 497 769 478 672 z "},"₍":{"ha":300,"x_min":0,"x_max":0,"o":"m 49 68 b 217 -293 49 -124 156 -256 b 254 -267 229 -299 246 -282 b 107 83 154 -178 107 -49 b 254 432 107 208 150 338 b 219 463 257 449 240 463 b 49 69 124 383 49 243 z "},"₎":{"ha":304,"x_min":0,"x_max":0,"o":"m 256 101 b 89 463 256 293 149 425 b 50 436 75 468 58 451 b 197 88 157 342 197 207 b 50 -262 197 -46 150 -172 b 86 -293 47 -279 65 -293 b 256 100 182 -214 256 -74 z "},"":{"ha":556,"x_min":0,"x_max":0,"o":"m 183 714 b 197 718 190 714 193 717 b 279 854 229 771 253 810 b 354 725 313 796 336 757 b 371 714 360 717 364 714 b 415 735 394 714 408 726 b 299 931 378 799 336 864 b 267 926 290 931 278 928 b 244 906 256 924 253 918 b 140 732 211 844 175 793 b 182 714 144 722 167 714 z "},"":{"ha":269,"x_min":0,"x_max":0,"o":"m 244 860 b 53 808 203 842 108 821 b 25 750 43 796 31 769 l 28 747 b 206 797 93 763 156 776 b 247 857 226 806 242 836 z "},"":{"ha":556,"x_min":0,"x_max":0,"o":"m 136 932 b 96 894 125 931 114 918 b 101 865 89 879 92 872 b 290 717 168 822 242 758 b 308 742 294 718 299 725 b 303 774 315 749 314 760 b 136 932 264 825 154 936 z "},"":{"ha":665,"x_min":0,"x_max":0,"o":"m 472 214 b 556 25 515 115 533 74 b 589 -6 565 0 576 -6 b 647 6 597 -6 631 -3 l 647 10 b 556 206 633 36 599 110 b 376 625 511 303 419 522 b 347 661 364 656 357 661 b 294 649 335 661 310 656 l 308 614 b 18 7 282 554 92 150 l 19 3 b 74 -6 26 -1 53 -6 b 93 10 79 -6 88 -3 b 190 214 107 38 142 114 z m 215 269 b 335 542 258 365 288 438 b 450 269 351 506 396 399 z "},"":{"ha":574,"x_min":0,"x_max":0,"o":"m 104 8 b 256 -8 143 -1 196 -8 b 524 197 397 -8 524 57 b 397 351 524 264 483 325 b 472 489 440 382 472 425 b 260 661 472 550 447 661 b 103 644 193 661 131 651 b 104 507 104 590 104 558 z m 175 601 b 244 608 186 604 214 608 b 397 481 354 608 397 547 b 343 367 397 413 369 382 b 175 365 276 375 211 369 z m 175 313 b 250 318 192 315 218 318 b 446 188 385 318 446 274 b 269 44 446 86 350 44 b 175 54 229 44 194 49 z "},"":{"ha":644,"x_min":0,"x_max":0,"o":"m 599 71 b 442 43 572 61 511 43 b 131 335 233 43 131 158 b 399 613 131 519 275 613 b 563 578 479 613 531 596 b 599 578 576 569 588 568 b 615 611 606 585 608 593 b 418 669 594 633 515 669 b 51 317 207 669 51 536 b 413 -17 51 122 185 -17 b 569 11 513 -17 550 0 b 600 67 592 29 597 53 z "},"":{"ha":738,"x_min":0,"x_max":0,"o":"m 104 17 b 300 -8 185 -1 236 -8 b 688 338 515 -8 688 106 b 300 661 688 463 628 661 b 100 642 239 661 132 650 b 104 518 101 610 104 590 z m 175 597 b 283 607 201 600 244 607 b 608 331 514 607 608 490 b 297 46 608 121 464 46 b 175 60 247 46 208 51 z "},"":{"ha":528,"x_min":0,"x_max":0,"o":"m 104 24 l 119 4 b 329 -6 144 0 219 -6 b 451 3 390 -6 431 -4 b 489 51 471 15 486 35 l 489 54 b 318 50 439 51 376 50 b 175 60 268 50 193 54 l 175 308 l 376 308 b 447 363 413 308 436 317 l 175 363 l 175 599 l 325 599 b 429 604 372 599 413 599 b 461 654 446 611 457 624 b 158 654 364 654 240 654 b 100 639 140 651 113 643 b 104 507 104 592 104 557 z "},"":{"ha":508,"x_min":0,"x_max":0,"o":"m 103 14 b 126 -6 103 -1 111 -6 b 178 3 139 -6 161 -3 b 174 286 176 53 174 133 l 379 286 b 442 342 414 286 433 292 l 174 342 l 174 599 l 356 599 b 450 608 404 599 436 600 b 478 654 467 617 475 633 b 161 654 397 654 232 654 b 100 638 138 651 113 643 b 103 529 101 596 103 572 z "},"":{"ha":718,"x_min":0,"x_max":0,"o":"m 567 65 b 439 38 532 44 475 38 b 129 328 289 38 129 119 b 410 614 129 494 249 614 b 588 565 474 614 526 601 b 619 563 601 557 611 558 b 638 600 624 565 638 582 b 406 669 606 628 533 669 b 50 321 204 669 50 524 b 410 -17 50 79 226 -17 b 553 4 463 -17 517 -10 b 638 49 583 17 613 29 l 638 279 b 618 308 638 300 631 308 b 561 299 600 308 574 304 b 567 210 567 261 567 231 z "},"":{"ha":742,"x_min":0,"x_max":0,"o":"m 175 365 l 175 601 b 160 661 175 651 174 661 b 101 653 142 661 119 657 b 104 517 104 629 104 586 l 104 186 b 101 -6 104 99 104 36 b 144 -3 110 -6 129 -4 b 175 28 167 0 175 4 l 175 311 l 400 311 b 565 318 517 311 553 315 l 565 15 b 583 -6 565 -3 575 -6 b 640 3 599 -6 624 -3 b 636 132 639 26 636 60 l 636 469 b 640 661 636 557 638 617 b 590 658 628 661 607 661 b 565 628 574 656 565 651 l 565 365 z "},"":{"ha":281,"x_min":0,"x_max":0,"o":"m 104 15 b 125 -6 104 -3 113 -6 b 179 3 140 -6 165 -3 b 175 132 178 26 175 60 l 175 603 b 157 661 175 651 171 661 b 103 653 142 661 118 657 b 104 517 103 631 104 588 z "},"":{"ha":279,"x_min":0,"x_max":0,"o":"m 104 151 b -29 -118 104 -33 68 -97 l -32 -122 b 8 -154 -24 -143 -4 -154 b 111 -104 43 -154 79 -137 b 175 165 158 -54 175 18 l 175 600 b 154 661 175 651 169 661 b 101 653 138 661 114 656 b 104 515 103 628 104 585 z "},"":{"ha":607,"x_min":0,"x_max":0,"o":"m 104 14 b 122 -6 104 -3 113 -6 b 179 3 138 -6 163 -3 b 175 131 178 24 175 58 l 175 325 b 494 11 185 315 426 76 b 533 -7 508 -1 521 -7 b 596 6 549 -7 575 -3 l 596 10 b 254 340 521 81 332 260 b 568 624 376 449 494 561 b 568 656 588 640 586 650 b 525 663 553 660 542 661 b 175 335 456 600 301 450 l 175 601 b 156 661 175 653 169 661 b 103 653 142 661 115 657 b 104 514 103 632 104 583 z "},"":{"ha":501,"x_min":0,"x_max":0,"o":"m 104 24 l 119 3 b 306 -6 143 -1 213 -6 b 432 1 385 -6 418 -4 b 476 49 456 13 474 38 l 475 53 b 332 50 440 50 371 50 b 175 58 260 50 199 54 l 175 601 b 158 661 175 650 171 661 b 99 653 143 661 114 656 b 104 517 101 628 104 586 z "},"":{"ha":947,"x_min":0,"x_max":0,"o":"m 697 619 b 468 131 654 529 560 328 l 257 625 b 228 661 246 653 238 661 b 178 646 213 661 189 654 l 186 619 b 67 6 142 397 86 118 b 114 -6 90 -4 101 -6 b 133 11 126 -6 132 -1 b 224 544 150 125 214 454 b 442 4 299 367 414 76 b 482 21 450 4 468 11 b 715 538 574 221 672 443 l 763 215 b 793 21 775 133 782 76 b 821 -6 797 -1 804 -6 b 872 6 833 -6 864 0 b 828 244 861 56 844 132 l 765 629 b 749 661 761 654 757 661 b 696 644 736 661 715 656 z "},"":{"ha":775,"x_min":0,"x_max":0,"o":"m 104 186 b 101 -6 104 99 104 39 b 142 -1 111 -6 122 -6 b 169 28 163 1 169 4 l 169 301 b 164 535 169 356 169 415 b 283 385 208 482 247 429 b 592 22 406 238 526 100 b 629 -6 608 1 618 -6 b 671 7 639 -6 656 -1 l 671 469 b 674 661 671 557 672 617 b 625 657 653 661 657 661 b 606 628 610 654 606 651 l 606 289 b 608 111 606 221 604 175 b 465 282 572 153 518 222 b 157 642 326 439 193 604 b 129 661 144 654 138 661 b 67 651 118 661 83 656 l 67 646 l 104 599 z "},"":{"ha":774,"x_min":0,"x_max":0,"o":"m 392 669 b 50 318 188 669 50 517 b 385 -17 50 167 132 -17 b 722 333 608 -17 722 138 b 393 669 722 531 592 669 z m 379 615 b 643 328 547 615 643 497 b 390 38 643 129 538 38 b 129 322 253 38 129 138 b 378 615 129 496 229 615 z "},"":{"ha":557,"x_min":0,"x_max":0,"o":"m 104 14 b 129 -6 104 -3 113 -6 b 176 1 153 -6 165 -3 b 175 131 178 25 175 58 l 175 599 b 247 604 186 601 221 604 b 432 447 340 604 432 565 b 271 300 432 325 331 300 b 229 303 257 300 236 303 b 242 267 228 293 233 275 b 304 251 254 254 274 251 b 510 453 371 251 510 299 b 257 661 510 597 406 661 b 100 646 188 661 121 650 b 104 506 104 611 104 558 z "},"":{"ha":774,"x_min":0,"x_max":0,"o":"m 383 669 b 50 324 185 669 50 517 b 349 -18 50 119 168 3 b 539 -111 425 -26 453 -47 b 725 -203 611 -164 675 -203 b 801 -167 754 -203 788 -194 l 801 -161 b 597 -64 735 -156 688 -128 b 496 -1 560 -37 524 -11 b 722 333 633 39 722 158 b 385 669 722 539 583 669 z m 376 615 b 643 328 544 615 643 499 b 392 38 643 128 533 38 b 129 321 254 38 129 139 b 375 615 129 493 226 615 z "},"":{"ha":603,"x_min":0,"x_max":0,"o":"m 175 278 b 342 211 278 278 301 268 b 467 36 404 121 431 81 b 539 -7 490 6 515 -7 b 592 6 558 -7 582 -4 l 592 8 b 453 176 564 31 531 64 b 354 299 407 244 375 285 b 486 474 400 319 486 363 b 254 663 486 615 376 663 b 103 650 192 663 142 654 b 104 532 104 611 104 583 l 104 185 b 101 -6 104 99 104 39 b 156 -1 133 -4 117 -7 b 175 29 169 1 175 6 z m 175 603 b 247 608 192 606 217 608 b 407 469 318 608 407 568 b 307 335 407 378 343 343 b 175 332 286 331 229 331 z "},"":{"ha":483,"x_min":0,"x_max":0,"o":"m 254 669 b 58 500 103 669 58 564 b 213 303 58 404 111 365 b 353 149 322 238 353 208 b 215 40 353 82 308 40 b 57 94 164 40 103 61 b 43 60 49 86 43 75 b 61 25 43 42 50 33 b 215 -17 86 8 140 -17 b 429 163 313 -17 429 31 b 289 346 429 246 383 293 b 129 508 186 404 129 440 b 251 613 129 579 183 613 b 356 585 299 613 339 592 b 385 589 368 578 376 579 b 399 621 393 597 396 610 b 256 669 365 651 308 669 z "},"":{"ha":617,"x_min":0,"x_max":0,"o":"m 269 11 b 286 -6 269 0 275 -6 b 346 3 306 -6 333 0 b 342 129 344 21 342 56 l 342 597 l 549 597 b 582 654 565 604 581 635 l 232 654 b 78 660 126 654 97 656 b 43 622 65 650 53 640 b 60 597 33 607 42 597 l 269 597 z "},"":{"ha":753,"x_min":0,"x_max":0,"o":"m 171 600 b 153 660 171 650 167 660 b 97 653 139 660 113 657 b 100 515 99 628 100 586 l 100 299 b 372 -17 100 68 221 -17 b 656 328 506 -17 656 33 l 656 468 b 661 660 656 556 657 617 b 611 656 643 660 624 657 b 589 628 597 654 589 651 l 589 340 b 383 40 589 96 507 40 b 171 335 289 40 171 83 z "},"":{"ha":661,"x_min":0,"x_max":0,"o":"m 35 643 b 144 393 61 588 88 525 b 307 -8 203 260 288 44 b 351 1 321 -8 338 -3 b 383 38 364 7 375 18 b 536 394 428 136 476 253 b 628 604 583 506 607 561 b 619 653 642 633 639 644 b 581 661 607 658 592 660 b 501 472 560 614 547 583 b 343 88 456 361 383 185 b 153 553 247 328 179 489 b 97 661 115 644 107 661 b 35 643 85 661 50 656 z "},"":{"ha":982,"x_min":0,"x_max":0,"o":"m 257 -8 b 306 7 271 -8 290 -1 b 326 43 315 13 319 22 b 486 529 357 125 461 451 b 660 -8 568 281 635 86 b 706 6 669 -8 688 -3 b 731 42 717 11 726 21 b 885 457 776 147 835 326 b 949 628 928 569 944 615 b 933 657 954 640 950 651 b 892 661 918 658 901 661 b 696 106 861 574 807 425 b 519 638 599 399 539 585 b 497 661 514 650 508 661 b 450 643 481 661 457 653 b 454 617 451 628 451 631 b 288 101 389 415 326 213 b 121 619 204 368 151 521 b 89 661 111 656 100 661 b 31 649 79 661 54 657 b 104 447 47 607 78 524 b 257 -8 164 276 239 43 z "},"":{"ha":628,"x_min":0,"x_max":0,"o":"m 47 646 b 272 335 89 590 207 426 b 28 10 181 204 79 76 l 28 7 b 82 -7 40 0 67 -7 b 111 11 90 -7 101 -1 b 307 283 140 51 231 178 b 496 19 403 153 453 81 b 539 -7 513 -4 525 -7 b 599 1 563 -7 585 -3 l 599 6 b 353 342 564 44 486 157 b 586 646 453 476 544 590 l 586 650 b 529 661 578 654 549 661 b 503 640 522 661 515 658 b 315 388 447 568 393 490 b 143 631 244 490 208 542 b 108 661 128 653 119 661 b 47 650 92 661 64 656 z "},"":{"ha":615,"x_min":0,"x_max":0,"o":"m 274 14 b 297 -6 274 -3 282 -6 b 347 1 303 -6 335 -3 b 346 132 346 25 346 57 l 346 285 b 360 331 346 301 349 317 b 574 622 389 371 536 575 b 568 656 588 640 589 650 b 528 661 554 660 542 661 b 317 365 507 635 371 432 b 129 632 256 453 182 561 b 89 661 113 656 103 661 b 33 650 74 661 47 657 l 33 646 b 203 415 72 596 157 479 b 264 328 244 358 257 336 b 274 288 268 321 274 308 z "},"":{"ha":618,"x_min":0,"x_max":0,"o":"m 588 56 b 363 50 551 53 458 50 b 147 54 286 50 174 51 b 531 588 301 258 492 526 b 550 654 544 608 547 628 l 172 654 b 83 660 129 654 103 654 b 57 618 78 654 57 633 b 119 599 57 606 72 599 b 458 599 185 599 374 599 b 43 31 406 503 185 210 b 60 3 44 19 50 11 b 353 -6 78 -3 131 -6 b 535 0 492 -6 521 -4 b 590 50 550 6 576 25 z "},"₡":{"ha":613,"x_min":0,"x_max":0,"o":"m 401 782 b 50 379 185 783 50 608 b 271 15 50 175 149 49 l 251 -87 b 288 -86 274 -87 263 -89 b 311 -71 293 -85 310 -82 l 325 4 b 406 -3 338 1 367 -3 b 531 21 458 -3 508 8 b 560 75 549 31 556 50 l 556 79 b 418 50 528 65 465 50 b 336 60 390 50 360 54 l 444 726 b 544 692 476 722 515 707 b 567 694 553 686 561 688 b 581 725 572 701 578 711 b 457 779 575 739 526 768 l 471 857 b 425 856 458 860 436 858 b 413 839 418 854 414 849 z m 279 75 b 121 389 201 107 121 194 b 390 729 121 586 231 726 z "},"":{"ha":1176,"x_min":0,"x_max":0,"o":"m 171 356 b 339 304 300 360 310 349 b 529 38 442 153 497 76 b 613 -19 565 -6 586 -19 b 647 -11 625 -19 638 -17 l 647 -36 b 643 -276 647 -176 646 -253 b 690 -271 658 -276 678 -275 b 718 -243 710 -267 718 -264 l 718 8 b 828 -14 742 -3 785 -14 b 1128 301 1013 -14 1128 122 b 911 578 1128 521 1003 578 b 715 492 840 578 785 550 b 663 578 715 551 679 578 b 643 572 657 578 650 576 b 618 550 638 567 626 558 l 618 540 b 647 468 632 532 647 518 l 647 15 b 511 183 625 35 597 67 b 383 372 440 281 403 338 b 526 581 415 392 526 443 b 267 819 526 765 403 819 b 97 807 192 819 132 813 b 100 660 100 756 100 725 l 100 228 b 96 -10 100 121 99 44 b 147 -6 129 -8 114 -10 b 171 32 160 -4 171 3 z m 171 758 b 254 764 189 763 219 764 b 451 581 356 764 451 729 b 354 415 451 485 389 428 b 171 406 322 403 196 403 z m 718 438 b 885 517 736 456 810 517 b 1049 306 985 517 1049 442 b 831 38 1049 53 879 38 b 718 65 799 38 744 47 z "},"":{"ha":556,"x_min":0,"x_max":0,"o":"m 222 890 b 121 757 151 890 129 808 b 165 744 132 753 150 744 b 178 760 174 744 176 751 b 219 826 188 793 200 826 b 261 796 233 826 244 817 b 340 739 290 765 308 739 b 433 871 394 739 424 792 b 393 892 419 882 406 892 b 379 876 385 892 382 888 b 343 806 369 822 357 806 b 301 843 333 806 318 822 b 224 890 282 867 257 890 z "},"":{"ha":197,"x_min":0,"x_max":0,"o":"m 99 561 b 154 622 129 561 154 585 b 101 678 154 654 128 678 b 44 619 76 678 44 660 b 97 561 44 590 64 561 z m 67 -37 b 136 1 85 -37 135 -15 b 122 453 138 24 124 317 b 85 443 111 453 94 447 b 72 410 79 440 72 432 b 50 -18 71 356 50 -1 b 65 -37 50 -33 57 -37 z "},"":{"ha":543,"x_min":0,"x_max":0,"o":"m 371 717 l 351 717 b 304 683 318 713 308 704 l 297 613 b 65 332 232 604 65 538 b 256 74 65 140 204 88 l 239 -58 l 281 -54 b 308 -22 299 -53 306 -44 l 319 67 b 439 88 382 67 418 78 b 475 154 460 99 475 131 b 342 128 428 135 388 128 b 142 347 242 128 142 186 b 346 561 142 419 183 561 b 432 543 385 561 410 553 b 474 542 447 536 463 531 b 489 574 483 551 489 561 b 360 617 468 593 422 613 z "},"":{"ha":517,"x_min":0,"x_max":0,"o":"m 121 24 l 136 3 b 321 -6 158 -1 228 -6 b 451 0 401 -6 438 -4 b 492 49 474 14 488 33 l 490 53 b 347 50 456 50 388 50 b 192 58 276 50 207 54 l 192 326 l 333 421 b 347 476 342 432 347 454 b 331 481 347 486 342 489 l 192 386 l 192 601 b 175 661 192 650 188 661 b 117 653 160 661 131 656 b 121 517 119 628 121 586 l 121 339 l 43 286 b 29 233 36 272 29 246 b 50 232 31 226 36 222 l 121 278 z "},"":{"ha":483,"x_min":0,"x_max":0,"o":"m 254 669 b 58 500 103 669 58 564 b 213 303 58 404 111 365 b 353 149 322 238 353 208 b 215 40 353 82 308 40 b 57 94 164 40 103 61 b 43 60 49 86 43 75 b 61 25 43 42 50 33 b 215 -17 86 8 140 -17 b 429 163 313 -17 429 31 b 289 346 429 246 383 293 b 129 508 186 404 129 440 b 251 613 129 579 183 613 b 356 585 299 613 339 592 b 385 589 368 578 376 579 b 399 621 393 597 396 610 b 256 669 365 651 308 669 z m 146 950 b 101 931 124 950 110 938 b 218 733 140 867 182 800 b 250 739 228 733 240 736 b 274 760 261 742 264 746 b 378 933 307 821 342 871 b 335 950 372 943 351 950 b 321 946 328 950 324 947 b 239 811 289 893 264 854 b 164 938 206 868 182 907 b 147 950 157 949 153 950 z "},"":{"ha":618,"x_min":0,"x_max":0,"o":"m 588 56 b 363 50 551 53 458 50 b 147 54 286 50 174 51 b 531 588 301 258 492 526 b 550 654 544 608 547 628 l 172 654 b 83 660 129 654 103 654 b 57 618 78 654 57 633 b 119 599 57 606 72 599 b 458 599 185 599 374 599 b 43 31 406 503 185 210 b 60 3 44 19 50 11 b 353 -6 78 -3 131 -6 b 535 0 492 -6 521 -4 b 590 50 550 6 576 25 z m 217 929 b 172 910 194 929 181 917 b 289 713 211 846 253 779 b 321 718 299 713 311 715 b 344 739 332 721 335 725 b 449 913 378 800 413 850 b 406 929 443 922 422 929 b 392 925 399 929 394 926 b 310 790 360 872 335 833 b 235 917 276 847 253 886 b 218 929 228 928 224 929 z "},"":{"ha":556,"x_min":0,"x_max":0,"o":"m 174 869 b 118 811 139 869 118 843 b 171 757 118 774 143 757 b 225 814 203 757 225 778 b 175 869 225 843 204 869 z m 388 869 b 331 811 351 869 331 843 b 382 757 331 774 358 757 b 439 814 417 757 439 778 b 389 869 439 843 418 869 z "},"":{"ha":556,"x_min":0,"x_max":0,"o":"m 189 919 b 144 886 167 919 144 911 b 269 731 144 789 196 731 b 411 893 347 731 399 782 b 369 919 413 910 388 919 b 357 908 361 919 358 914 b 271 796 349 854 335 796 b 200 907 238 796 211 821 b 190 919 200 914 197 919 z "},"":{"ha":556,"x_min":0,"x_max":0,"o":"m 185 929 b 140 910 163 929 149 917 b 257 713 179 846 221 779 b 289 718 267 713 279 715 b 313 739 300 721 303 725 b 417 913 346 800 381 850 b 374 929 411 922 390 929 b 360 925 367 929 363 926 b 278 790 328 872 303 833 b 203 917 244 847 221 886 b 186 929 196 928 192 929 z "},"":{"ha":556,"x_min":0,"x_max":0,"o":"m 282 869 b 226 811 247 869 226 843 b 281 757 226 774 253 757 b 333 815 311 757 333 778 b 283 869 333 846 313 869 z "},"":{"ha":556,"x_min":0,"x_max":0,"o":"m 394 769 b 418 824 404 781 418 813 b 403 833 418 829 414 833 l 158 833 b 138 788 151 828 138 808 b 154 769 138 774 142 769 z "},"‒":{"ha":536,"x_min":0,"x_max":0,"o":"m 99 436 b 58 396 81 436 63 425 l 56 375 l 446 375 b 476 415 460 375 469 381 l 481 436 z "},"":{"ha":269,"x_min":0,"x_max":0,"o":"m 244 93 b 53 42 203 75 108 54 b 25 -17 43 29 31 3 l 28 -19 b 206 31 93 -4 156 10 b 247 90 226 39 242 69 z "},"":{"ha":564,"x_min":0,"x_max":0,"o":"m 288 4 b 142 -214 200 -54 142 -131 b 258 -333 142 -290 194 -333 b 368 -297 304 -333 346 -318 b 382 -247 375 -287 382 -260 b 378 -243 381 -246 379 -244 b 293 -262 356 -253 325 -262 b 222 -194 244 -262 222 -231 b 354 4 222 -150 242 -79 z "},"":{"ha":556,"x_min":0,"x_max":0,"o":"m 281 931 b 163 814 207 931 163 879 b 275 704 163 747 215 704 b 393 819 346 704 393 749 b 282 931 393 883 344 931 z m 275 882 b 335 815 317 882 335 853 b 279 754 335 786 318 754 b 221 818 246 754 221 783 b 274 882 221 846 240 882 z "},"":{"ha":564,"x_min":0,"x_max":0,"o":"m 290 6 l 204 -119 l 204 -124 b 319 -181 258 -124 319 -139 b 213 -257 319 -204 292 -233 b 199 -268 200 -261 199 -264 b 225 -304 199 -279 211 -301 b 386 -174 294 -292 386 -249 b 299 -76 386 -129 358 -90 l 353 6 z "},"":{"ha":396,"x_min":0,"x_max":0,"o":"m 207 554 b 263 614 228 554 263 569 b 208 671 263 647 235 671 b 150 613 185 671 150 654 b 206 554 150 583 174 554 z m 193 -32 b 335 22 240 -32 300 -10 b 328 49 335 36 335 38 b 303 57 321 60 314 64 b 200 26 264 35 233 26 b 118 106 157 26 118 58 b 190 236 118 147 136 179 b 261 361 243 293 261 326 b 213 450 261 415 224 450 b 174 432 201 450 186 440 b 197 367 186 418 197 392 b 135 268 197 340 176 313 b 42 103 76 210 42 165 b 192 -32 42 36 88 -32 z "},"⅛":{"ha":882,"x_min":0,"x_max":0,"o":"m 244 836 b 83 772 213 819 139 786 l 65 738 l 68 732 b 186 756 93 733 160 747 b 183 382 186 603 186 401 l 219 385 b 249 408 240 386 249 392 b 251 832 247 540 251 800 z m 699 825 b 683 856 696 838 692 844 b 654 854 671 869 663 868 b 128 -10 500 594 268 217 b 149 -44 128 -21 138 -36 b 174 -37 157 -54 163 -54 b 699 825 390 311 581 626 z m 665 443 b 525 326 590 443 525 394 b 606 218 525 281 554 244 b 507 106 529 175 507 146 b 663 -11 507 25 581 -11 b 821 111 756 -11 821 36 b 721 225 821 172 774 200 b 800 329 763 250 800 282 b 667 443 800 404 732 443 z m 742 329 b 682 242 742 285 719 265 b 583 331 618 267 583 294 b 660 403 583 378 621 403 b 742 331 711 403 742 369 z m 667 29 b 568 110 603 29 568 71 b 646 200 568 143 594 176 b 760 104 699 179 760 160 b 668 29 760 50 713 29 z "},"⅜":{"ha":882,"x_min":0,"x_max":0,"o":"m 199 833 b 86 788 147 833 104 806 b 74 765 78 779 74 771 b 89 740 74 757 82 746 b 182 782 110 760 150 782 b 256 713 224 782 256 758 b 140 621 256 647 197 632 b 117 585 128 607 121 593 l 121 579 b 182 586 144 585 167 586 b 286 501 236 586 286 565 b 158 401 286 446 247 401 b 60 419 124 401 76 414 l 58 417 b 72 376 58 401 68 381 b 163 353 83 365 115 353 b 354 506 260 353 354 408 b 254 622 354 574 315 607 b 321 725 290 647 321 675 b 200 833 321 796 268 833 z m 719 825 b 704 856 717 838 713 844 b 675 854 692 869 683 868 b 149 -10 521 593 290 217 b 169 -44 149 -21 158 -36 b 194 -37 178 -54 183 -54 b 719 825 411 311 601 625 z m 665 443 b 525 326 590 443 525 394 b 604 219 525 281 553 246 b 507 106 528 178 507 147 b 663 -11 507 25 581 -11 b 821 111 756 -11 821 36 b 719 225 821 174 772 201 b 800 329 761 250 800 282 b 667 443 800 404 732 443 z m 740 329 b 681 242 740 285 718 265 b 583 331 617 267 583 294 b 660 403 583 378 621 403 b 740 331 711 403 740 369 z m 667 29 b 568 111 603 29 568 71 b 644 201 568 143 593 178 b 760 104 697 181 760 160 b 668 29 760 50 713 29 z "},"⅝":{"ha":882,"x_min":0,"x_max":0,"o":"m 56 410 b 72 372 57 396 65 376 b 156 354 82 364 124 354 b 356 513 247 354 356 404 b 267 631 356 575 319 610 b 124 663 228 644 176 654 b 150 774 132 701 142 746 b 283 781 186 776 226 775 b 317 801 300 782 311 790 b 322 836 321 810 324 824 b 115 824 283 833 207 829 b 71 625 101 782 78 678 l 74 615 b 214 588 113 611 172 600 b 288 507 260 572 288 546 b 154 401 288 422 211 401 b 58 414 118 401 78 408 z m 722 825 b 707 856 719 838 715 844 b 678 854 694 869 686 868 b 150 -10 524 594 292 217 b 171 -44 150 -21 160 -36 b 196 -37 179 -54 185 -54 b 722 825 413 311 604 626 z m 668 443 b 528 326 593 443 528 394 b 607 219 528 281 556 246 b 510 106 531 176 510 146 b 665 -11 510 25 583 -11 b 824 111 758 -11 824 36 b 722 225 824 172 775 200 b 803 329 764 250 803 282 b 669 443 803 404 735 443 z m 743 329 b 683 242 743 285 721 265 b 586 331 619 267 586 294 b 663 403 586 378 624 403 b 743 331 714 403 743 369 z m 669 29 b 571 110 606 29 571 71 b 647 201 571 143 596 178 b 763 104 700 181 763 160 b 671 29 763 50 715 29 z "},"⅞":{"ha":882,"x_min":0,"x_max":0,"o":"m 382 826 b 193 826 356 826 219 826 b 113 833 167 826 132 828 b 78 796 100 825 83 807 b 118 774 72 781 76 774 b 317 775 229 774 279 775 b 107 375 264 600 175 457 l 108 371 b 156 378 115 371 140 372 b 193 407 172 385 181 393 b 385 821 210 422 322 592 z m 692 825 b 675 856 689 838 685 844 b 647 854 664 869 656 868 b 118 -10 493 593 260 217 b 139 -44 119 -21 128 -36 b 164 -37 149 -54 154 -54 b 692 825 382 311 572 625 z m 649 443 b 508 326 574 443 508 394 b 588 219 508 281 536 246 b 490 106 511 176 490 146 b 646 -11 490 25 564 -11 b 803 111 738 -11 803 36 b 701 225 803 172 754 200 b 783 329 744 250 783 282 b 650 443 783 404 715 443 z m 724 329 b 664 242 724 285 701 265 b 567 331 600 267 567 294 b 643 403 567 378 604 403 b 724 331 694 403 724 369 z m 649 29 b 551 110 586 29 551 71 b 628 201 551 143 576 178 b 742 104 679 181 742 160 b 650 29 742 50 694 29 z "},"⅓":{"ha":882,"x_min":0,"x_max":0,"o":"m 246 836 b 88 772 214 819 143 786 l 69 739 l 72 733 b 190 756 97 735 164 747 b 188 382 190 603 190 401 l 224 385 b 253 408 244 386 253 392 b 256 832 251 540 256 800 z m 708 825 b 692 856 706 838 701 844 b 664 854 681 869 672 868 b 136 -10 510 594 278 218 b 157 -44 138 -21 146 -36 b 182 -37 167 -54 172 -54 b 708 825 399 313 589 626 z m 663 443 b 550 397 611 443 568 415 b 538 375 542 389 538 381 b 553 350 538 367 546 356 b 646 392 574 369 614 392 b 719 321 688 392 719 368 b 604 231 719 257 661 242 b 581 194 593 215 586 203 l 586 189 b 646 196 608 194 631 196 b 750 110 700 196 750 174 b 613 10 750 54 703 10 b 525 22 583 10 542 17 l 522 18 b 536 -17 524 1 532 -11 b 621 -39 547 -28 574 -39 b 818 115 718 -39 818 17 b 718 232 818 183 779 217 b 785 333 754 257 785 285 b 664 443 785 406 732 443 z "},"⅔":{"ha":882,"x_min":0,"x_max":0,"o":"m 203 836 b 71 781 144 836 99 808 b 56 726 61 765 54 746 l 61 724 b 185 781 94 756 143 781 b 272 694 235 781 272 751 b 69 438 272 611 175 528 l 49 401 l 50 396 b 228 388 90 389 164 388 b 340 396 296 388 318 390 b 378 447 365 413 376 435 b 142 442 294 439 215 439 b 343 696 211 500 343 597 b 204 836 343 785 286 836 z m 725 825 b 710 856 722 838 718 844 b 681 854 697 869 689 868 b 153 -10 526 594 293 218 b 174 -44 153 -21 163 -36 b 199 -37 182 -54 188 -54 b 725 825 415 313 606 626 z m 667 443 b 553 397 614 443 572 415 b 542 375 544 389 542 381 b 557 350 542 367 549 356 b 650 392 578 369 617 392 b 724 321 692 392 724 368 b 607 231 724 257 665 242 b 585 196 596 215 589 204 l 590 189 b 649 196 613 194 635 196 b 754 110 704 196 754 174 b 619 10 754 54 710 10 b 526 25 590 10 543 18 l 524 22 b 539 -15 525 7 532 -8 b 628 -39 550 -28 581 -39 b 822 115 725 -39 822 17 b 721 232 822 182 783 217 b 789 333 758 257 789 285 b 668 443 789 406 736 443 z "},"⁰":{"ha":386,"x_min":0,"x_max":0,"o":"m 192 1042 b 32 810 85 1042 32 936 b 190 588 32 729 64 588 b 353 804 319 588 353 708 b 193 1042 353 913 326 1042 z m 192 997 b 293 817 263 997 293 903 b 197 632 293 708 268 632 b 92 819 135 632 92 717 b 190 997 92 914 121 997 z "},"⁴":{"ha":386,"x_min":0,"x_max":0,"o":"m 324 1065 b 228 1024 293 1064 240 1036 b 15 751 183 981 65 835 b 38 717 15 744 31 724 b 242 707 71 710 151 707 b 239 590 242 669 240 621 l 243 588 b 303 601 253 589 276 594 b 303 708 303 629 303 686 b 342 717 310 710 328 711 b 371 757 353 726 365 743 l 368 763 b 303 756 347 758 321 756 l 303 890 l 293 890 b 244 867 281 888 254 874 l 242 754 b 82 761 160 756 118 756 b 326 1063 154 871 243 981 z "},"⁵":{"ha":386,"x_min":0,"x_max":0,"o":"m 44 621 b 61 579 46 607 54 585 b 147 560 75 568 114 560 b 343 717 243 560 343 608 b 256 833 343 779 308 814 b 114 863 217 849 164 856 b 139 979 122 901 131 951 b 272 986 175 982 215 981 b 308 1007 289 988 303 996 b 313 1042 311 1015 314 1029 b 104 1029 274 1039 196 1035 b 60 821 90 988 67 872 l 63 815 b 203 792 101 813 161 804 b 276 713 249 776 276 751 b 149 607 276 628 206 607 b 47 624 104 607 68 618 z "},"⁶":{"ha":386,"x_min":0,"x_max":0,"o":"m 360 1042 b 317 1064 350 1056 329 1064 b 140 990 296 1064 221 1058 b 38 767 65 926 38 844 b 193 588 38 639 115 588 b 350 738 300 588 350 665 b 235 867 350 808 310 867 b 147 839 196 867 164 851 b 129 796 135 829 128 800 b 203 818 154 808 183 818 b 285 728 247 818 285 796 b 200 631 285 669 250 631 b 101 768 157 631 101 664 b 203 978 101 844 129 924 b 360 1039 246 1010 296 1026 z "},"⁷":{"ha":386,"x_min":0,"x_max":0,"o":"m 347 1032 b 158 1032 322 1032 185 1032 b 76 1038 132 1032 101 1032 b 43 1001 64 1031 49 1013 b 83 979 38 986 42 979 b 283 981 194 979 246 981 b 72 581 231 806 142 663 l 74 578 b 119 585 81 578 104 579 b 158 613 138 592 146 599 b 351 1026 175 629 288 799 z "},"⁸":{"ha":386,"x_min":0,"x_max":0,"o":"m 194 1042 b 54 925 119 1042 54 993 b 133 818 54 879 82 844 b 36 704 56 775 36 744 b 190 588 36 624 108 588 b 347 710 285 588 347 635 b 249 824 347 771 301 800 b 329 929 290 850 329 882 b 196 1042 329 1003 261 1042 z m 269 929 b 210 842 269 885 247 864 b 113 931 142 869 113 894 b 189 1001 113 978 150 1001 b 269 931 240 1001 269 968 z m 194 628 b 97 710 132 628 97 669 b 174 800 97 742 122 776 b 286 703 226 779 286 758 b 196 628 286 649 240 628 z "},"⁹":{"ha":386,"x_min":0,"x_max":0,"o":"m 47 600 b 90 578 57 589 76 578 b 250 650 117 578 192 597 b 346 869 324 717 346 799 b 192 1042 346 965 294 1042 b 39 892 103 1042 39 978 b 158 768 39 828 83 768 b 232 789 200 768 219 779 b 246 824 244 799 246 815 b 188 814 231 818 211 814 b 101 901 143 814 101 842 b 188 999 101 971 144 999 b 279 872 231 999 279 963 b 206 682 279 801 254 726 b 47 604 167 647 108 621 z "},"₀":{"ha":386,"x_min":0,"x_max":0,"o":"m 192 275 b 32 43 85 275 32 169 b 190 -179 32 -37 64 -179 b 353 38 319 -179 353 -58 b 193 275 353 146 326 275 z m 192 231 b 293 50 263 231 293 136 b 197 -135 293 -58 268 -135 b 92 53 135 -135 92 -50 b 190 231 92 147 121 231 z "},"₁":{"ha":386,"x_min":0,"x_max":0,"o":"m 257 275 b 99 211 225 258 154 225 l 82 175 l 85 171 b 201 194 107 172 178 186 b 197 -179 201 42 200 -160 l 232 -176 b 263 -153 254 -175 263 -169 b 267 271 261 -21 267 239 z "},"₂":{"ha":386,"x_min":0,"x_max":0,"o":"m 40 165 b 164 218 74 199 125 218 b 250 132 214 218 250 189 b 49 -124 250 49 153 -33 b 29 -160 43 -136 36 -147 l 32 -165 b 207 -174 72 -172 143 -174 b 321 -165 276 -174 299 -171 b 357 -114 346 -149 357 -126 b 121 -119 274 -122 194 -122 b 324 135 190 -61 324 36 b 181 275 324 224 264 275 b 49 218 122 275 75 246 b 38 167 44 204 38 188 z "},"₃":{"ha":386,"x_min":0,"x_max":0,"o":"m 107 15 b 167 22 129 21 153 22 b 269 -62 222 22 269 1 b 132 -161 269 -117 222 -161 b 43 -147 100 -161 61 -154 l 42 -150 b 56 -186 42 -164 51 -182 b 140 -208 67 -199 93 -208 b 336 -57 238 -208 336 -153 b 238 58 336 11 299 43 b 307 163 278 82 307 110 b 182 272 307 235 251 272 b 65 224 131 272 85 242 b 54 201 57 217 54 208 b 69 176 54 193 61 182 b 167 221 90 197 135 221 b 244 150 208 221 244 196 b 124 57 244 86 185 68 b 103 21 113 43 107 29 z "},"₄":{"ha":386,"x_min":0,"x_max":0,"o":"m 324 299 b 228 257 293 297 240 269 b 15 -15 183 214 65 68 b 38 -50 15 -22 31 -43 b 242 -60 71 -57 151 -60 b 239 -176 242 -97 240 -146 l 243 -179 b 303 -165 253 -178 276 -172 b 303 -58 303 -137 303 -81 b 342 -50 310 -57 328 -56 b 371 -10 353 -40 365 -24 l 368 -4 b 303 -11 347 -8 321 -11 l 303 124 l 293 124 b 244 100 281 121 254 107 l 242 -12 b 82 -6 160 -11 118 -11 b 326 296 154 104 243 214 z "},"₅":{"ha":386,"x_min":0,"x_max":0,"o":"m 44 -146 b 61 -187 46 -160 54 -182 b 147 -207 75 -199 114 -207 b 343 -50 243 -207 343 -158 b 256 67 343 13 308 47 b 114 96 217 82 164 89 b 139 213 122 135 131 185 b 272 219 175 215 215 214 b 308 240 289 221 303 229 b 313 275 311 249 314 263 b 104 263 274 272 196 268 b 60 54 90 221 67 106 l 63 49 b 203 25 101 46 161 38 b 276 -54 249 10 276 -15 b 149 -160 276 -139 206 -160 b 47 -143 104 -160 68 -149 z "},"₆":{"ha":386,"x_min":0,"x_max":0,"o":"m 360 275 b 317 297 350 289 329 297 b 140 224 296 297 221 292 b 38 0 65 160 38 78 b 193 -179 38 -128 115 -179 b 350 -29 300 -179 350 -101 b 235 100 350 42 310 100 b 147 72 196 100 164 85 b 129 29 135 63 128 33 b 203 51 154 42 183 51 b 285 -39 247 51 285 29 b 200 -136 285 -97 250 -136 b 101 1 157 -136 101 -103 b 203 211 101 78 129 157 b 360 272 246 243 296 260 z "},"₇":{"ha":386,"x_min":0,"x_max":0,"o":"m 347 265 b 158 265 322 265 185 265 b 76 271 132 265 101 265 b 43 235 64 264 49 246 b 83 213 38 219 42 213 b 283 214 194 213 246 214 b 72 -186 231 39 142 -104 l 74 -189 b 119 -182 81 -189 104 -187 b 158 -154 138 -175 146 -168 b 351 260 175 -137 288 32 z "},"₈":{"ha":386,"x_min":0,"x_max":0,"o":"m 194 275 b 54 158 119 275 54 226 b 133 51 54 113 82 78 b 36 -62 56 8 36 -22 b 190 -179 36 -143 108 -179 b 347 -57 285 -179 347 -132 b 249 57 347 4 301 33 b 329 163 290 83 329 115 b 196 275 329 236 261 275 z m 269 163 b 210 75 269 118 247 97 b 113 164 142 103 113 128 b 189 235 113 211 150 235 b 269 164 240 235 269 201 z m 194 -139 b 97 -57 132 -139 97 -97 b 174 33 97 -25 122 10 b 286 -64 226 13 286 -8 b 196 -139 286 -118 240 -139 z "},"₉":{"ha":386,"x_min":0,"x_max":0,"o":"m 47 -167 b 90 -189 57 -178 76 -189 b 250 -117 117 -189 192 -169 b 346 103 324 -50 346 32 b 192 275 346 199 294 275 b 39 125 103 275 39 211 b 158 1 39 61 83 1 b 232 22 200 1 219 13 b 246 57 244 32 246 49 b 188 47 231 51 211 47 b 101 135 143 47 101 75 b 188 232 101 204 144 232 b 279 106 231 232 279 196 b 206 -85 279 35 254 -40 b 47 -162 167 -119 108 -146 z "},"":{"ha":386,"x_min":0,"x_max":0,"o":"m 258 301 l 244 301 b 211 279 221 299 213 293 l 206 235 b 47 54 149 225 47 179 b 179 -110 47 -64 138 -101 l 165 -194 l 193 -192 b 214 -171 207 -190 213 -185 l 222 -114 b 303 -99 261 -114 289 -106 b 328 -50 318 -90 325 -76 b 242 -68 296 -62 265 -68 b 107 65 172 -68 107 -32 b 236 193 107 114 136 193 b 300 181 257 193 285 188 b 329 188 310 175 322 178 b 338 207 335 193 338 200 b 250 238 325 221 296 235 z "},"":{"ha":386,"x_min":0,"x_max":0,"o":"m 253 335 b 219 329 239 333 228 332 b 200 310 208 326 203 319 l 194 278 b 74 161 142 269 74 239 b 186 35 74 100 113 65 b 283 -54 250 8 283 -17 b 197 -119 283 -99 243 -119 b 85 -86 158 -119 125 -110 b 60 -92 78 -82 69 -81 b 47 -119 53 -100 47 -111 b 167 -167 86 -150 133 -164 l 156 -240 b 196 -236 169 -240 182 -239 b 215 -214 208 -233 213 -226 l 221 -164 b 340 -46 267 -161 340 -126 b 213 88 340 28 285 54 b 129 169 153 114 129 133 b 214 238 129 215 168 238 b 301 211 239 238 268 232 b 322 221 307 207 317 213 b 329 242 326 226 328 233 b 243 276 318 253 281 275 z "},"":{"ha":156,"x_min":0,"x_max":0,"o":"m 79 -83 b 35 -132 51 -83 35 -106 b 76 -179 35 -165 58 -179 b 121 -132 101 -179 121 -160 b 81 -83 121 -107 107 -83 z "},"":{"ha":156,"x_min":0,"x_max":0,"o":"m 106 -36 b 63 -58 93 -36 72 -50 b 68 -99 67 -71 68 -83 b 4 -267 68 -149 44 -217 b 51 -257 24 -268 43 -262 b 132 -96 83 -236 132 -150 b 107 -36 132 -67 126 -36 z "},"":{"ha":665,"x_min":0,"x_max":0,"o":"m 472 214 b 556 25 515 115 533 74 b 589 -6 565 0 576 -6 b 647 6 597 -6 631 -3 l 647 10 b 556 206 633 36 599 110 b 376 625 511 303 419 522 b 347 661 364 656 357 661 b 294 649 335 661 310 656 l 308 614 b 18 7 282 554 92 150 l 19 3 b 74 -6 26 -1 53 -6 b 93 10 79 -6 88 -3 b 190 214 107 38 142 114 z m 215 269 b 335 542 258 365 288 438 b 450 269 351 506 396 399 z m 206 932 b 165 894 194 931 183 918 b 171 865 158 879 161 872 b 360 717 238 822 311 758 b 378 742 364 718 368 725 b 372 774 385 749 383 760 b 206 932 333 825 224 936 z "},"":{"ha":665,"x_min":0,"x_max":0,"o":"m 472 214 b 556 25 515 115 533 74 b 589 -6 565 0 576 -6 b 647 6 597 -6 631 -3 l 647 10 b 556 206 633 36 599 110 b 376 625 511 303 419 522 b 347 661 364 656 357 661 b 294 649 335 661 310 656 l 308 614 b 18 7 282 554 92 150 l 19 3 b 74 -6 26 -1 53 -6 b 93 10 79 -6 88 -3 b 190 214 107 38 142 114 z m 215 269 b 335 542 258 365 288 438 b 450 269 351 506 396 399 z m 464 925 b 303 774 449 928 346 821 b 286 739 288 756 282 747 b 306 710 293 728 299 718 b 499 858 361 757 429 813 b 511 883 513 867 515 874 b 464 925 503 897 476 922 z "},"":{"ha":665,"x_min":0,"x_max":0,"o":"m 472 214 b 556 25 515 115 533 74 b 589 -6 565 0 576 -6 b 647 6 597 -6 631 -3 l 647 10 b 556 206 633 36 599 110 b 376 625 511 303 419 522 b 347 661 364 656 357 661 b 294 649 335 661 310 656 l 308 614 b 18 7 282 554 92 150 l 19 3 b 74 -6 26 -1 53 -6 b 93 10 79 -6 88 -3 b 190 214 107 38 142 114 z m 215 269 b 335 542 258 365 288 438 b 450 269 351 506 396 399 z m 239 714 b 253 718 246 714 249 717 b 335 854 285 771 308 810 b 410 725 368 796 392 757 b 426 714 415 717 419 714 b 471 735 450 714 464 726 b 354 931 433 799 392 864 b 322 926 346 931 333 928 b 300 906 311 924 308 918 b 196 732 267 844 231 793 b 238 714 200 722 222 714 z "},"":{"ha":665,"x_min":0,"x_max":0,"o":"m 472 214 b 556 25 515 115 533 74 b 589 -6 565 0 576 -6 b 647 6 597 -6 631 -3 l 647 10 b 556 206 633 36 599 110 b 376 625 511 303 419 522 b 347 661 364 656 357 661 b 294 649 335 661 310 656 l 308 614 b 18 7 282 554 92 150 l 19 3 b 74 -6 26 -1 53 -6 b 93 10 79 -6 88 -3 b 190 214 107 38 142 114 z m 215 269 b 335 542 258 365 288 438 b 450 269 351 506 396 399 z m 281 883 b 179 750 210 883 188 801 b 224 738 190 746 208 738 b 236 753 232 738 235 744 b 278 819 246 786 258 819 b 319 789 292 819 303 810 b 399 732 349 758 367 732 b 492 864 453 732 482 785 b 451 885 478 875 464 885 b 438 869 443 885 440 881 b 401 799 428 815 415 799 b 360 836 392 799 376 815 b 282 883 340 860 315 883 z "},"":{"ha":665,"x_min":0,"x_max":0,"o":"m 472 214 b 556 25 515 115 533 74 b 589 -6 565 0 576 -6 b 647 6 597 -6 631 -3 l 647 10 b 556 206 633 36 599 110 b 376 625 511 303 419 522 b 347 661 364 656 357 661 b 294 649 335 661 310 656 l 308 614 b 18 7 282 554 92 150 l 19 3 b 74 -6 26 -1 53 -6 b 93 10 79 -6 88 -3 b 190 214 107 38 142 114 z m 215 269 b 335 542 258 365 288 438 b 450 269 351 506 396 399 z m 235 851 b 179 793 200 851 179 825 b 232 739 179 756 204 739 b 286 796 264 739 286 760 b 236 851 286 825 265 851 z m 449 851 b 392 793 413 851 392 825 b 443 739 392 756 419 739 b 500 796 478 739 500 760 b 450 851 500 825 479 851 z "},"":{"ha":665,"x_min":0,"x_max":0,"o":"m 472 214 b 556 25 515 115 533 74 b 589 -6 565 0 576 -6 b 647 6 597 -6 631 -3 l 647 10 b 556 206 633 36 599 110 b 376 625 511 303 419 522 b 347 661 364 656 357 661 b 294 649 335 661 310 656 l 308 614 b 18 7 282 554 92 150 l 19 3 b 74 -6 26 -1 53 -6 b 93 10 79 -6 88 -3 b 190 214 107 38 142 114 z m 215 269 b 335 542 258 365 288 438 b 450 269 351 506 396 399 z m 336 931 b 218 814 263 931 218 879 b 331 704 218 747 271 704 b 449 819 401 704 449 749 b 338 931 449 883 400 931 z m 331 882 b 390 815 372 882 390 853 b 335 754 390 786 374 754 b 276 818 301 754 276 783 b 329 882 276 846 296 882 z "},"":{"ha":868,"x_min":0,"x_max":0,"o":"m 454 263 l 465 24 l 481 4 b 671 -6 507 0 571 -6 b 807 3 736 -6 779 -4 b 851 51 819 6 843 21 l 850 54 b 678 50 806 51 733 50 b 533 60 621 50 557 53 l 522 261 l 721 261 b 794 317 769 261 788 271 l 519 317 l 506 599 l 707 599 b 775 610 746 599 765 600 b 800 654 788 619 796 639 b 431 654 703 654 592 654 b 371 643 417 651 378 647 b 361 614 369 632 368 625 b 17 11 296 493 83 118 l 17 4 b 63 -8 32 -4 46 -8 b 86 7 71 -8 81 -3 b 231 263 104 38 146 111 z m 261 317 b 418 604 294 381 344 465 l 436 604 l 450 317 z "},"":{"ha":643,"x_min":0,"x_max":0,"o":"m 296 -121 l 296 -125 b 413 -183 350 -125 413 -140 b 304 -260 413 -204 385 -235 b 290 -272 292 -264 290 -267 b 317 -308 290 -283 301 -306 b 481 -176 388 -296 481 -250 b 392 -76 481 -131 451 -92 l 433 -15 b 568 13 511 -14 550 1 b 599 68 590 32 596 51 l 597 71 b 442 44 571 61 510 44 b 129 336 232 44 129 160 b 397 611 129 521 268 611 b 564 574 476 611 529 593 b 597 576 575 568 586 567 b 615 610 604 583 608 592 b 419 669 592 632 514 669 b 50 318 208 669 50 538 b 369 -14 50 136 165 1 z "},"":{"ha":528,"x_min":0,"x_max":0,"o":"m 104 24 l 119 4 b 329 -6 144 0 219 -6 b 451 3 390 -6 431 -4 b 489 51 471 15 486 35 l 489 54 b 318 50 439 51 376 50 b 175 60 268 50 193 54 l 175 308 l 376 308 b 447 363 413 308 436 317 l 175 363 l 175 599 l 325 599 b 429 604 372 599 413 599 b 461 654 446 611 457 624 b 158 654 364 654 240 654 b 100 639 140 651 113 643 b 104 507 104 592 104 557 z m 151 939 b 111 901 140 938 129 925 b 117 872 104 886 107 879 b 306 724 183 829 257 765 b 324 749 310 725 314 732 b 318 781 331 756 329 767 b 151 939 279 832 169 943 z "},"":{"ha":528,"x_min":0,"x_max":0,"o":"m 104 24 l 119 4 b 329 -6 144 0 219 -6 b 451 3 390 -6 431 -4 b 489 51 471 15 486 35 l 489 54 b 318 50 439 51 376 50 b 175 60 268 50 193 54 l 175 308 l 376 308 b 447 363 413 308 436 317 l 175 363 l 175 599 l 325 599 b 429 604 372 599 413 599 b 461 654 446 611 457 624 b 158 654 364 654 240 654 b 100 639 140 651 113 643 b 104 507 104 592 104 557 z m 408 932 b 247 781 393 935 290 828 b 231 746 232 763 226 754 b 250 717 238 735 243 725 b 443 865 306 764 374 819 b 456 890 457 874 460 881 b 408 932 447 904 421 929 z "},"":{"ha":528,"x_min":0,"x_max":0,"o":"m 104 24 l 119 4 b 329 -6 144 0 219 -6 b 451 3 390 -6 431 -4 b 489 51 471 15 486 35 l 489 54 b 318 50 439 51 376 50 b 175 60 268 50 193 54 l 175 308 l 376 308 b 447 363 413 308 436 317 l 175 363 l 175 599 l 325 599 b 429 604 372 599 413 599 b 461 654 446 611 457 624 b 158 654 364 654 240 654 b 100 639 140 651 113 643 b 104 507 104 592 104 557 z m 183 728 b 197 732 190 728 193 731 b 279 868 229 785 253 824 b 354 739 313 810 336 771 b 371 728 360 731 364 728 b 415 749 394 728 408 740 b 299 944 378 813 336 878 b 267 940 290 944 278 942 b 244 919 256 938 253 932 b 140 746 211 858 175 807 b 182 728 144 736 167 728 z "},"":{"ha":528,"x_min":0,"x_max":0,"o":"m 104 24 l 119 4 b 329 -6 144 0 219 -6 b 451 3 390 -6 431 -4 b 489 51 471 15 486 35 l 489 54 b 318 50 439 51 376 50 b 175 60 268 50 193 54 l 175 308 l 376 308 b 447 363 413 308 436 317 l 175 363 l 175 599 l 325 599 b 429 604 372 599 413 599 b 461 654 446 611 457 624 b 158 654 364 654 240 654 b 100 639 140 651 113 643 b 104 507 104 592 104 557 z m 171 876 b 115 818 136 876 115 850 b 168 764 115 781 140 764 b 222 821 200 764 222 785 b 172 876 222 850 201 876 z m 385 876 b 328 818 349 876 328 850 b 379 764 328 781 356 764 b 436 821 414 764 436 785 b 386 876 436 850 415 876 z "},"":{"ha":281,"x_min":0,"x_max":0,"o":"m 104 15 b 125 -6 104 -3 113 -6 b 179 3 140 -6 165 -3 b 175 132 178 26 175 60 l 175 603 b 157 661 175 651 171 661 b 103 653 142 661 118 657 b 104 517 103 631 104 588 z m 10 939 b -31 901 -1 938 -12 925 b -25 872 -37 886 -35 879 b 164 724 42 829 115 765 b 182 749 168 725 172 732 b 176 781 189 756 188 767 b 10 939 138 832 28 943 z "},"":{"ha":281,"x_min":0,"x_max":0,"o":"m 104 15 b 125 -6 104 -3 113 -6 b 179 3 140 -6 165 -3 b 175 132 178 26 175 60 l 175 603 b 157 661 175 651 171 661 b 103 653 142 661 118 657 b 104 517 103 631 104 588 z m 278 939 b 117 788 263 942 160 835 b 100 753 101 769 96 761 b 119 724 107 742 113 732 b 313 872 175 771 243 826 b 325 897 326 881 329 888 b 278 939 317 911 290 936 z "},"":{"ha":281,"x_min":0,"x_max":0,"o":"m 104 15 b 125 -6 104 -3 113 -6 b 179 3 140 -6 165 -3 b 175 132 178 26 175 60 l 175 603 b 157 661 175 651 171 661 b 103 653 142 661 118 657 b 104 517 103 631 104 588 z m 38 714 b 51 718 44 714 47 717 b 133 854 83 771 107 810 b 208 725 167 796 190 757 b 225 714 214 717 218 714 b 269 735 249 714 263 726 b 153 931 232 799 190 864 b 121 926 144 931 132 928 b 99 906 110 924 107 918 b -6 732 65 844 29 793 b 36 714 -1 722 21 714 z "},"":{"ha":281,"x_min":0,"x_max":0,"o":"m 104 15 b 125 -6 104 -3 113 -6 b 179 3 140 -6 165 -3 b 175 132 178 26 175 60 l 175 603 b 157 661 175 651 171 661 b 103 653 142 661 118 657 b 104 517 103 631 104 588 z m 36 869 b -19 811 1 869 -19 843 b 33 757 -19 774 6 757 b 88 814 65 757 88 778 b 38 869 88 843 67 869 z m 250 869 b 193 811 214 869 193 843 b 244 757 193 774 221 757 b 301 814 279 757 301 778 b 251 869 301 843 281 869 z "},"":{"ha":749,"x_min":0,"x_max":0,"o":"m 118 15 b 313 -8 197 -1 249 -8 b 575 69 367 -8 489 3 b 699 338 671 143 699 238 b 311 661 699 464 639 661 b 114 642 261 661 135 649 b 118 517 115 608 118 588 l 118 363 l 79 363 b 21 310 53 363 31 354 l 118 310 z m 189 599 b 289 607 215 601 254 607 b 619 333 524 607 619 490 b 308 46 619 122 475 46 b 189 60 261 46 221 51 l 189 310 l 336 310 b 410 363 372 310 399 314 l 189 363 z "},"":{"ha":775,"x_min":0,"x_max":0,"o":"m 104 186 b 101 -6 104 99 104 39 b 142 -1 111 -6 122 -6 b 169 28 163 1 169 4 l 169 301 b 164 535 169 356 169 415 b 283 385 208 482 247 429 b 592 22 406 238 526 100 b 629 -6 608 1 618 -6 b 671 7 639 -6 656 -1 l 671 469 b 674 661 671 557 672 617 b 625 657 653 661 657 661 b 606 628 610 654 606 651 l 606 289 b 608 111 606 221 604 175 b 465 282 572 153 518 222 b 157 642 326 439 193 604 b 129 661 144 654 138 661 b 67 651 118 661 83 656 l 67 646 l 104 599 z m 332 879 b 231 746 261 879 239 797 b 275 733 242 742 260 733 b 288 749 283 733 286 740 b 329 815 297 782 310 815 b 371 785 343 815 354 806 b 450 728 400 754 418 728 b 543 860 504 728 533 781 b 503 881 529 871 515 881 b 489 865 494 881 492 876 b 453 794 479 811 467 794 b 411 832 443 794 428 811 b 333 879 392 856 367 879 z "},"":{"ha":774,"x_min":0,"x_max":0,"o":"m 392 669 b 50 318 188 669 50 517 b 385 -17 50 167 132 -17 b 722 333 608 -17 722 138 b 393 669 722 531 592 669 z m 379 615 b 643 328 547 615 643 497 b 390 38 643 129 538 38 b 129 322 253 38 129 138 b 378 615 129 496 229 615 z m 256 939 b 215 901 244 938 233 925 b 221 872 208 886 211 879 b 410 724 288 829 361 765 b 428 749 414 725 418 732 b 422 781 435 756 433 767 b 256 939 383 832 274 943 z "},"":{"ha":774,"x_min":0,"x_max":0,"o":"m 392 669 b 50 318 188 669 50 517 b 385 -17 50 167 132 -17 b 722 333 608 -17 722 138 b 393 669 722 531 592 669 z m 379 615 b 643 328 547 615 643 497 b 390 38 643 129 538 38 b 129 322 253 38 129 138 b 378 615 129 496 229 615 z m 515 939 b 354 788 500 942 397 835 b 338 753 339 769 333 761 b 357 724 344 742 350 732 b 550 872 413 771 481 826 b 563 897 564 881 567 888 b 515 939 554 911 528 936 z "},"":{"ha":774,"x_min":0,"x_max":0,"o":"m 392 669 b 50 318 188 669 50 517 b 385 -17 50 167 132 -17 b 722 333 608 -17 722 138 b 393 669 722 531 592 669 z m 379 615 b 643 328 547 615 643 497 b 390 38 643 129 538 38 b 129 322 253 38 129 138 b 378 615 129 496 229 615 z m 286 735 b 300 739 293 735 296 738 b 382 875 332 792 356 831 b 457 746 415 817 439 778 b 474 735 463 738 467 735 b 518 756 497 735 511 747 b 401 951 481 819 439 885 b 369 947 393 951 381 949 b 347 926 358 944 356 939 b 243 753 314 865 278 814 b 285 735 247 743 269 735 z "},"":{"ha":774,"x_min":0,"x_max":0,"o":"m 392 669 b 50 318 188 669 50 517 b 385 -17 50 167 132 -17 b 722 333 608 -17 722 138 b 393 669 722 531 592 669 z m 379 615 b 643 328 547 615 643 497 b 390 38 643 129 538 38 b 129 322 253 38 129 138 b 378 615 129 496 229 615 z m 325 890 b 224 757 254 890 232 808 b 268 744 235 753 253 744 b 281 760 276 744 279 751 b 322 826 290 793 303 826 b 364 796 336 826 347 817 b 443 739 393 765 411 739 b 536 871 497 739 526 792 b 496 892 522 882 508 892 b 482 876 488 892 485 888 b 446 806 472 822 460 806 b 404 843 436 806 421 822 b 326 890 385 867 360 890 z "},"":{"ha":774,"x_min":0,"x_max":0,"o":"m 392 669 b 50 318 188 669 50 517 b 385 -17 50 167 132 -17 b 722 333 608 -17 722 138 b 393 669 722 531 592 669 z m 379 615 b 643 328 547 615 643 497 b 390 38 643 129 538 38 b 129 322 253 38 129 138 b 378 615 129 496 229 615 z m 283 869 b 228 811 249 869 228 843 b 281 757 228 774 253 757 b 335 814 313 757 335 778 b 285 869 335 843 314 869 z m 497 869 b 440 811 461 869 440 843 b 492 757 440 774 468 757 b 549 814 526 757 549 778 b 499 869 549 843 528 869 z "},"":{"ha":1071,"x_min":0,"x_max":0,"o":"m 713 364 l 713 599 l 865 599 b 967 606 913 599 949 599 b 999 654 979 611 994 626 b 694 654 903 654 778 654 b 649 639 678 650 658 643 l 649 528 b 388 669 585 624 507 669 b 51 325 196 669 51 515 b 390 -17 51 181 125 -17 b 649 122 514 -17 596 38 l 649 25 l 664 4 b 865 -6 682 0 756 -6 b 988 4 926 -6 967 -3 b 1025 50 1008 17 1015 28 l 1024 54 b 847 50 963 50 900 50 b 713 61 786 50 732 54 l 713 308 l 914 308 b 983 364 950 308 972 318 z m 129 319 b 382 614 129 483 221 614 b 644 324 560 614 644 499 b 390 39 644 124 539 39 b 129 318 260 39 129 135 z "},"":{"ha":774,"x_min":0,"x_max":0,"o":"m 683 661 b 658 694 679 672 668 688 b 628 678 651 699 644 700 l 581 615 b 390 669 519 654 453 669 b 51 322 186 669 51 514 b 153 67 51 233 79 138 l 83 -22 b 108 -53 86 -31 94 -42 b 136 -46 117 -61 125 -60 l 197 33 b 390 -17 247 3 310 -17 b 726 325 611 -17 726 132 b 624 582 726 413 699 514 z m 197 121 b 126 321 151 174 126 238 b 385 614 126 482 222 611 b 539 565 436 615 492 597 z m 582 529 b 651 322 624 483 651 417 b 388 38 651 126 531 38 b 238 85 336 38 283 53 z "},"":{"ha":753,"x_min":0,"x_max":0,"o":"m 171 600 b 153 660 171 650 167 660 b 97 653 139 660 113 657 b 100 515 99 628 100 586 l 100 299 b 372 -17 100 68 221 -17 b 656 328 506 -17 656 33 l 656 468 b 661 660 656 556 657 617 b 611 656 643 660 624 657 b 589 628 597 654 589 651 l 589 340 b 383 40 589 96 507 40 b 171 335 289 40 171 83 z m 249 957 b 208 919 238 956 226 943 b 214 890 201 904 204 897 b 403 742 281 847 354 783 b 421 767 407 743 411 750 b 415 799 428 774 426 785 b 249 957 376 850 267 961 z "},"":{"ha":753,"x_min":0,"x_max":0,"o":"m 171 600 b 153 660 171 650 167 660 b 97 653 139 660 113 657 b 100 515 99 628 100 586 l 100 299 b 372 -17 100 68 221 -17 b 656 328 506 -17 656 33 l 656 468 b 661 660 656 556 657 617 b 611 656 643 660 624 657 b 589 628 597 654 589 651 l 589 340 b 383 40 589 96 507 40 b 171 335 289 40 171 83 z m 508 932 b 347 781 493 935 390 828 b 331 746 332 763 326 754 b 350 717 338 735 343 725 b 543 865 406 764 474 819 b 556 890 557 874 560 881 b 508 932 547 904 521 929 z "},"":{"ha":753,"x_min":0,"x_max":0,"o":"m 171 600 b 153 660 171 650 167 660 b 97 653 139 660 113 657 b 100 515 99 628 100 586 l 100 299 b 372 -17 100 68 221 -17 b 656 328 506 -17 656 33 l 656 468 b 661 660 656 556 657 617 b 611 656 643 660 624 657 b 589 628 597 654 589 651 l 589 340 b 383 40 589 96 507 40 b 171 335 289 40 171 83 z m 279 735 b 293 739 286 735 289 738 b 375 875 325 792 349 831 b 450 746 408 817 432 778 b 467 735 456 738 460 735 b 511 756 490 735 504 747 b 394 951 474 819 432 885 b 363 947 386 951 374 949 b 340 926 351 944 349 939 b 236 753 307 865 271 814 b 278 735 240 743 263 735 z "},"":{"ha":753,"x_min":0,"x_max":0,"o":"m 171 600 b 153 660 171 650 167 660 b 97 653 139 660 113 657 b 100 515 99 628 100 586 l 100 299 b 372 -17 100 68 221 -17 b 656 328 506 -17 656 33 l 656 468 b 661 660 656 556 657 617 b 611 656 643 660 624 657 b 589 628 597 654 589 651 l 589 340 b 383 40 589 96 507 40 b 171 335 289 40 171 83 z m 283 869 b 228 811 249 869 228 843 b 281 757 228 774 253 757 b 335 814 313 757 335 778 b 285 869 335 843 314 869 z m 497 869 b 440 811 461 869 440 843 b 492 757 440 774 468 757 b 549 814 526 757 549 778 b 499 869 549 843 528 869 z "},"":{"ha":615,"x_min":0,"x_max":0,"o":"m 274 14 b 297 -6 274 -3 282 -6 b 347 1 303 -6 335 -3 b 346 132 346 25 346 57 l 346 285 b 360 331 346 301 349 317 b 574 622 389 371 536 575 b 568 656 588 640 589 650 b 528 661 554 660 542 661 b 317 365 507 635 371 432 b 129 632 256 453 182 561 b 89 661 113 656 103 661 b 33 650 74 661 47 657 l 33 646 b 203 415 72 596 157 479 b 264 328 244 358 257 336 b 274 288 268 321 274 308 z m 450 918 b 289 767 435 921 332 814 b 272 732 274 749 268 740 b 292 703 279 721 285 711 b 485 851 347 750 415 806 b 497 876 499 860 501 867 b 450 918 489 890 463 915 z "},"":{"ha":528,"x_min":0,"x_max":0,"o":"m 99 15 b 115 -6 99 -3 104 -6 b 172 3 132 -6 149 -3 b 169 139 172 26 169 60 l 169 467 b 236 471 189 469 214 471 b 403 328 331 472 403 419 b 256 175 403 200 315 175 b 207 179 236 175 217 176 b 228 135 207 146 217 140 b 283 128 239 129 261 128 b 479 332 357 128 479 183 b 243 525 479 475 372 525 b 169 519 210 525 188 521 l 169 601 b 146 661 169 653 165 661 b 94 653 135 661 115 658 b 99 515 97 631 99 582 z "},"":{"ha":615,"x_min":0,"x_max":0,"o":"m 274 14 b 297 -6 274 -3 282 -6 b 347 1 303 -6 335 -3 b 346 132 346 25 346 57 l 346 285 b 360 331 346 301 349 317 b 574 622 389 371 536 575 b 568 656 588 640 589 650 b 528 661 554 660 542 661 b 317 365 507 635 371 432 b 129 632 256 453 182 561 b 89 661 113 656 103 661 b 33 650 74 661 47 657 l 33 646 b 203 415 72 596 157 479 b 264 328 244 358 257 336 b 274 288 268 321 274 308 z m 204 858 b 149 800 169 858 149 832 b 201 746 149 763 174 746 b 256 803 233 746 256 767 b 206 858 256 832 235 858 z m 418 858 b 361 800 382 858 361 832 b 413 746 361 763 389 746 b 469 803 447 746 469 767 b 419 858 469 832 449 858 z "},"":{"ha":774,"x_min":0,"x_max":0,"o":"m 383 669 b 50 324 192 669 50 522 b 385 -18 50 160 133 -11 b 607 -119 442 -19 506 -53 b 1101 -339 750 -215 921 -339 b 1393 -257 1229 -339 1324 -314 b 1421 -189 1403 -250 1422 -218 b 1419 -187 1421 -187 1421 -187 b 1122 -274 1333 -247 1251 -274 b 676 -86 975 -274 825 -178 b 508 6 626 -56 557 -12 b 722 333 650 50 722 182 b 385 669 722 538 586 669 z m 376 615 b 643 328 546 615 643 496 b 388 38 643 132 540 38 b 129 322 254 38 129 140 b 375 615 129 499 224 615 z "},"":{"ha":556,"x_min":0,"x_max":0,"o":"m 301 -69 b 243 -96 283 -69 258 -83 b 260 -156 251 -112 260 -133 b 181 -340 260 -224 228 -283 b 242 -329 207 -342 235 -333 b 343 -146 290 -297 343 -219 b 303 -69 343 -112 326 -69 z "},"Ă":{"ha":856,"x_min":0,"x_max":0,"o":"m 610 300 b 731 31 671 163 696 106 b 768 -8 744 0 753 -8 b 828 6 781 -8 801 -4 l 828 13 b 713 260 804 54 769 139 b 453 851 651 392 515 708 b 421 872 449 861 442 872 b 372 860 403 872 385 865 l 393 813 b 24 15 354 724 110 186 l 22 7 b 71 -8 36 -3 58 -8 b 94 6 82 -8 90 -3 b 231 300 122 60 168 160 z m 256 358 b 424 739 317 497 365 610 b 586 358 446 689 501 560 z m 322 1086 b 282 1060 307 1086 282 1078 b 421 924 281 996 332 924 b 576 1063 501 924 563 969 b 539 1086 578 1076 551 1086 b 521 1069 529 1086 524 1076 b 424 989 492 1003 464 989 b 339 1068 386 989 357 1006 b 324 1086 338 1078 333 1086 z "},"Ā":{"ha":856,"x_min":0,"x_max":0,"o":"m 610 300 b 731 31 671 163 696 106 b 768 -8 744 0 753 -8 b 828 6 781 -8 801 -4 l 828 13 b 713 260 804 54 769 139 b 453 851 651 392 515 708 b 421 872 449 861 442 872 b 372 860 403 872 385 865 l 393 813 b 24 15 354 724 110 186 l 22 7 b 71 -8 36 -3 58 -8 b 94 6 82 -8 90 -3 b 231 300 122 60 168 160 z m 256 358 b 424 739 317 497 365 610 b 586 358 446 689 501 560 z m 547 944 b 571 996 557 956 571 988 b 556 1006 571 1003 567 1006 l 308 1006 b 289 961 303 1001 289 983 b 306 944 289 949 292 944 z "},"Ą":{"ha":856,"x_min":0,"x_max":0,"o":"m 617 292 b 731 31 676 154 697 107 b 750 0 738 15 743 6 b 614 -211 669 -56 614 -137 b 729 -329 614 -286 665 -329 b 836 -294 774 -329 814 -314 b 850 -244 843 -283 850 -257 l 846 -240 b 764 -260 824 -250 794 -260 b 693 -190 715 -260 693 -231 b 828 7 693 -118 757 -43 l 828 14 b 715 260 806 56 771 140 b 461 851 654 392 522 708 b 429 872 457 861 450 872 b 381 860 411 872 393 865 l 401 813 b 25 15 361 724 111 188 l 24 8 b 72 -7 38 -1 60 -7 b 96 7 83 -7 92 -1 b 231 292 125 61 165 153 z m 257 350 b 431 739 318 490 372 610 b 594 350 453 689 511 551 z "},"Ǽ":{"ha":1085,"x_min":0,"x_max":0,"o":"m 576 365 l 588 33 l 610 6 b 864 -8 644 -1 718 -8 b 1017 -3 954 -8 1000 -6 b 1069 53 1050 4 1065 28 l 1068 56 b 865 49 1026 50 940 49 b 665 60 794 49 707 51 l 649 363 l 942 363 b 996 419 979 363 992 388 l 647 419 l 629 810 l 946 810 b 994 825 972 810 988 815 b 1011 867 1004 838 1011 854 b 556 867 894 867 753 867 b 488 853 526 863 504 857 b 465 808 482 839 478 828 b 13 11 372 651 99 156 l 14 4 b 61 -17 29 -8 46 -17 b 85 6 69 -17 78 -6 b 285 365 108 43 157 132 z m 572 419 l 314 419 b 513 778 363 507 421 619 b 557 808 526 803 543 808 z m 810 1086 b 600 981 782 1083 650 1013 b 589 953 585 971 585 963 b 606 931 593 942 599 935 b 838 1011 658 950 753 988 b 854 1036 853 1014 860 1022 b 810 1086 850 1051 825 1081 z "},"Ć":{"ha":804,"x_min":0,"x_max":0,"o":"m 757 88 b 543 40 715 67 624 40 b 142 435 282 40 142 203 b 522 826 142 692 321 826 b 732 776 607 826 681 804 b 775 819 744 774 771 785 b 529 889 753 846 658 889 b 57 429 261 889 57 704 b 518 -21 57 163 213 -21 b 722 22 614 -21 694 3 b 760 83 743 35 758 64 z m 621 1097 b 411 992 593 1094 461 1024 b 400 964 396 982 396 974 b 417 942 404 953 410 946 b 649 1022 469 961 564 999 b 665 1047 664 1025 671 1033 b 621 1097 661 1063 636 1092 z "},"Č":{"ha":804,"x_min":0,"x_max":0,"o":"m 757 88 b 543 40 715 67 624 40 b 142 435 282 40 142 203 b 522 826 142 692 321 826 b 732 776 607 826 681 804 b 775 819 744 774 771 785 b 529 889 753 846 658 889 b 57 429 261 889 57 704 b 518 -21 57 163 213 -21 b 722 22 614 -21 694 3 b 760 83 743 35 758 64 z m 611 1103 b 585 1094 600 1103 593 1099 b 497 1013 563 1076 528 1046 b 404 1096 456 1051 419 1083 b 379 1103 399 1100 389 1103 b 340 1078 368 1103 346 1092 b 485 940 390 1039 440 990 b 506 944 488 940 496 940 b 524 958 513 949 519 954 b 651 1083 565 1008 604 1046 b 613 1103 639 1094 621 1103 z "},"Ĉ":{"ha":804,"x_min":0,"x_max":0,"o":"m 757 88 b 543 40 715 67 624 40 b 142 435 282 40 142 203 b 522 826 142 692 321 826 b 732 776 607 826 681 804 b 775 819 744 774 771 785 b 529 889 753 846 658 889 b 57 429 261 889 57 704 b 518 -21 57 163 213 -21 b 722 22 614 -21 694 3 b 760 83 743 35 758 64 z m 375 944 b 403 954 386 944 393 949 b 493 1040 425 972 461 1004 b 590 953 536 999 575 964 b 618 944 597 947 608 944 b 658 971 629 944 651 956 b 503 1115 604 1013 550 1063 b 482 1111 500 1115 493 1115 b 464 1097 475 1107 468 1101 b 332 964 421 1044 381 1004 b 374 944 344 954 364 944 z "},"Ċ":{"ha":804,"x_min":0,"x_max":0,"o":"m 757 88 b 543 40 715 67 624 40 b 142 435 282 40 142 203 b 522 826 142 692 321 826 b 732 776 607 826 681 804 b 775 819 744 774 771 785 b 529 889 753 846 658 889 b 57 429 261 889 57 704 b 518 -21 57 163 213 -21 b 722 22 614 -21 694 3 b 760 83 743 35 758 64 z m 496 1049 b 443 993 464 1049 443 1024 b 494 940 443 956 468 940 b 546 996 524 940 546 960 b 497 1049 546 1025 525 1049 z "},"Ď":{"ha":886,"x_min":0,"x_max":0,"o":"m 108 18 b 339 -14 181 -1 242 -14 b 839 447 625 -14 839 149 b 324 875 839 615 769 875 b 106 854 250 875 119 861 b 108 688 108 810 108 782 z m 185 808 b 318 818 224 815 267 818 b 754 442 626 818 754 657 b 346 40 754 153 565 40 b 185 57 290 40 219 46 z m 513 1089 b 486 1081 501 1089 494 1085 b 399 999 464 1063 429 1032 b 306 1082 357 1038 321 1069 b 281 1089 300 1086 290 1089 b 242 1064 269 1089 247 1078 b 386 926 292 1025 342 976 b 407 931 389 926 397 926 b 425 944 414 935 421 940 b 553 1069 467 994 506 1032 b 514 1089 540 1081 522 1089 z "},"Đ":{"ha":901,"x_min":0,"x_max":0,"o":"m 119 857 b 122 686 122 808 122 781 l 122 475 l 57 475 b -6 418 28 475 0 464 l 122 418 l 122 19 b 358 -14 206 -4 253 -14 b 701 96 435 -14 586 0 b 854 450 822 200 854 321 b 343 878 854 618 789 878 b 183 867 289 878 218 871 z m 199 811 b 338 822 251 819 299 822 b 769 440 647 822 769 657 b 364 39 769 158 579 39 b 199 61 301 39 246 46 l 199 418 l 379 418 b 468 475 428 418 456 425 l 199 475 z "},"Ĕ":{"ha":596,"x_min":0,"x_max":0,"o":"m 108 31 l 126 7 b 375 -8 163 -3 267 -8 b 524 -3 464 -8 507 -6 b 579 54 553 3 571 31 l 576 57 b 388 50 535 51 456 50 b 185 63 310 50 211 53 l 185 417 l 446 417 b 526 475 490 417 515 419 l 185 475 l 185 808 l 418 808 b 510 818 478 808 494 810 b 535 867 525 831 535 854 b 168 867 439 867 281 867 b 106 847 146 863 122 854 b 108 672 108 800 108 738 z m 225 1093 b 185 1067 210 1093 185 1085 b 324 931 183 1003 235 931 b 479 1069 404 931 465 976 b 442 1093 481 1083 454 1093 b 424 1076 432 1093 426 1083 b 326 996 394 1010 367 996 b 242 1075 289 996 260 1013 b 226 1093 240 1085 236 1093 z "},"Ě":{"ha":596,"x_min":0,"x_max":0,"o":"m 108 31 l 126 7 b 375 -8 163 -3 267 -8 b 524 -3 464 -8 507 -6 b 579 54 553 3 571 31 l 576 57 b 388 50 535 51 456 50 b 185 63 310 50 211 53 l 185 417 l 446 417 b 526 475 490 417 515 419 l 185 475 l 185 808 l 418 808 b 510 818 478 808 494 810 b 535 867 525 831 535 854 b 168 867 439 867 281 867 b 106 847 146 863 122 854 b 108 672 108 800 108 738 z m 444 1082 b 418 1074 433 1082 426 1078 b 331 992 396 1056 361 1025 b 238 1075 289 1031 253 1063 b 213 1082 232 1079 222 1082 b 174 1057 201 1082 179 1071 b 318 919 224 1018 274 969 b 339 924 321 919 329 919 b 357 938 346 928 353 933 b 485 1063 399 988 438 1025 b 446 1082 472 1074 454 1082 z "},"Ė":{"ha":596,"x_min":0,"x_max":0,"o":"m 108 31 l 126 7 b 375 -8 163 -3 267 -8 b 524 -3 464 -8 507 -6 b 579 54 553 3 571 31 l 576 57 b 388 50 535 51 456 50 b 185 63 310 50 211 53 l 185 417 l 446 417 b 526 475 490 417 515 419 l 185 475 l 185 808 l 418 808 b 510 818 478 808 494 810 b 535 867 525 831 535 854 b 168 867 439 867 281 867 b 106 847 146 863 122 854 b 108 672 108 800 108 738 z m 331 1035 b 278 979 299 1035 278 1010 b 329 926 278 942 303 926 b 381 982 358 926 381 946 b 332 1035 381 1011 360 1035 z "},"Ē":{"ha":596,"x_min":0,"x_max":0,"o":"m 108 31 l 126 7 b 375 -8 163 -3 267 -8 b 524 -3 464 -8 507 -6 b 579 54 553 3 571 31 l 576 57 b 388 50 535 51 456 50 b 185 63 310 50 211 53 l 185 417 l 446 417 b 526 475 490 417 515 419 l 185 475 l 185 808 l 418 808 b 510 818 478 808 494 810 b 535 867 525 831 535 854 b 168 867 439 867 281 867 b 106 847 146 863 122 854 b 108 672 108 800 108 738 z m 447 951 b 471 1003 457 963 471 994 b 456 1013 471 1010 467 1013 l 208 1013 b 189 968 203 1008 189 990 b 206 951 189 956 192 951 z "},"Ŋ":{"ha":917,"x_min":0,"x_max":0,"o":"m 578 -253 b 615 -289 583 -271 599 -289 b 710 -250 631 -289 675 -279 b 800 49 782 -192 800 -131 l 799 617 b 803 872 799 732 800 813 b 761 867 781 872 800 872 b 736 826 746 864 736 858 l 736 442 b 740 97 736 372 736 267 b 554 349 697 164 632 250 b 169 849 376 574 218 794 b 139 872 158 865 146 872 b 78 861 122 872 89 865 l 78 856 l 122 799 l 122 244 b 118 -8 122 128 121 47 b 158 -3 128 -8 140 -7 b 185 43 176 1 185 6 l 185 396 b 179 732 185 467 185 543 b 318 543 231 657 288 582 b 733 -8 449 376 622 136 b 581 -246 733 -140 713 -226 z "},"Ę":{"ha":583,"x_min":0,"x_max":0,"o":"m 525 -240 b 443 -260 504 -250 474 -260 b 372 -193 394 -260 372 -229 b 492 -6 372 -143 400 -75 b 511 -3 500 -4 507 -4 b 565 54 539 3 557 29 l 563 57 b 375 50 521 51 443 50 b 185 63 296 50 211 53 l 185 417 l 433 417 b 514 475 476 417 501 419 l 185 475 l 185 808 l 403 808 b 494 818 464 808 481 808 b 522 867 511 832 519 853 b 168 867 404 867 288 867 b 106 847 146 863 122 854 b 108 672 108 800 108 738 l 108 29 l 126 7 b 363 -8 160 -1 254 -8 b 421 -8 385 -8 406 -8 b 293 -212 347 -62 293 -136 b 408 -329 293 -287 346 -329 b 515 -294 453 -329 494 -314 b 529 -244 522 -283 529 -257 z "},"Ğ":{"ha":903,"x_min":0,"x_max":0,"o":"m 739 72 b 556 36 703 50 614 36 b 142 436 353 36 142 139 b 529 828 142 669 304 828 b 769 769 606 828 692 815 b 814 811 793 760 815 788 b 539 889 799 826 711 889 b 57 428 271 889 57 707 b 540 -21 57 103 285 -21 b 731 13 607 -21 694 -1 b 815 57 756 21 799 46 l 815 379 b 800 417 815 408 810 417 b 733 396 782 417 746 403 b 739 207 740 360 739 308 z m 396 1107 b 356 1081 381 1107 356 1099 b 494 944 354 1017 406 944 b 650 1083 575 944 636 990 b 613 1107 651 1097 625 1107 b 594 1090 603 1107 597 1097 b 497 1010 565 1024 538 1010 b 413 1089 460 1010 431 1026 b 397 1107 411 1099 407 1107 z "},"Ĝ":{"ha":903,"x_min":0,"x_max":0,"o":"m 739 72 b 556 36 703 50 614 36 b 142 436 353 36 142 139 b 529 828 142 669 304 828 b 769 769 606 828 692 815 b 814 811 793 760 815 788 b 539 889 799 826 711 889 b 57 428 271 889 57 707 b 540 -21 57 103 285 -21 b 731 13 607 -21 694 -1 b 815 57 756 21 799 46 l 815 379 b 800 417 815 408 810 417 b 733 396 782 417 746 403 b 739 207 740 360 739 308 z m 383 942 b 411 951 394 942 401 946 b 501 1038 433 969 469 1001 b 599 950 544 996 583 961 b 626 942 606 944 617 942 b 667 968 638 942 660 953 b 511 1113 613 1010 558 1060 b 490 1108 508 1113 501 1113 b 472 1094 483 1104 476 1099 b 340 961 429 1042 389 1001 b 382 942 353 951 372 942 z "},"Ģ":{"ha":903,"x_min":0,"x_max":0,"o":"m 739 72 b 556 36 703 50 614 36 b 142 436 353 36 142 139 b 529 828 142 669 304 828 b 769 769 606 828 692 815 b 814 811 793 760 815 788 b 539 889 799 826 711 889 b 57 428 271 889 57 707 b 540 -21 57 103 285 -21 b 731 13 607 -21 694 -1 b 815 57 756 21 799 46 l 815 379 b 800 417 815 408 810 417 b 733 396 782 417 746 403 b 739 207 740 360 739 308 z m 524 -62 b 465 -89 506 -62 481 -76 b 482 -149 474 -106 482 -126 b 403 -333 482 -217 450 -276 b 464 -322 429 -335 457 -326 b 565 -139 513 -290 565 -212 b 525 -62 565 -106 549 -62 z "},"Ġ":{"ha":903,"x_min":0,"x_max":0,"o":"m 739 72 b 556 36 703 50 614 36 b 142 436 353 36 142 139 b 529 828 142 669 304 828 b 769 769 606 828 692 815 b 814 811 793 760 815 788 b 539 889 799 826 711 889 b 57 428 271 889 57 707 b 540 -21 57 103 285 -21 b 731 13 607 -21 694 -1 b 815 57 756 21 799 46 l 815 379 b 800 417 815 408 810 417 b 733 396 782 417 746 403 b 739 207 740 360 739 308 z m 515 1049 b 463 993 483 1049 463 1024 b 514 940 463 956 488 940 b 565 996 543 940 565 960 b 517 1049 565 1025 544 1049 z "},"Ħ":{"ha":892,"x_min":0,"x_max":0,"o":"m 108 594 l 108 246 b 104 -8 108 129 107 47 b 157 -3 139 -7 126 -8 b 185 31 179 1 185 6 l 185 385 l 478 385 b 708 389 635 385 681 386 l 708 11 b 722 -8 708 -4 714 -8 b 789 3 735 -8 768 -3 b 785 174 788 31 785 76 l 785 594 l 793 594 b 869 647 840 594 860 597 l 785 647 b 789 872 785 744 786 824 b 732 867 772 872 749 871 b 708 835 714 864 708 858 l 708 647 l 185 647 l 185 803 b 164 872 185 867 179 872 b 104 861 147 872 118 865 b 108 647 110 811 108 731 l 85 647 b 22 594 56 647 29 640 z m 708 594 l 708 443 l 185 443 l 185 594 z "},"Ĥ":{"ha":892,"x_min":0,"x_max":0,"o":"m 185 478 l 185 803 b 164 872 185 867 179 872 b 104 861 147 872 118 865 b 108 685 107 835 108 778 l 108 246 b 104 -8 108 129 107 47 b 157 -3 139 -7 126 -8 b 185 31 179 1 185 6 l 185 419 l 478 419 b 708 424 635 419 681 421 l 708 11 b 722 -8 708 -4 714 -8 b 789 3 735 -8 768 -3 b 785 174 788 31 785 76 l 785 622 b 789 872 785 738 786 819 b 732 867 772 872 749 871 b 708 833 714 864 708 858 l 708 478 z m 328 924 b 356 933 339 924 346 928 b 446 1019 378 951 414 983 b 543 932 489 978 528 943 b 571 924 550 926 561 924 b 611 950 582 924 604 935 b 456 1094 557 992 503 1042 b 435 1090 453 1094 446 1094 b 417 1076 428 1086 421 1081 b 285 943 374 1024 333 983 b 326 924 297 933 317 924 z "},"Ĭ":{"ha":292,"x_min":0,"x_max":0,"o":"m 108 17 b 125 -8 108 -4 114 -8 b 189 3 140 -8 169 -4 b 185 172 188 31 185 76 l 185 803 b 168 872 185 864 183 872 b 104 861 149 872 118 865 b 108 686 107 836 108 779 z m 40 1086 b 0 1060 25 1086 0 1078 b 139 924 -1 996 50 924 b 294 1063 219 924 281 969 b 257 1086 296 1076 269 1086 b 239 1069 247 1086 242 1076 b 142 989 210 1003 182 989 b 57 1068 104 989 75 1006 b 42 1086 56 1078 51 1086 z "},"Ĳ":{"ha":583,"x_min":0,"x_max":0,"o":"m 108 17 b 125 -8 108 -4 114 -8 b 189 3 140 -8 169 -4 b 185 172 188 31 185 76 l 185 803 b 168 872 185 864 183 872 b 104 861 149 872 118 865 b 108 686 107 836 108 779 z m 400 201 b 251 -140 400 -61 344 -110 l 250 -144 b 289 -181 256 -161 272 -181 b 375 -140 306 -181 343 -167 b 476 211 451 -78 476 15 l 476 804 b 461 872 476 867 475 872 b 396 861 444 872 410 865 b 400 686 399 836 400 779 z "},"Ī":{"ha":292,"x_min":0,"x_max":0,"o":"m 108 17 b 125 -8 108 -4 114 -8 b 189 3 140 -8 169 -4 b 185 172 188 31 185 76 l 185 803 b 168 872 185 864 183 872 b 104 861 149 872 118 865 b 108 686 107 836 108 779 z m 265 935 b 289 986 275 946 289 978 b 274 996 289 993 285 996 l 26 996 b 7 951 21 992 7 974 b 24 935 7 939 10 935 z "},"Į":{"ha":292,"x_min":0,"x_max":0,"o":"m 185 803 b 168 872 185 864 183 872 b 104 861 149 872 118 865 b 108 686 107 836 108 779 l 108 17 b 121 -8 108 -4 111 -7 b 125 -8 124 -8 124 -8 b 25 -206 68 -65 25 -129 b 142 -329 25 -285 75 -329 b 247 -294 186 -329 226 -314 b 263 -244 256 -283 263 -257 l 258 -240 b 176 -260 235 -250 207 -260 b 104 -185 128 -260 104 -225 b 189 3 104 -114 142 -50 b 185 172 188 31 185 76 z "},"Ĩ":{"ha":292,"x_min":0,"x_max":0,"o":"m 108 17 b 125 -8 108 -4 114 -8 b 189 3 140 -8 169 -4 b 185 172 188 31 185 76 l 185 803 b 168 872 185 864 183 872 b 104 861 149 872 118 865 b 108 686 107 836 108 779 z m 94 1079 b -4 949 26 1079 4 997 b 38 936 7 944 22 936 b 50 951 46 936 49 943 b 92 1019 60 986 72 1019 b 133 989 107 1019 115 1010 b 211 931 161 956 181 931 b 303 1058 265 931 293 983 b 265 1079 289 1069 276 1079 b 250 1064 256 1079 253 1075 b 215 993 240 1010 229 993 b 174 1031 206 993 190 1010 b 96 1079 154 1056 129 1079 z "},"Ĵ":{"ha":292,"x_min":0,"x_max":0,"o":"m 108 201 b -40 -140 108 -61 53 -110 l -42 -144 b -3 -181 -36 -161 -19 -181 b 83 -140 14 -181 51 -167 b 185 211 160 -78 185 15 l 185 804 b 169 872 185 867 183 872 b 104 861 153 872 118 865 b 108 686 107 836 108 779 z m 28 931 b 56 940 39 931 46 935 b 146 1026 78 958 114 990 b 243 939 189 985 228 950 b 271 931 250 933 261 931 b 311 957 282 931 304 942 b 156 1101 257 999 203 1049 b 135 1097 153 1101 146 1101 b 117 1083 128 1093 121 1088 b -15 950 74 1031 33 990 b 26 931 -3 940 17 931 z "},"Ķ":{"ha":768,"x_min":0,"x_max":0,"o":"m 108 13 b 128 -8 108 -4 113 -8 b 189 3 140 -8 172 -3 b 185 174 188 31 185 76 l 185 429 b 619 17 239 372 535 92 b 681 -11 643 -3 663 -11 b 747 4 703 -11 733 -4 l 747 7 b 274 443 621 101 379 333 b 686 829 376 539 576 729 b 694 875 717 858 717 869 b 654 882 678 879 667 882 b 185 436 507 743 308 549 l 185 810 b 169 872 185 867 185 872 b 104 861 153 872 124 865 b 108 685 107 835 108 778 z m 408 -56 b 350 -82 390 -56 365 -69 b 367 -142 358 -99 367 -119 b 288 -326 367 -210 335 -269 b 349 -315 314 -328 342 -319 b 450 -132 397 -283 450 -206 b 410 -56 450 -99 433 -56 z "},"Ĺ":{"ha":579,"x_min":0,"x_max":0,"o":"m 108 31 l 126 7 b 365 -8 164 -1 257 -8 b 514 -3 454 -8 497 -6 b 565 54 546 4 563 29 l 564 57 b 361 50 521 51 429 50 b 185 63 296 50 211 53 l 185 801 b 169 872 185 867 179 872 b 104 861 151 872 124 865 b 108 685 107 835 108 778 z m 319 1086 b 110 981 292 1083 160 1013 b 99 953 94 971 94 963 b 115 931 103 942 108 935 b 347 1011 168 950 263 988 b 364 1036 363 1014 369 1022 b 319 1086 360 1051 335 1081 z "},"Ľ":{"ha":579,"x_min":0,"x_max":0,"o":"m 108 31 l 126 7 b 365 -8 164 -1 257 -8 b 514 -3 454 -8 497 -6 b 565 54 546 4 563 29 l 564 57 b 361 50 521 51 429 50 b 185 63 296 50 211 53 l 185 801 b 169 872 185 867 179 872 b 104 861 151 872 124 865 b 108 685 107 835 108 778 z m 474 889 b 415 863 456 889 431 875 b 432 803 424 846 432 825 b 353 618 432 735 400 675 b 414 629 379 617 407 625 b 515 813 463 661 515 739 b 475 889 515 846 499 889 z "},"Ļ":{"ha":579,"x_min":0,"x_max":0,"o":"m 108 31 l 126 7 b 365 -8 164 -1 257 -8 b 514 -3 454 -8 497 -6 b 565 54 546 4 563 29 l 564 57 b 361 50 521 51 429 50 b 185 63 296 50 211 53 l 185 801 b 169 872 185 867 179 872 b 104 861 151 872 124 865 b 108 685 107 835 108 778 z m 349 -69 b 290 -96 331 -69 306 -83 b 307 -156 299 -112 307 -133 b 228 -340 307 -224 275 -283 b 289 -329 254 -342 282 -333 b 390 -146 338 -297 390 -219 b 350 -69 390 -112 374 -69 z "},"Ŀ":{"ha":579,"x_min":0,"x_max":0,"o":"m 108 31 l 126 7 b 365 -8 164 -1 257 -8 b 514 -3 454 -8 497 -6 b 565 54 546 4 563 29 l 564 57 b 361 50 521 51 429 50 b 185 63 296 50 211 53 l 185 801 b 169 872 185 867 179 872 b 104 861 151 872 124 865 b 108 685 107 835 108 778 z m 404 507 b 351 451 372 507 351 482 b 403 399 351 414 376 399 b 454 454 432 399 454 418 b 406 507 454 483 433 507 z "},"Ń":{"ha":917,"x_min":0,"x_max":0,"o":"m 124 799 l 124 244 b 119 -8 124 128 122 47 b 160 -3 129 -8 142 -7 b 186 43 178 1 186 6 l 186 396 b 179 732 186 467 185 543 b 318 543 231 657 289 582 b 746 -15 450 376 635 131 b 757 -18 749 -15 754 -18 b 800 0 769 -18 793 -7 l 800 617 b 804 872 800 732 801 813 b 761 867 782 872 800 872 b 736 826 746 864 736 858 l 736 442 b 743 97 736 372 736 267 b 554 353 703 164 632 254 b 169 849 376 578 219 794 b 139 872 158 865 146 872 b 79 861 124 872 90 865 l 79 856 z m 593 1072 b 383 967 565 1069 433 999 b 372 939 368 957 368 949 b 389 917 376 928 382 921 b 621 997 442 936 536 974 b 638 1022 636 1000 643 1008 b 593 1072 633 1038 608 1067 z "},"Ň":{"ha":917,"x_min":0,"x_max":0,"o":"m 124 799 l 124 244 b 119 -8 124 128 122 47 b 160 -3 129 -8 142 -7 b 186 43 178 1 186 6 l 186 396 b 179 732 186 467 185 543 b 318 543 231 657 289 582 b 746 -15 450 376 635 131 b 757 -18 749 -15 754 -18 b 800 0 769 -18 793 -7 l 800 617 b 804 872 800 732 801 813 b 761 867 782 872 800 872 b 736 826 746 864 736 858 l 736 442 b 743 97 736 372 736 267 b 554 353 703 164 632 254 b 169 849 376 578 219 794 b 139 872 158 865 146 872 b 79 861 124 872 90 865 l 79 856 z m 576 1061 b 550 1053 565 1061 558 1057 b 463 971 528 1035 493 1004 b 369 1054 421 1010 385 1042 b 344 1061 364 1058 354 1061 b 306 1036 333 1061 311 1050 b 450 899 356 997 406 949 b 471 903 453 899 461 899 b 489 917 478 907 485 913 b 617 1042 531 967 569 1004 b 578 1061 604 1053 586 1061 z "},"Ņ":{"ha":917,"x_min":0,"x_max":0,"o":"m 124 799 l 124 244 b 119 -8 124 128 122 47 b 160 -3 129 -8 142 -7 b 186 43 178 1 186 6 l 186 396 b 179 732 186 467 185 543 b 318 543 231 657 289 582 b 746 -15 450 376 635 131 b 757 -18 749 -15 754 -18 b 800 0 769 -18 793 -7 l 800 617 b 804 872 800 732 801 813 b 761 867 782 872 800 872 b 736 826 746 864 736 858 l 736 442 b 743 97 736 372 736 267 b 554 353 703 164 632 254 b 169 849 376 578 219 794 b 139 872 158 865 146 872 b 79 861 124 872 90 865 l 79 856 z m 482 -69 b 424 -96 464 -69 439 -83 b 440 -156 432 -112 440 -133 b 361 -340 440 -224 408 -283 b 422 -329 388 -342 415 -333 b 524 -146 471 -297 524 -219 b 483 -69 524 -112 507 -69 z "},"Ŏ":{"ha":989,"x_min":0,"x_max":0,"o":"m 493 889 b 57 421 224 889 57 686 b 497 -21 57 242 175 -21 b 932 442 793 -21 932 208 b 494 889 932 694 751 889 z m 488 835 b 847 439 694 835 847 668 b 503 33 847 164 696 33 b 142 429 328 33 142 174 b 486 835 142 679 283 835 z m 389 1118 b 349 1092 374 1118 349 1110 b 488 956 347 1028 399 956 b 643 1094 568 956 629 1001 b 606 1118 644 1108 618 1118 b 588 1101 596 1118 590 1108 b 490 1021 558 1035 531 1021 b 406 1100 453 1021 424 1038 b 390 1118 404 1110 400 1118 z "},"Ő":{"ha":989,"x_min":0,"x_max":0,"o":"m 493 889 b 57 421 224 889 57 686 b 497 -21 57 242 175 -21 b 932 442 793 -21 932 208 b 494 889 932 694 751 889 z m 488 835 b 847 439 694 835 847 668 b 503 33 847 164 696 33 b 142 429 328 33 142 174 b 486 835 142 679 283 835 z m 456 1143 b 358 958 431 1143 374 1006 b 390 933 365 950 382 933 b 406 943 396 933 400 936 b 506 1081 436 990 472 1050 b 506 1114 519 1093 517 1103 b 457 1143 492 1126 472 1143 z m 668 1143 b 575 958 643 1143 592 1006 b 607 933 582 950 597 933 b 621 942 614 933 615 935 b 721 1079 649 986 688 1046 b 722 1111 735 1093 732 1100 b 669 1143 708 1126 689 1143 z "},"Ō":{"ha":989,"x_min":0,"x_max":0,"o":"m 493 889 b 57 421 224 889 57 686 b 497 -21 57 242 175 -21 b 932 442 793 -21 932 208 b 494 889 932 694 751 889 z m 488 835 b 847 439 694 835 847 668 b 503 33 847 164 696 33 b 142 429 328 33 142 174 b 486 835 142 679 283 835 z m 614 969 b 638 1021 624 981 638 1013 b 622 1031 638 1028 633 1031 l 375 1031 b 356 986 369 1026 356 1008 b 372 969 356 974 358 969 z "},"Ǿ":{"ha":989,"x_min":0,"x_max":0,"o":"m 861 879 b 843 917 861 889 856 906 b 810 906 832 926 825 925 l 742 817 b 494 889 668 867 585 889 b 56 419 225 889 56 683 b 188 103 56 324 92 194 l 97 -14 b 122 -49 101 -25 114 -39 b 149 -46 131 -58 138 -60 l 231 64 b 496 -21 296 13 383 -21 b 932 442 800 -21 932 213 b 786 782 932 567 885 696 z m 232 160 b 140 428 176 225 140 317 b 489 835 140 672 288 835 b 701 765 565 835 642 811 z m 746 726 b 847 443 807 664 847 569 b 497 33 847 160 693 33 b 274 118 418 33 336 63 z m 636 1104 b 426 999 608 1101 476 1031 b 415 971 411 989 411 981 b 432 949 419 960 425 953 b 664 1029 485 968 579 1006 b 681 1054 679 1032 686 1040 b 636 1104 676 1069 651 1099 z "},"Ŕ":{"ha":706,"x_min":0,"x_max":0,"o":"m 185 378 b 235 378 210 378 218 378 b 429 247 338 378 363 344 b 547 68 476 179 490 156 b 644 -11 583 13 614 -11 b 697 -1 669 -11 686 -8 l 699 6 b 532 225 671 26 604 111 b 389 397 471 322 425 374 b 569 633 449 419 569 489 b 286 875 569 822 440 875 b 106 857 225 875 147 865 b 108 708 108 810 108 776 l 108 244 b 104 -8 108 129 107 47 b 164 -4 111 -8 128 -8 b 185 29 179 -1 185 6 z m 185 813 b 286 819 210 818 249 819 b 488 629 382 819 488 776 b 351 436 488 521 425 460 b 185 431 332 429 247 428 z m 449 1090 b 239 985 421 1088 289 1017 b 228 957 224 975 224 967 b 244 935 232 946 238 939 b 476 1015 297 954 392 992 b 493 1040 492 1018 499 1026 b 449 1090 489 1056 464 1085 z "},"Ř":{"ha":706,"x_min":0,"x_max":0,"o":"m 185 378 b 235 378 210 378 218 378 b 429 247 338 378 363 344 b 547 68 476 179 490 156 b 644 -11 583 13 614 -11 b 697 -1 669 -11 686 -8 l 699 6 b 532 225 671 26 604 111 b 389 397 471 322 425 374 b 569 633 449 419 569 489 b 286 875 569 822 440 875 b 106 857 225 875 147 865 b 108 708 108 810 108 776 l 108 244 b 104 -8 108 129 107 47 b 164 -4 111 -8 128 -8 b 185 29 179 -1 185 6 z m 185 813 b 286 819 210 818 249 819 b 488 629 382 819 488 776 b 351 436 488 521 425 460 b 185 431 332 429 247 428 z m 418 1089 b 392 1081 407 1089 400 1085 b 304 999 369 1063 335 1032 b 211 1082 263 1038 226 1069 b 186 1089 206 1086 196 1089 b 147 1064 175 1089 153 1078 b 292 926 197 1025 247 976 b 313 931 294 926 303 926 b 331 944 319 935 326 940 b 458 1069 372 994 411 1032 b 419 1089 446 1081 428 1089 z "},"Ŗ":{"ha":706,"x_min":0,"x_max":0,"o":"m 185 378 b 235 378 210 378 218 378 b 429 247 338 378 363 344 b 547 68 476 179 490 156 b 644 -11 583 13 614 -11 b 697 -1 669 -11 686 -8 l 699 6 b 532 225 671 26 604 111 b 389 397 471 322 425 374 b 569 633 449 419 569 489 b 286 875 569 822 440 875 b 106 857 225 875 147 865 b 108 708 108 810 108 776 l 108 244 b 104 -8 108 129 107 47 b 164 -4 111 -8 128 -8 b 185 29 179 -1 185 6 z m 185 813 b 286 819 210 818 249 819 b 488 629 382 819 488 776 b 351 436 488 521 425 460 b 185 431 332 429 247 428 z m 390 -56 b 332 -82 372 -56 347 -69 b 349 -142 340 -99 349 -119 b 269 -326 349 -210 317 -269 b 331 -315 296 -328 324 -319 b 432 -132 379 -283 432 -206 b 392 -56 432 -99 415 -56 z "},"Ś":{"ha":572,"x_min":0,"x_max":0,"o":"m 325 889 b 69 672 122 889 69 750 b 250 422 69 596 85 515 b 447 200 381 350 447 306 b 258 40 447 103 374 40 b 65 106 199 40 117 63 b 54 61 58 89 57 85 b 71 32 54 49 61 40 b 254 -21 97 10 167 -21 b 526 213 408 -21 526 69 b 318 475 526 326 482 383 b 147 678 203 539 147 581 b 315 829 147 790 240 829 b 456 792 371 829 417 813 b 486 836 474 793 488 818 b 326 889 454 868 379 889 z m 435 1096 b 225 990 407 1093 275 1022 b 214 963 210 981 210 972 b 231 940 218 951 224 944 b 463 1021 283 960 378 997 b 479 1046 478 1024 485 1032 b 435 1096 475 1061 450 1090 z "},"Ş":{"ha":572,"x_min":0,"x_max":0,"o":"m 185 -118 l 185 -119 b 303 -176 238 -121 303 -135 b 193 -253 303 -197 274 -228 b 179 -264 181 -257 179 -260 b 206 -297 179 -274 190 -294 b 367 -171 274 -286 367 -242 b 275 -75 367 -126 342 -89 l 318 -14 b 525 214 440 8 525 93 b 317 475 525 326 482 381 b 147 679 203 540 147 579 b 313 829 147 789 239 829 b 456 793 360 829 414 814 b 486 838 474 794 488 818 b 328 889 454 868 371 889 b 69 672 122 889 69 751 b 258 418 69 585 88 514 b 447 200 390 342 447 304 b 256 40 447 101 371 40 b 64 107 196 40 113 65 b 53 64 57 89 56 88 b 69 33 53 51 60 42 b 256 -21 107 1 185 -21 z "},"Ŝ":{"ha":572,"x_min":0,"x_max":0,"o":"m 325 889 b 69 672 122 889 69 750 b 250 422 69 596 85 515 b 447 200 381 350 447 306 b 258 40 447 103 374 40 b 65 106 199 40 117 63 b 54 61 58 89 57 85 b 71 32 54 49 61 40 b 254 -21 97 10 167 -21 b 526 213 408 -21 526 69 b 318 475 526 326 482 383 b 147 678 203 539 147 581 b 315 829 147 790 240 829 b 456 792 371 829 417 813 b 486 836 474 793 488 818 b 326 889 454 868 379 889 z m 168 944 b 196 954 179 944 186 949 b 286 1040 218 972 254 1004 b 383 953 329 999 368 964 b 411 944 390 947 401 944 b 451 971 422 944 444 956 b 296 1115 397 1013 343 1063 b 275 1111 293 1115 286 1115 b 257 1097 268 1107 261 1101 b 125 964 214 1044 174 1004 b 167 944 138 954 157 944 z "},"Ș":{"ha":572,"x_min":0,"x_max":0,"o":"m 325 889 b 69 672 122 889 69 750 b 250 422 69 596 85 515 b 447 200 381 350 447 306 b 258 40 447 103 374 40 b 65 106 199 40 117 63 b 54 61 58 89 57 85 b 71 32 54 49 61 40 b 254 -21 97 10 167 -21 b 526 213 408 -21 526 69 b 318 475 526 326 482 383 b 147 678 203 539 147 581 b 315 829 147 790 240 829 b 456 792 371 829 417 813 b 486 836 474 793 488 818 b 326 889 454 868 379 889 z m 297 -65 b 239 -92 279 -65 254 -79 b 256 -151 247 -108 256 -129 b 176 -336 256 -219 224 -279 b 238 -325 203 -337 231 -329 b 339 -142 286 -293 339 -215 b 299 -65 339 -108 322 -65 z "},"Ŧ":{"ha":724,"x_min":0,"x_max":0,"o":"m 328 17 b 343 -8 328 -4 333 -8 b 408 3 357 -8 385 -4 b 404 172 407 31 404 76 l 404 428 l 479 428 b 564 481 528 428 556 432 l 404 481 l 404 810 l 686 810 b 717 867 700 819 719 854 l 274 867 b 64 874 113 867 82 868 b 29 831 56 865 39 847 b 49 810 22 818 29 810 l 328 810 l 328 481 l 236 481 b 174 428 207 481 181 474 l 328 428 z "},"Ť":{"ha":724,"x_min":0,"x_max":0,"o":"m 328 17 b 343 -8 328 -4 333 -8 b 408 3 357 -8 385 -4 b 404 172 407 31 404 76 l 404 810 l 686 810 b 717 867 700 818 719 854 l 274 867 b 63 874 104 867 76 868 b 29 831 54 865 39 847 b 49 810 22 817 31 810 l 328 810 z m 481 1082 b 454 1074 469 1082 463 1078 b 367 992 432 1056 397 1025 b 274 1075 325 1031 289 1063 b 249 1082 268 1079 258 1082 b 210 1057 238 1082 215 1071 b 354 919 260 1018 310 969 b 375 924 357 919 365 919 b 393 938 382 928 389 933 b 521 1063 435 988 474 1025 b 482 1082 508 1074 490 1082 z "},"Ţ":{"ha":724,"x_min":0,"x_max":0,"o":"m 328 17 b 343 -8 328 -4 333 -8 b 408 3 357 -8 385 -4 b 404 172 407 31 404 76 l 404 810 l 686 810 b 717 867 700 818 719 854 l 274 867 b 63 874 104 867 76 868 b 29 831 54 865 39 847 b 49 810 22 817 31 810 l 328 810 z m 382 -76 b 324 -103 364 -76 339 -90 b 340 -162 332 -119 340 -140 b 261 -347 340 -231 308 -290 b 322 -336 288 -349 315 -340 b 424 -153 371 -304 424 -226 b 383 -76 424 -119 407 -76 z "},"Ŭ":{"ha":907,"x_min":0,"x_max":0,"o":"m 181 801 b 160 872 181 867 179 872 b 100 861 144 872 114 865 b 104 685 103 835 104 778 l 104 407 b 444 -21 104 63 261 -21 b 800 428 586 -21 800 19 l 800 622 b 804 872 800 738 801 819 b 757 867 776 872 797 871 b 733 833 744 864 733 858 l 733 425 b 456 39 733 79 589 39 b 181 403 342 39 181 86 z m 349 1079 b 308 1053 333 1079 308 1071 b 447 917 307 989 358 917 b 603 1056 528 917 589 963 b 565 1079 604 1069 578 1079 b 547 1063 556 1079 550 1069 b 450 982 518 996 490 982 b 365 1061 413 982 383 999 b 350 1079 364 1071 360 1079 z "},"Ű":{"ha":907,"x_min":0,"x_max":0,"o":"m 181 801 b 160 872 181 867 179 872 b 100 861 144 872 114 865 b 104 685 103 835 104 778 l 104 407 b 444 -21 104 63 261 -21 b 800 428 586 -21 800 19 l 800 622 b 804 872 800 738 801 819 b 757 867 776 872 797 871 b 733 833 744 864 733 858 l 733 425 b 456 39 733 79 589 39 b 181 403 342 39 181 86 z m 414 1129 b 317 944 389 1129 332 992 b 349 919 324 936 340 919 b 364 929 354 919 358 922 b 464 1067 394 976 431 1036 b 464 1100 478 1079 475 1089 b 415 1129 450 1113 431 1129 z m 626 1129 b 533 944 601 1129 550 992 b 565 919 540 936 556 919 b 579 928 572 919 574 921 b 679 1065 607 972 646 1032 b 681 1097 693 1079 690 1086 b 628 1129 667 1113 647 1129 z "},"Ū":{"ha":907,"x_min":0,"x_max":0,"o":"m 181 801 b 160 872 181 867 179 872 b 100 861 144 872 114 865 b 104 685 103 835 104 778 l 104 407 b 444 -21 104 63 261 -21 b 800 428 586 -21 800 19 l 800 622 b 804 872 800 738 801 819 b 757 867 776 872 797 871 b 733 833 744 864 733 858 l 733 425 b 456 39 733 79 589 39 b 181 403 342 39 181 86 z m 578 924 b 601 975 588 935 601 967 b 586 985 601 982 597 985 l 339 985 b 319 940 333 981 319 963 b 336 924 319 928 322 924 z "},"Ų":{"ha":907,"x_min":0,"x_max":0,"o":"m 733 428 b 454 35 733 82 599 35 b 181 401 333 35 181 83 l 181 801 b 160 872 181 867 179 872 b 100 861 144 872 114 865 b 104 685 103 835 104 778 l 104 407 b 446 -21 104 64 249 -21 b 503 -17 464 -21 485 -19 b 381 -211 436 -69 381 -136 b 496 -329 381 -286 433 -329 b 603 -294 540 -329 582 -314 b 618 -244 611 -283 618 -257 l 614 -240 b 531 -260 592 -250 561 -260 b 460 -189 482 -260 460 -225 b 592 0 460 -115 522 -43 b 800 428 704 38 800 143 l 800 622 b 804 872 800 738 801 819 b 757 867 776 872 797 871 b 733 833 744 864 733 858 z "},"Ů":{"ha":907,"x_min":0,"x_max":0,"o":"m 181 801 b 160 872 181 867 179 872 b 100 861 144 872 114 865 b 104 685 103 835 104 778 l 104 407 b 444 -21 104 63 261 -21 b 800 428 586 -21 800 19 l 800 622 b 804 872 800 738 801 819 b 757 867 776 872 797 871 b 733 833 744 864 733 858 l 733 425 b 456 39 733 79 589 39 b 181 403 342 39 181 86 z m 456 1128 b 346 1015 388 1128 346 1076 b 451 910 346 951 394 910 b 564 1019 519 910 564 953 b 457 1128 564 1081 517 1128 z m 453 1081 b 510 1017 492 1081 510 1053 b 456 957 510 988 493 957 b 401 1018 424 957 401 983 b 451 1081 401 1047 418 1081 z "},"Ũ":{"ha":907,"x_min":0,"x_max":0,"o":"m 181 801 b 160 872 181 867 179 872 b 100 861 144 872 114 865 b 104 685 103 835 104 778 l 104 407 b 444 -21 104 63 261 -21 b 800 428 586 -21 800 19 l 800 622 b 804 872 800 738 801 819 b 757 867 776 872 797 871 b 733 833 744 864 733 858 l 733 425 b 456 39 733 79 589 39 b 181 403 342 39 181 86 z m 396 1065 b 297 935 328 1065 306 983 b 339 922 308 931 324 922 b 351 938 347 922 350 929 b 393 1006 361 972 374 1006 b 435 975 408 1006 417 996 b 513 917 463 942 482 917 b 604 1044 567 917 594 969 b 567 1065 590 1056 578 1065 b 551 1050 557 1065 554 1061 b 517 979 542 996 531 979 b 475 1017 507 979 492 996 b 397 1065 456 1042 431 1065 z "},"Ẃ":{"ha":1229,"x_min":0,"x_max":0,"o":"m 629 872 b 582 861 610 872 592 867 b 588 829 585 853 586 838 b 361 101 497 557 414 281 b 147 782 296 326 207 588 b 103 872 122 860 117 872 b 40 850 90 872 63 863 b 332 -17 147 565 242 271 b 371 -4 344 -17 358 -11 b 403 51 385 4 392 15 b 617 742 436 169 557 539 b 844 -17 718 406 810 104 b 886 -1 856 -17 879 -8 b 915 53 896 8 903 19 b 1189 811 993 268 1101 561 b 1192 861 1200 843 1201 856 b 1142 872 1176 868 1156 872 b 876 104 1110 769 997 453 b 651 850 799 376 703 689 b 631 872 644 867 640 872 z m 757 1079 b 547 974 729 1076 597 1006 b 536 946 532 964 532 956 b 553 924 540 935 546 928 b 785 1004 606 943 700 981 b 801 1029 800 1007 807 1015 b 757 1079 797 1044 772 1074 z "}}}
